<?xml version="1.0" standalone="no"?>
<!DOCTYPE svg PUBLIC "-//W3C//DTD SVG 1.1//EN" "http://www.w3.org/Graphics/SVG/1.1/DTD/svg11.dtd" >
<svg xmlns="http://www.w3.org/2000/svg">
<metadata>
This is a custom SVG webfont generated by Font Squirrel.
Copyright   : Copyright c 2010 Barry Schwartz chemoelectricchemoelectricorg
</metadata>
<defs>
<font id="SortsMillGoudyRegular" horiz-adv-x="1079" >
<font-face units-per-em="2048" ascent="1638" descent="-410" />
<missing-glyph horiz-adv-x="436" />
<glyph unicode=" "  horiz-adv-x="436" />
<glyph unicode="&#x09;" horiz-adv-x="436" />
<glyph unicode="&#xa0;" horiz-adv-x="436" />
<glyph unicode="!" horiz-adv-x="565" d="M139 128q0 15 34 44t52 51q37 49 66 49q12 0 28.5 -17t28.5 -30.5t36 -32t34 -26.5q29 -20 28.5 -37.5t-13.5 -32t-35.5 -30t-30 -22.5t-21.5 -27.5t-27.5 -32t-25.5 -11.5t-41 23.5t-40 39t-29.5 31t-31 31t-12.5 30.5zM201 1333q0 78 100 78q49 0 71.5 -14.5 t22.5 -50.5q0 -10 -4 -36t-9 -70t-21.5 -305t-47.5 -505q-4 -23 -28.5 -22.5t-24.5 18.5q-31 360 -35 440q-4 137 -14 283.5t-10 183.5z" />
<glyph unicode="&#x22;" horiz-adv-x="940" d="M514 1323q0 18 55 74q4 4 21 24q31 39 53.5 39t52 -20.5t62.5 -76.5t33 -137t-29 -155t-70 -113q-82 -84 -125 -84q-10 0 -18 9.5t-8 18.5t18.5 24.5t38.5 33t38.5 56.5t18.5 93t-22.5 92t-48 52.5t-48 33t-22.5 36.5zM115 1323q0 18 55 74q4 4 23 24q29 39 59 39 q18 0 47 -25.5t47 -50.5q43 -57 43 -148t-28.5 -165t-67.5 -113q-80 -84 -125 -84q-10 0 -18.5 9.5t-8.5 18.5t17.5 24.5t40 33t40 56.5t17.5 93t-22.5 92t-48 52.5t-48 33t-22.5 36.5z" />
<glyph unicode="#" horiz-adv-x="1091" d="M121 285v6q0 25 4 34t25 9h167q6 0 7 4l38 276q0 10 -14 11h-194q-18 0 -25.5 7t-7.5 43t33 36h208q18 0 19 14q29 205 40 294t17 98t44 9t38 -24l-53 -381q0 -10 12 -10h201q16 0 18 14q53 385 59.5 393t42.5 8t36 -20l-52 -385q0 -10 11 -10h141q37 0 37 -43t-31 -43 h-166q-6 0 -10 -13q-37 -264 -37 -271t14 -7h195q23 0 29 -11.5t6 -29.5q0 -45 -35 -45h-201q-18 0 -22 -21q-10 -72 -26.5 -193.5t-25 -145t-45 -23.5t-36.5 26l47 345q0 12 -15 12h-135q-72 0 -77 -5t-7 -12q-45 -340 -52 -353t-44 -13t-37 26l47 342q0 14 -16 15h-143 q-29 0 -29 37zM412 340q0 -6 16 -6h195q18 0 20 14q8 70 18.5 134.5t14.5 86.5q4 35 4 45.5t-12 10.5h-201q-14 0 -18 -15q-37 -264 -37 -270z" />
<glyph unicode="$" horiz-adv-x="1091" d="M131 179.5q0 29.5 4 58.5q10 102 43 102q20 0 31.5 -13.5t33 -59.5t31.5 -66q33 -59 100.5 -102.5t125.5 -43.5q20 0 20 31l6 578q0 29 -97 59.5t-174 106t-77 221t100.5 248t237.5 120.5q14 2 20.5 10.5t6.5 36.5l-2 56q0 47 45 47q31 0 38 -8.5t7 -30.5v-43l-2 -47 q0 -18 10 -19q172 -20 258 -118q39 -41 39 -66t-21.5 -75t-40 -50t-26.5 23q-35 76 -94.5 138t-114.5 62q-18 0 -18 -39q0 -172 -5.5 -266t-5.5 -131t4 -47t23 -14q184 -51 273 -149.5t89 -262.5q0 -102 -33.5 -184t-91.5 -131q-111 -94 -247 -129q-25 -6 -27 -14.5 t-2 -20.5v-168q0 -55 -9 -70.5t-36 -15.5q-43 0 -43 43l6 201q0 39 -12 38q-96 0 -200.5 46.5t-149.5 101.5q-23 27 -23 56.5zM299 1104q0 -172 215 -227h4q18 0 19 34l2 402q0 25 -23 24q-55 0 -136 -62t-81 -171zM600 82q0 -27 12.5 -27t35 4t64.5 24.5t76.5 52.5 t61.5 95.5t27 137t-26 125t-61.5 80t-74.5 49.5q-68 33 -92 32q-14 0 -15 -28z" />
<glyph unicode="%" horiz-adv-x="1579" d="M121 705q0 166 117.5 321.5t289.5 155.5q66 0 116 -36t95 -71t90 -35t92.5 17.5t85 38t87.5 59.5q59 47 135 115l39 37q16 16 35.5 16t19.5 -17.5t-16 -43.5q-594 -887 -891 -1358q-53 -82 -64.5 -86t-28 -4t-38 16t-21.5 36.5t37 74t45 65.5l338 486q109 158 217 307 q197 266 197 274t-5.5 8t-43.5 -22q-113 -68 -209 -68q-37 0 -68 10.5t-33 10.5t0 -15.5t2 -78.5q0 -152 -107.5 -309.5t-287.5 -157.5q-72 0 -148.5 66.5t-76.5 187.5zM268 762q0 -129 33 -192.5t90 -63.5q98 0 157.5 135t59.5 293q0 82 -26.5 135t-69.5 53 q-115 0 -179.5 -115.5t-64.5 -244.5zM791 131q0 174 112.5 321.5t292.5 147.5q111 0 166 -69.5t55 -182.5q0 -178 -112.5 -343t-266.5 -165q-121 0 -184 83t-63 208zM936 167q0 -130 32.5 -195.5t90.5 -65.5q92 0 157.5 139t65.5 293q0 82 -29.5 140.5t-72.5 58.5 q-115 0 -179.5 -120t-64.5 -250z" />
<glyph unicode="&#x26;" horiz-adv-x="1939" d="M121 496q0 70 23.5 144.5t65.5 126.5t104.5 85t100.5 41t38 13t-25 35t-49.5 90.5t-24.5 137.5q0 135 119 204t266 69q72 0 135.5 -23.5t71.5 -23.5l45 6q33 0 33 -47l8 -140q0 -59 -3 -71.5t-17.5 -12.5t-45 37t-65.5 81t-93 81t-137 37t-126 -50t-47 -104.5t56 -135.5 t114.5 -142.5t188.5 -191.5t273.5 -252.5t159 -122.5t27.5 18q29 39 29 134t-21.5 141.5t-38 57.5t-44.5 24.5t-49.5 15.5t-31.5 7t-10 20.5t9 19.5t42 4l305 -4q39 0 39 -27q0 -23 -39 -33q-14 -4 -27.5 -24.5t-15.5 -51t-6 -61.5q-12 -129 -33.5 -182t-37 -84t-15.5 -37 q0 -18 122 -95t247 -138q41 -20 88 -21l74 6q27 0 26 -18q0 -33 -58.5 -55.5t-139 -22.5t-154.5 21.5t-125 51t-90 60.5t-62.5 52.5t-29.5 21.5t-29.5 -21.5t-62.5 -53.5t-95 -64q-131 -74 -350 -74q-145 0 -262 42t-185.5 97.5t-116.5 160t-48 241.5zM256 553 q0 -137 137 -291q66 -74 184.5 -122t236.5 -48t203 30t128 59.5t43 41.5q0 8 -53.5 48t-176 144.5t-200.5 182.5l-166 166q-59 59 -68.5 69.5t-15.5 14.5l-12 8q-6 6 -17 6q-68 0 -145.5 -86t-77.5 -223z" />
<glyph unicode="'" horiz-adv-x="540" d="M115 1323q0 18 55 74q4 4 23 24q29 39 59 39q18 0 47 -25.5t47 -50.5q43 -57 43 -148t-28.5 -165t-67.5 -113q-80 -84 -125 -84q-10 0 -18.5 9.5t-8.5 18.5t17.5 24.5t40 33t40 56.5t17.5 93t-22.5 92t-48 52.5t-48 33t-22.5 36.5z" />
<glyph unicode="(" horiz-adv-x="667" d="M150 580q0 172 43 342t104 284.5t128 202.5t115 130t64 42q43 0 43 -43q0 -12 -42 -53t-101.5 -113t-118.5 -172t-101 -267t-42 -357.5t41 -351.5t99 -264t117.5 -180t100.5 -122t41 -60.5t-14.5 -25.5t-31.5 -10t-67.5 49t-115 143t-124 213t-99 280t-39.5 333z" />
<glyph unicode=")" horiz-adv-x="667" d="M20 -393q0 12 42 53t101.5 111.5t119 171t101.5 267.5t42 357.5t-41 351t-99.5 264t-117.5 180.5t-100 122t-41 60.5t14 25.5t31.5 10t67.5 -49t114.5 -143.5t124 -213t99.5 -279.5t40 -333t-43 -342t-104.5 -284.5t-128 -202.5t-114.5 -130t-65 -42q-43 0 -43 45z" />
<glyph unicode="*" horiz-adv-x="882" d="M121 784q0 27 110.5 76t110.5 56.5t-110.5 58.5t-110.5 76q0 18 19.5 44.5t42 26.5t102.5 -54t89 -54t9 39l-6 161q0 27 10 35t51 8t54.5 -12t13.5 -61l-8 -133q0 -37 10 -37t93 55t101.5 55t40 -25.5t21.5 -48t-111.5 -73.5t-111.5 -60.5t111.5 -58.5t111.5 -71.5 t-20.5 -48t-44 -25.5t-103.5 54t-88 54t-8 -39l6 -118q0 -59 -11.5 -72.5t-64.5 -13.5t-53 49l6 147q0 47 -9 47t-92 -54t-102.5 -54t-39 26.5t-19.5 44.5z" />
<glyph unicode="+" d="M63 431.5q0 19.5 3 27.5q2 16 34 16h349q45 0 45 39v360q0 27 18 31h25h26q23 -4 23 -41v-334q0 -55 35 -55h362q29 0 33 -16v-32q0 -24 -6 -33t-37 -9h-352q-25 0 -30 -7t-5 -30v-358q0 -23 -10.5 -29t-37 -6t-35.5 5t-9 32v356q0 25 -9.5 31t-40.5 6h-346q-31 0 -32 21 q-3 6 -3 25.5z" />
<glyph unicode="," horiz-adv-x="512" d="M111 108.5q0 12.5 6 22.5t13 17.5t21.5 20.5t21.5 20.5t17.5 21.5t18.5 22q23 23 42 23t50 -24.5t65.5 -88t34.5 -143.5q0 -129 -91 -234.5t-146 -105.5q-31 0 -31 27q0 20 64 71q25 18 44 56.5t19 83.5t-18.5 76.5t-33.5 45t-52 40t-41 31.5t-4 17.5z" />
<glyph unicode="-" horiz-adv-x="696" d="M90 297v22q0 59 19.5 76t112.5 44.5t177 57t114 41t48 11.5q45 0 45 -70v-12q0 -47 -20 -64q-18 -12 -47 -20q-121 -33 -211 -65.5t-115 -43.5q-61 -20 -92 -20t-31 43z" />
<glyph unicode="." horiz-adv-x="516" d="M111 112.5q0 24.5 63 80.5q8 8 23.5 28.5t31 31.5t31.5 11t84 -80q6 -6 25 -20q37 -35 37 -48.5t-10.5 -24.5t-30.5 -28l-31 -24q-8 -8 -23 -29q-33 -43 -53 -43t-49 36t-35 40q-63 45 -63 69.5z" />
<glyph unicode="/" horiz-adv-x="851" d="M41 -348q0 4 39 117q625 1686 631 1704t17 25t47 7t36 -24q0 -16 -29 -90l-622 -1702q-16 -45 -27.5 -54.5t-51.5 -9.5t-40 27z" />
<glyph unicode="0" horiz-adv-x="1083" d="M80 442.5q0 198.5 137 315t325.5 116.5t325 -115.5t136.5 -336.5q0 -184 -119 -318.5t-340 -134.5t-343 137.5t-122 336zM195 425q0 -167 108.5 -256t249.5 -89t241.5 98t100.5 255t-109.5 247t-252 90t-240.5 -89t-98 -256z" />
<glyph unicode="1" horiz-adv-x="696" d="M41 25q0 33 92 38q35 2 66.5 19.5t38.5 52.5q18 111 18 211v164l2 104q0 127 -27.5 156t-136.5 35q-37 0 -37 31q0 23 43 22q4 0 59.5 -6t158 -6t161 5t77.5 5t31.5 -10t12.5 -21.5t-7 -18.5t-15.5 -9t-23.5 -3t-23.5 -3.5t-33 -5.5t-31.5 -5t-22.5 -13t-19.5 -30 q-14 -70 -14 -141l-7 -338v-47q0 -53 9 -86q12 -37 72.5 -52.5t115.5 -23.5t55 -28.5t-12 -24.5t-45 -4l-262 10l-238 -10q-57 0 -57 33z" />
<glyph unicode="2" horiz-adv-x="958" d="M59 16q0 12 11.5 20.5t46.5 23t65 32.5q229 137 336 272.5t107 233.5t-69 151.5t-136 53.5q-121 0 -121 -94q0 -23 16.5 -66t16.5 -55q0 -20 -39 -20.5t-85 23t-46 49.5t16.5 60.5t51 74.5t108.5 66.5t183.5 26.5t186 -57t76.5 -154.5t-80.5 -202t-194.5 -197.5 t-114 -109.5t149.5 -16.5t235.5 27q33 10 69 56t44 46q25 0 25 -22q0 -6 -51.5 -103.5t-57.5 -105.5q-31 -35 -43 -37l-371 6l-280 -2q-56 0 -56 20z" />
<glyph unicode="3" horiz-adv-x="827" d="M80 -279q0 66 37 66q8 0 30.5 -26.5t69.5 -52t115 -25.5q121 0 202.5 99t81.5 203.5t-83.5 170t-219.5 65.5q-45 0 -68.5 -5t-25.5 -5q-27 0 -26 22q0 16 13 23.5t27 13.5q35 16 107 68q172 121 172 268q0 63 -56.5 113.5t-127 50.5t-112.5 -32.5t-54 -32.5q-23 0 -23 20 q0 35 82 89t179.5 54t178 -44t80.5 -146q0 -59 -35.5 -119.5t-77.5 -99.5t-78 -70t-36 -39q0 -2 23 -6q78 -10 131 -37q147 -74 147 -232.5t-145.5 -325.5t-325.5 -167t-180 74v41z" />
<glyph unicode="4" horiz-adv-x="1032" d="M20 31.5q0 17.5 17.5 40t187.5 207t302 334t145.5 165t23 26.5t21.5 23q31 27 43 27q23 0 22 -49l-26 -639q0 -29 43 -29t73.5 7.5t38.5 15.5q20 25 35 24q27 0 27 -26q0 -23 -15.5 -57.5t-18.5 -42t-7 -18.5t-7 -18.5t-7 -15.5q-12 -16 -27 -16l-113 2q-18 0 -23 -8.5 t-5 -30.5l6 -217l2 -53q0 -39 -33 -50q-53 -14 -91 -14t-38 29q0 8 3 19t5 30q8 78 8 270q0 33 -18 33l-305 -4l-211 2q-41 0 -49.5 8t-8.5 25.5zM211 156q0 -25 78 -25h76l161 -2q55 0 73.5 3t18.5 18q6 291 6.5 373.5t-10 82.5t-68 -60.5t-87 -97t-99.5 -112.5 q-149 -164 -149 -180z" />
<glyph unicode="5" horiz-adv-x="700" d="M-96 -260q0 57 24 57q16 0 43 -30q86 -98 199 -98.5t196 130.5t83 289q0 96 -26 154.5t-88.5 102.5t-110.5 60.5t-77 20.5q-68 6 -67 43q0 20 8 39q49 102 105 289q14 49 63 49l152 -4h56q26 0 42 1t25.5 2t16.5 2t11 4t6 4t6 7t9.5 11.5t14.5 17.5t15 18q12 16 23 17 q27 0 26 -23q0 -10 -12 -35.5t-26.5 -59.5t-20.5 -50.5t-11 -29.5t-11 -15q-10 -8 -31 -8q-326 -2 -332 -21q-31 -72 -31 -92.5t49 -34.5q180 -49 261 -135q27 -29 57.5 -97.5t30.5 -152.5q0 -174 -95 -332q-154 -260 -438 -260q-55 0 -117 35q-12 8 -20 56.5t-8 68.5z" />
<glyph unicode="6" horiz-adv-x="1017" d="M90 522q0 233 132 444.5t319 340.5q76 53 165 83.5t127.5 30.5t38.5 -26.5t-20 -28.5q-90 -12 -153.5 -45t-151.5 -107.5t-154.5 -187.5t-89 -178.5t-22.5 -76.5t4 -11t33.5 27.5t88 55t134.5 27.5q178 0 282.5 -120.5t104.5 -319.5t-109.5 -335t-286 -136t-321.5 150 q-121 126 -121 413zM256 502.5q0 -107.5 29.5 -212t76.5 -159.5q90 -106 185.5 -106t171.5 84t76 237q0 119 -76 266q-37 72 -106.5 121t-148.5 49t-167 -63q-14 -12 -19.5 -18.5t-13.5 -48.5t-8 -149.5z" />
<glyph unicode="7" horiz-adv-x="1026" d="M47 -358q0 31 382 526.5t382 518t-125 22.5h-160q-258 0 -325 -47q-37 -25 -45 -62q-4 -18 -25.5 -18t-21.5 22.5t17 101t17 109.5q2 29 90 29l400 -8q231 0 267 11t47 16t18 5q23 0 22.5 -20.5t-67.5 -122.5l-547 -807q-109 -160 -142 -266q-8 -29 -15 -33t-17 -4 l-107 4q-45 0 -45 23z" />
<glyph unicode="8" horiz-adv-x="1024" d="M80 349.5q0 99.5 27.5 162.5t67.5 98t80 57.5t67.5 34t27.5 15.5t-35.5 28.5t-78.5 57.5t-79 98.5t-36 142.5q0 158 105.5 260.5t274.5 102.5t265 -93t96 -241q0 -135 -67 -209q-43 -49 -84 -74.5t-41 -29.5q0 -8 43 -35t94 -62.5t94 -110.5t43 -167q0 -168 -106.5 -299 t-313.5 -131q-162 0 -252 52t-141 147.5t-51 195zM170 369q0 -154 97.5 -252.5t247 -98.5t225 91.5t75.5 211t-141.5 239.5t-208.5 120q-51 0 -107.5 -25.5t-94.5 -57.5t-65.5 -91t-27.5 -137zM240 1097.5q0 -110.5 137 -202.5t196.5 -92t136 76.5t76.5 199.5 q0 82 -74.5 173t-190 91t-198.5 -67.5t-83 -178z" />
<glyph unicode="9" horiz-adv-x="995" d="M80 390q0 175 114.5 324.5t307 149.5t303 -145.5t110.5 -350t-92 -391t-274 -311.5q-123 -86 -316 -86q-39 0 -38 35q0 29 53 29q123 0 268 123q78 66 131 155.5t53 128.5q0 4 -3 4t-26.5 -19.5t-76.5 -39t-129 -19.5q-186 0 -285.5 119t-99.5 294zM223 485.5 q0 -147.5 92.5 -281.5t223.5 -134q74 0 141 45q86 55 86 241.5t-97.5 310.5t-217.5 124q-90 0 -159 -79t-69 -226.5z" />
<glyph unicode=":" horiz-adv-x="532" d="M121 107.5q0 21.5 72 85.5q6 6 24 26q33 41 62 41q8 0 19 -12t18.5 -19.5t17.5 -21.5t17 -21.5t26 -21.5q37 -35 37 -48.5t-10.5 -24.5t-30.5 -28l-31 -24q-8 -8 -23 -29q-31 -43 -49 -43t-32.5 14.5t-29.5 34t-26 27.5q-61 43 -61 64.5zM135 694.5q0 16.5 62 69.5 q8 8 21 26.5t26.5 29.5t30 11t73.5 -75q4 -6 21 -19q33 -31 32.5 -45t-6.5 -23.5t-14 -15.5l-21 -18q-25 -20 -40 -42t-27 -33t-26.5 -11t-28 13t-24.5 32.5t-18.5 27t-20.5 18.5t-19 19q-21 19 -21 35.5z" />
<glyph unicode=";" horiz-adv-x="536" d="M121 704.5q0 16.5 63 71.5q8 8 21 27q29 43 57 43q16 0 76 -78q6 -6 22 -18q35 -33 35 -47.5t-6 -23.5t-12 -15l-23 -19l-21 -18q-7 -6 -21.5 -25.5t-28 -31t-27.5 -11.5t-27.5 13.5t-26 34t-19.5 27.5t-20 18.5t-22 19.5q-20 16 -20 32.5zM126 113.5q-1 9.5 7 20.5 t29.5 30.5t28 26t20.5 26.5q27 39 63 39q14 0 45 -29.5t50 -58.5q49 -72 49 -184.5t-94.5 -220t-149.5 -107.5q-6 0 -15 9t-9 22.5t30 38.5q94 80 94 176q0 53 -26.5 87t-85.5 79q-35 36 -36 45.5z" />
<glyph unicode="&#x3c;" d="M84 427q0 17 2 24q2 10 29 22q694 252 766.5 279.5t76.5 27.5q39 0 39 -51q0 -25 -32 -33l-625 -227q-86 -31 -86 -43q0 -6 86 -37l635 -229q23 -8 22.5 -25.5t-12.5 -34t-37 -16.5q-6 0 -835 301q-20 8 -24.5 16.5t-4.5 25.5z" />
<glyph unicode="=" d="M63 230.5q0 19.5 3 27.5q2 18 34 18h883q29 0 33 -18v-31q0 -25 -6 -34t-37 -9h-875q-31 0 -32 21q-3 6 -3 25.5zM63 632.5q0 19.5 3 27.5q2 16 34 16h883q29 0 33 -16v-32q0 -24 -6 -33t-37 -9h-875q-31 0 -32 21q-3 6 -3 25.5z" />
<glyph unicode="&#x3e;" d="M84 135.5q0 18.5 20 24.5l637 229q86 31 86 37q0 12 -86 43l-626 227q-31 8 -31 33q0 51 37 51q6 0 210 -75.5t634 -231.5q33 -12 32.5 -37.5t-5.5 -34t-25 -16.5q-829 -301 -836 -301q-25 0 -36 16.5t-11 35z" />
<glyph unicode="?" horiz-adv-x="716" d="M154 1253q0 35 65.5 80t161.5 45t178 -61.5t82 -171.5q0 -68 -45 -154t-98.5 -155.5t-98.5 -159.5t-45 -162l11 -94q0 -20 -17 -21q-31 0 -48 57.5t-17 118t94 273.5t94 283.5t-65.5 112.5t-111.5 42t-83 -25.5t-39 -25.5q-18 0 -18 18zM199 122.5q0 18.5 73 82.5 q8 6 25 24q33 41 49 41q23 0 64 -51l14 -20l20 -17q49 -39 49.5 -55t-11 -28.5t-32 -26t-27.5 -20.5t-22.5 -27.5t-28 -31.5t-24.5 -11t-37.5 22.5t-38 36.5t-43 38.5t-30.5 43z" />
<glyph unicode="@" horiz-adv-x="1681" d="M90 586q0 197 66.5 352.5t164 244.5t220.5 148q205 96 407 96q285 0 464 -181t179 -443q0 -223 -140 -381t-327 -158q-66 0 -104.5 25.5t-46.5 56.5t-12.5 56.5t-8.5 25.5t-31.5 -31.5t-64.5 -68.5t-97.5 -69t-140 -32t-127 54.5t-47.5 158t64.5 236.5t177.5 228t232 95 q39 0 91 -9t56 -9q14 0 38.5 41t47.5 41q16 0 16 -23.5t-24 -121.5q-76 -307 -76 -414v-27q0 -121 84 -121q156 0 256 118t100 354.5t-159.5 379t-397.5 142.5q-309 0 -523 -206t-214 -536q0 -291 181 -477t472 -186q129 0 233.5 33.5t158 66.5t55.5 33q23 0 22 -25 q0 -29 -90 -82q-182 -102 -416 -102q-328 0 -533.5 190.5t-205.5 526.5zM582 465q0 -61 35.5 -92t92 -31t112 35t78 68.5t75.5 236.5t53 213t-45 24.5t-82 14.5q-100 0 -209.5 -132t-109.5 -337z" />
<glyph unicode="A" horiz-adv-x="1662" d="M41 16q0 29 31 39q66 25 115 110t246.5 514t350.5 757q14 31 25.5 39t33 8t28 -8.5t22.5 -55.5t25.5 -71.5t30 -80t65.5 -166t205.5 -484t185.5 -424t68 -86t74.5 -38.5t53 -10.5t21.5 -31.5q0 -31 -55 -31l-185 12l-190 -8q-63 0 -80.5 5t-17.5 21.5t16 25.5t34.5 12.5 t35 18.5t16.5 51t-51 175.5t-86 204.5q-18 35 -84 35l-248 -4h-109q-92 0 -115.5 -10.5t-38.5 -43t-44 -91t-39 -81t-25 -57.5q-27 -61 -26.5 -102t24 -65.5t52.5 -28.5q76 -6 75 -39q0 -14 -6 -21.5t-29 -7.5l-170 2l-176 -8q-59 -1 -59 24zM555 690.5q0 -24.5 18.5 -31 t85.5 -6.5h64l195 2q80 0 79.5 30t-100.5 256t-127 226q-18 0 -116.5 -226t-98.5 -250.5z" />
<glyph unicode="B" horiz-adv-x="1290" d="M41 1421q0 31 18 31l82 -2l299 2l226 6q186 0 311 -89t125 -253q0 -176 -184 -289q-20 -14 -21 -16q0 -6 35 -15.5t84 -31t97 -58t83 -109.5t35 -166t-51.5 -193.5t-131 -155.5t-157.5 -76.5t-174 -21.5t-231.5 11t-149.5 11l-176 -8h-29q-43 0 -43 29.5t23 29.5l47 2 q43 0 71 72q18 47 22.5 149.5t4.5 608.5v348q0 33 -20 74q-41 86 -160 86q-35 -1 -35 24zM412 188q0 -123 200 -122h47q111 0 192 13t143.5 97t62.5 192.5t-37 181.5t-84 109.5t-113 57.5q-90 29 -168 28l-159 3l-31 2q-18 0 -26.5 -5.5t-16.5 -39.5q-8 -43 -8 -287v-139z M424 1116q0 -258 14 -287q8 -14 117 -14h131q129 0 193.5 67.5t64.5 178t-107.5 218t-306.5 107.5q-63 0 -84.5 -37.5t-21.5 -172.5v-60z" />
<glyph unicode="C" horiz-adv-x="1652" d="M90 665.5q0 221.5 86 399.5t265.5 287.5t424.5 109.5q125 0 252 -36.5t203 -73.5l76 -39q6 0 20.5 10t23.5 10t19 -8t11.5 -46t8.5 -104.5t13 -109.5t6 -51q0 -37 -24 -37q-18 0 -35 29q-199 373 -574 372q-256 0 -419.5 -163.5t-163.5 -428.5q0 -295 151 -503 q78 -106 213 -168t316 -62q295 0 495 307q8 14 31 15q18 0 18 -25.5t-7 -63.5t-17 -84t-13 -57q-4 -23 -32 -36q-111 -53 -172 -80q-164 -70 -349.5 -70t-329 43t-234.5 112.5t-152 164.5q-111 165 -111 386.5z" />
<glyph unicode="D" horiz-adv-x="1622" d="M41 1432.5q0 19.5 17.5 22.5t86.5 3h179l399 8q297 0 543 -168q119 -80 192.5 -210t73.5 -281.5t-19.5 -257t-64.5 -182t-90 -124.5t-114.5 -105.5t-186.5 -100.5t-240 -43l-491 10q-72 0 -133.5 -5t-71.5 -5q-49 0 -49 26q0 16 7 23.5t30.5 13.5t33.5 11q33 14 60.5 54 t27.5 79l2 555l-2 520q0 35 -33.5 70.5t-68.5 37.5t-48 4.5t-26.5 13.5t-13.5 30.5zM403 289q0 -96 21 -137q10 -18 39 -26.5t65.5 -19t85 -23.5t125.5 -13h41q139 0 237.5 40t188.5 126q152 145 152 471q0 164 -64.5 297t-169.5 213q-215 162 -469 161h-82q-98 0 -131 -35 q-16 -16 -19 -28t-8 -48t-5 -63v-86l-4 -393z" />
<glyph unicode="E" horiz-adv-x="1236" d="M41 1432q0 29 57 28l56 -4l499 -10l410 8q39 0 39 -47q0 -12 -12.5 -81t-12.5 -107q0 -66 -31.5 -66t-31.5 49t-35 94t-86 47q-184 14 -283 15h-53q-106 0 -123 -15q-31 -27 -31 -452q0 -102 39 -105h201q123 0 164 9q106 20 121 106q6 35 26.5 35t24.5 -6t4 -27 l-16 -215l6 -125q0 -51 -15 -51q-31 0 -45 49q-29 86 -51 101q-43 29 -149 28h-148l-65 2h-15q-84 0 -84 -39l-4 -295v-82q0 -147 50.5 -162.5t87.5 -15.5q307 0 444 49q121 45 147 95q25 51 45 51q25 0 25 -35q0 -88 -88 -178t-154 -90q-147 0 -332.5 10t-230.5 10 l-278 -18q-43 0 -43 20v25q0 12 20 16q23 2 70 24.5t62.5 94.5t15.5 301v254l6 354q0 55 -4 187q-2 59 -51.5 92t-114.5 35q-33 0 -33 37z" />
<glyph unicode="F" horiz-adv-x="1134" d="M41 1427q0 14 16.5 24.5t36.5 10.5h56q49 0 158.5 -6t285.5 -6l465 10q35 0 35 -49q0 -27 -12.5 -96.5t-16.5 -111.5t-31.5 -42t-27.5 41q0 135 -95 141q-309 25 -384.5 25t-97 -22.5t-23.5 -92.5v-16q-6 -111 -7 -342q0 -100 37 -102l51 -2l88 2h64q123 0 163 7 t65.5 24.5t35.5 33.5t14.5 39t10.5 33t24.5 10t22.5 -6t4 -23.5t-9 -75t-9 -98.5l14 -168q0 -33 -7 -42t-22 -9q-35 0 -43 51q0 45 -10 64q-20 29 -42 38t-95.5 17t-96.5 8h-178q-84 0 -84 -39l-4 -295l-2 -81q0 -41 8.5 -82t48 -86t104 -45t64.5 -37q0 -18 -19 -28.5 t-44 -10.5l-199 16l-248 -12q-41 0 -40 22q0 27 9 33t79 31q53 18 65 111q14 104 14 538l7 356v119q0 135 -97 180q-29 12 -65.5 12t-36.5 29z" />
<glyph unicode="G" horiz-adv-x="1675" d="M90 674q0 223 89 401t273.5 288t438.5 110q244 0 422 -93q41 -23 62.5 -38t26.5 -15t26.5 15.5t29.5 15.5q31 0 32 -50.5t8 -116t13.5 -108.5t6.5 -51q0 -35 -25 -35t-35 25q-72 156 -239.5 263.5t-346.5 107.5q-256 0 -422.5 -161t-166.5 -446q0 -188 69.5 -354 t212 -274.5t313.5 -108.5t299 72t142 164q6 49 6 258q0 80 -29.5 109.5t-93 36.5t-71 20.5t-7.5 25.5q0 23 37 23l228 -10l163 2h31q33 0 33 -19q0 -14 -52.5 -36.5t-58.5 -57.5q-14 -88 -14 -189.5t2 -148.5t3 -66.5t3 -34t2 -22.5t-15.5 -13t-50 -14.5t-63.5 -27 t-43 -25.5t-37.5 -20.5t-48 -24.5t-55.5 -25.5t-63.5 -23.5t-67.5 -18q-78 -18 -148 -19q-223 0 -388 60.5t-255 162.5q-176 203 -176 486z" />
<glyph unicode="H" horiz-adv-x="1619" d="M41 1432q0 23 57 22l232 -8l180 4q45 0 45 -29q0 -35 -72 -35q-41 0 -59 -83.5t-18 -172.5v-75l-5 -189q0 -51 12.5 -65.5t57.5 -14.5l336 2l387 -4q23 0 23 285v111q0 154 -62 188q-25 14 -50.5 18.5t-43 11.5t-17.5 27.5t80 20.5l199 -4l160 4q47 0 47 -26.5t-29 -26.5 q-57 0 -87 -35t-30 -92l-10 -805v-76l8 -188q0 -133 172 -152q25 0 25 -22q0 -14 -20.5 -18.5t-79.5 -4.5l-158 10l-193 -10h-34q-29 0 -34 8t-5 19.5t20.5 21.5t45 16.5t46.5 24.5q43 31 43 193l7 362q0 31 -25 43t-80 12t-166 -4l-110 -2l-377 6q-31 0 -41 -12t-10 -63 l-9 -252v-88q0 -88 16.5 -131t80.5 -84q16 -10 59 -11q68 0 68 -22q0 -37 -66 -37l-170 8l-221 -10q-96 0 -96 31q0 29 63 37q25 2 51.5 25.5t34.5 63.5t18.5 216t10.5 336v116l2 221q0 156 -12 244q-6 51 -54.5 80t-84.5 29t-47 13.5t-11 21.5z" />
<glyph unicode="I" horiz-adv-x="671" d="M41 1424.5q0 29.5 57 29.5l232 -8l180 4q55 0 55 -29q0 -16 -94 -55q-66 -27 -65 -236l-7 -757q0 -172 48.5 -242t101.5 -70l41 -2q14 0 28.5 -7t14.5 -23q0 -29 -51 -29l-195 8l-225 -10q-92 0 -92 31q0 29 63 37q25 2 51.5 25.5t33.5 53t16.5 247.5t9.5 315v116l2 221 v95q0 90 -7.5 144t-55.5 81t-95 29t-47 31.5z" />
<glyph unicode="J" horiz-adv-x="593" d="M-92 -315q0 31 23.5 71.5t38 40.5t46 -34.5t74.5 -34.5q113 0 141 159q27 139 27 205v242l-2 53q0 41 -1 71.5t-1 65.5q-4 104 -4 398.5t-7 354.5t-55.5 84.5t-97.5 27t-49 37t59 34.5q20 0 93 -6t139 -6l166 2q57 0 57 -27q0 -18 -94 -57q-43 -16 -43 -139v-94l-2 -834 l-2 -158q0 -233 -126 -383.5t-298 -150.5q-82 0 -82 78z" />
<glyph unicode="K" horiz-adv-x="1482" d="M41 1422.5q0 27.5 57 27.5l232 -4l176 4q35 0 35 -27q0 -12 -30 -24.5t-42 -18.5q-63 -37 -63 -250l-7 -319q0 -43 16.5 -43t166 122t297 264t147.5 187q0 25 -20.5 34t-30.5 12.5t-28.5 6.5t-22.5 5q-23 4 -23 27.5t33 23.5l51 -2l123 -4l254 6q41 0 41 -27 q0 -14 -12.5 -21t-47 -17.5t-52 -17.5t-107.5 -64q-18 -12 -201.5 -167t-386.5 -325l-23 -29q0 -10 59.5 -69.5t278.5 -276.5t303 -287.5t152 -81t76 -26.5q2 -4 2 -17.5t-17.5 -17.5t-101.5 -4h-199q-33 0 -49 19.5t-33 35.5q-76 88 -116 129q-434 440 -457 459 q-23 18 -39 19q-29 0 -29 -56v-6l3 -47v-104q0 -268 34.5 -329t132.5 -61l17 -2q14 0 28.5 -7t14.5 -23q0 -29 -51 -29l-195 8l-225 -10q-74 0 -74 22v9q0 14 18 20q76 18 99.5 42t31 127.5t7.5 330.5v274l-4 221v95q0 104 -6.5 151t-52.5 74t-93 29t-47 29.5z" />
<glyph unicode="L" horiz-adv-x="1234" d="M41 1423q0 37 55 37l56 -4l178 -8l215 8q35 0 35 -20q0 -29 -25 -38t-54.5 -12.5t-57 -45.5t-31.5 -123.5t-10.5 -448.5t-6.5 -410v-82q0 -147 50.5 -162.5t86.5 -15.5q307 0 443 49q123 45 147 95q27 51 47 51q25 0 25 -35q0 -88 -88 -178t-154 -90q-147 0 -332.5 10 t-230.5 10l-256 -16q-59 0 -59 24q0 14 11 23.5t31.5 9.5t53.5 24.5t49.5 101.5t16.5 296v254l6 354q0 55 -4 187q-2 59 -51.5 92t-92.5 34t-48 8t-5 21z" />
<glyph unicode="M" horiz-adv-x="1882" d="M41 1423q0 31 37 31l108 -8l154 4q39 0 49 -29q25 -53 88.5 -191t101 -220t97 -209t96.5 -206t77 -159t61.5 -117.5t27.5 -37.5t13 7t14.5 19t12.5 24.5t14 32t14 29.5l264 545q109 221 145 309l47 103q6 16 9.5 25t5.5 14.5t4 9.5t7 18.5t11 20.5q16 16 60 16l176 -4 q35 0 34 -27q0 -20 -13 -29.5t-59 -15.5t-66.5 -51t-20.5 -246.5t12 -426t12 -281.5q0 -205 33 -261.5t137 -56.5q14 0 25.5 -10t11.5 -18q0 -33 -22 -33h-23l-209 8l-213 -10q-37 0 -37 28q0 31 56 37q20 2 43.5 25.5t33 68t9.5 122t-3 170t-7.5 179.5t-8.5 163.5t-6 125.5 l-4 50q0 88 -18 88q-6 0 -11.5 -6.5t-9.5 -10.5t-8 -13t-8 -15.5t-10.5 -17.5t-10.5 -19l-10 -23q-8 -14 -12 -24l-285 -576q-49 -100 -95 -196.5t-54.5 -109.5t-23.5 -13t-27.5 17t-37 76.5t-43.5 98.5q-375 762 -383 773t-14 11q-16 0 -16 -81l-19 -541v-92 q0 -168 68 -207q35 -20 67 -23q51 -6 51.5 -27.5t-6 -28.5t-24.5 -7l-213 8l-168 -6q-43 0 -43 33q0 27 61 28q23 2 51.5 34t41 85t27 364.5t14.5 488.5t-40 255t-173 109q-27 5 -27 30z" />
<glyph unicode="N" horiz-adv-x="1634" d="M41 1415q0 12 14.5 23.5t36.5 11.5l78 -2l100 4q18 0 43 -11t29 -20.5t22.5 -31t49 -56.5t55.5 -67q279 -362 745 -875q12 -14 30 -32.5t25 -27.5t15 -18q14 -14 23 -14q20 0 20 127v240l-4 419v15q0 188 -66 239q-25 18 -41 23.5t-47 11.5q-84 16 -84 46t39 30l195 -2 l184 4q35 0 48.5 -7t13.5 -21.5t-13 -22.5q-16 -10 -59 -25q-68 -37 -68 -231v-78l-22 -1014v-41q0 -47 -29 -47q-18 0 -33 15q-680 788 -812 936.5t-146 148.5q-20 0 -20.5 -167t-8.5 -391t-8 -245q0 -92 32 -140t68.5 -54.5t68.5 -13.5t32 -28.5t-7.5 -27.5t-25.5 -6 l-219 4l-174 -4q-45 0 -45 33q0 18 26.5 23t65.5 31.5t55.5 87t34.5 394.5t18 485.5t-49 238.5t-159 99q-27 2 -27 31z" />
<glyph unicode="O" horiz-adv-x="1746" d="M90 694q0 344 207 564.5t586 220.5q176 0 317 -51.5t223 -126t138 -171.5q96 -168 96 -327q0 -279 -109 -471q-207 -365 -694 -365q-244 0 -421 106.5t-260 268.5t-83 352zM270 799q0 -182 97 -373q51 -102 123.5 -183t184 -133.5t245.5 -52.5q152 0 299 88 q164 96 231 269q39 92 39 200q0 371 -194.5 577t-481.5 206q-225 0 -384 -151.5t-159 -446.5z" />
<glyph unicode="P" horiz-adv-x="1155" d="M41 1421q0 33 47 33l76 2l123 -6l338 6q193 0 332 -97t139 -280q0 -100 -37 -179t-89 -124t-118 -76q-104 -47 -186 -47t-149.5 15.5t-67.5 31.5q0 31 26 31q10 0 42 -8t71 -8t92 13t110.5 43t94.5 90.5t37 139.5q0 137 -111 255t-305 118q-63 0 -86 -38t-23 -171 l-4 -846q0 -238 139 -253q35 -4 58 -5q5 0 9 1q48 0 48 -42q0 -35 -47 -34l-293 10l-190 -8q-63 0 -64 22q0 35 23 43q10 4 14 6t19.5 5.5t20.5 5.5t13.5 3t11.5 2t10 6t11 14t11.5 24.5t18.5 47.5t19 300t8 416l-2 348q0 55 -34.5 109.5t-114.5 54.5q-41 -1 -41 26z" />
<glyph unicode="Q" horiz-adv-x="1718" d="M92 697q0 347 193.5 564.5t599.5 217.5q170 0 306 -55.5t215 -136.5t132 -185q90 -174 90 -335t-49 -307.5t-152.5 -264t-243 -156.5t-139.5 -45q0 -23 39 -39q27 -12 137.5 -61.5t138 -59.5t75 -28.5t79 -27.5t70.5 -20q70 -18 129.5 -18t94 17.5t54 33.5t34 16t21.5 -9 t7 -15q0 -72 -110.5 -126t-242.5 -54t-366.5 104.5t-440.5 208.5t-267 104q-94 0 -139.5 -65.5t-45.5 -151.5v-36q0 -53 -37 -54q-20 0 -34.5 27t-14.5 59q0 90 41 170t88 114t47 38q0 8 -45 39q-264 190 -264 537zM279 807q0 -287 151 -496q80 -113 228.5 -183.5 t275.5 -70.5t278 78q86 45 171 177t85 302q0 330 -190.5 556.5t-462.5 226.5q-225 0 -380.5 -151.5t-155.5 -438.5z" />
<glyph unicode="R" horiz-adv-x="1470" d="M41 1425q0 33 59 33h340l205 6q184 0 315.5 -93t131.5 -251q0 -104 -40 -183t-88.5 -114t-88 -60.5t-39.5 -33.5q0 -25 172 -265.5t235 -307.5q78 -96 189 -97q29 0 28 -24q0 -31 -24.5 -41t-124 -10t-178.5 47q-111 63 -367 491q-98 160 -152 160h-168 q-25 0 -29.5 -20.5t-4.5 -120.5v-166l2 -109v-18q0 -84 39 -130t87 -53.5t87 -16.5t39 -30q0 -33 -37 -32l-293 14l-225 -8q-43 0 -43 33q0 35 86 45q33 4 59.5 45t26.5 116l2 646l-2 346q0 76 -31 115.5t-69 45t-68.5 13.5t-30.5 28zM412 1098q0 -211 2 -261.5t14 -58.5 q31 -18 88 -18h80q174 0 249 80t75 205.5t-99.5 230t-300.5 104.5q-76 0 -92 -40t-16 -185v-57z" />
<glyph unicode="S" horiz-adv-x="1220" d="M121 390q0 36 27.5 36t33.5 -20q76 -182 178 -259q111 -84 267.5 -84t250 81t93.5 212q0 96 -63.5 161t-145.5 93q-305 102 -414 166q-186 111 -186 297.5t132 296t343 109.5q78 0 185.5 -34t109.5 -34l47 16q27 0 31 -16q43 -248 43 -292t-29 -44q-18 0 -35.5 44t-41 81 t-34 47t-53.5 49q-111 98 -253 98.5t-228 -61t-86 -160t50 -158t134 -92t176 -61.5q248 -78 367 -203q82 -88 82 -219q0 -215 -137.5 -341t-339.5 -126q-141 0 -227.5 15.5t-176.5 62.5q-27 16 -63.5 159.5t-36.5 179.5z" />
<glyph unicode="T" horiz-adv-x="1439" d="M41 1188q0 82 10 148.5t11 76.5t2.5 13.5t2.5 10.5t3 10t5 8t7 7t10 4q12 4 39 4t167 -8t552 -8t498 12q23 0 30.5 -12t7.5 -22l13 -166q0 -51 -6.5 -64.5t-26.5 -13.5q-16 0 -27.5 42t-23.5 64q-31 53 -178 54h-267q-49 0 -60 -19.5t-11 -111.5v-101l-6 -749l-2 -134 q0 -88 27.5 -114.5t60 -39.5t55.5 -16q57 -4 57 -36q0 -23 -10 -29t-39 -6l-227 16l-209 -14q-76 0 -76 33q0 20 12.5 27t48 12.5t46.5 7.5q70 16 77 82q20 180 21 774l-2 366q0 39 -22.5 48.5t-149.5 9.5t-200 -8.5t-85 -15.5t-29.5 -29.5t-29 -52t-15.5 -48.5 q-6 -47 -39 -47q-22 0 -22 35z" />
<glyph unicode="U" horiz-adv-x="1669" d="M41 1427q0 16 12.5 21.5t34.5 5.5l231 -8l193 4q43 0 43 -29q0 -18 -14.5 -22t-36 -6t-41.5 -15q-51 -29 -51 -190v-58l-2 -442q0 -203 12 -264.5t28.5 -113.5t40 -82.5t59.5 -67.5t83 -58q111 -45 252 -45q221 0 307 49q37 20 85 64.5t75 108.5q63 152 63 385l-2 434 q0 72 -3 112.5t-20.5 90t-44 67.5t-59.5 23.5t-53.5 8.5t-20.5 17q0 33 41 33l158 -4l174 6q43 0 43 -27q0 -16 -44 -41.5t-54 -46.5q-23 -43 -23 -135l2 -137q0 -393 -32.5 -602t-100.5 -303q-137 -199 -485 -199t-492 131q-113 104 -139.5 250.5t-26.5 505.5v35l5 295 q0 113 -27 154.5t-125 56.5q-45 5 -45 38z" />
<glyph unicode="V" horiz-adv-x="1652" d="M41 1425q0 29 57 29l226 -8l133 4q47 0 57 -4t10 -17.5t-20 -23.5q-63 -33 -63.5 -66.5t7 -61.5t32 -85t50 -114.5t84 -185.5t113.5 -253q172 -395 205 -395q10 0 117.5 247.5t212 518t104.5 311.5t-23.5 58.5t-50.5 21.5q-74 8 -73 33q0 14 7 17t36 3l129 -2l182 4 q39 0 39 -29q0 -23 -45 -43q-18 -8 -43 -34.5t-43 -69.5l-457 -1040q-49 -111 -84 -196t-41 -95t-16 -10q-37 0 -91.5 137t-172 393t-181 399.5t-91.5 211t-52 120.5q-37 88 -67.5 122t-68.5 50.5t-61 16.5q-5 0 -10 -1q-47 0 -47 37z" />
<glyph unicode="W" horiz-adv-x="2273" d="M41 1425.5q0 26.5 55 26.5l226 -6l176 6q18 0 23 -5t5 -18.5t-44 -36t-44 -61.5q0 -41 62 -174q205 -459 269.5 -610.5t84.5 -198.5q41 -90 53 -90q8 0 65.5 127t84 192.5t37.5 88.5q23 43 22.5 68.5t-123.5 301.5q-135 299 -174 330q-33 25 -53 25l-23 2q-57 6 -69 11 t-12 21q0 29 59 29l225 -8l135 8q61 0 61.5 -14.5t-22.5 -26.5q-66 -35 -65.5 -77t63.5 -185q4 -8 29 -68q53 -139 68.5 -139t81 179.5t65.5 214t-31 50t-61.5 22.5t-30.5 24q0 23 45 22l131 -4h35q29 0 109 6h18q27 0 27 -20.5t-39 -32.5t-62.5 -35.5t-57.5 -106.5 t-94.5 -224.5t-70.5 -170t-10 -48t125 -298t148.5 -278.5t237.5 517t214 559t-23.5 59.5t-52.5 21.5q-76 6 -76 33q0 14 6 17t33 3l129 -2l182 4q41 0 41 -29q0 -14 -11 -22t-33.5 -20.5t-36 -25.5t-20.5 -23.5t-15.5 -26t-12.5 -25.5q-14 -27 -278 -624t-293 -656t-45 -59 q-20 0 -94 182q-20 45 -54 125t-57.5 135t-48.5 113q-49 117 -64 116q-20 0 -138 -282.5t-123 -303t-8 -28.5t-5 -14l-4 -13q-2 -6 -4 -10t-3 -8t-3 -7t-4 -5t-5 -2q-6 -4 -10 -4q-18 0 -44.5 58t-96.5 229t-165 380t-228 537q-39 98 -84 154.5t-80 70.5t-63.5 16t-45 8.5 t-16.5 33z" />
<glyph unicode="X" horiz-adv-x="1538" d="M41 1437.5q0 14.5 14.5 19.5t71.5 5l182 -8l215 4q45 0 45 -18.5t-14 -26.5t-31 -8q-47 -4 -47 -44t111 -200q166 -252 182 -268t23 -16q16 0 40.5 35.5t65.5 94t73 104.5t64 97q74 106 74 136t-17.5 45.5t-35.5 17.5q-55 6 -56 35q0 20 31 20l166 -8q115 0 150.5 4 t42.5 4q33 0 32.5 -20.5t-19 -27.5t-59 -21.5t-77.5 -40t-107 -119.5q-317 -426 -317 -430q0 -14 85 -135t173 -248q188 -274 266 -338q6 -6 41 -12q88 -16 88 -43q0 -10 -2 -15q-8 -14 -63 -14l-220 14q-102 0 -151 -6t-57 -6q-27 0 -27 25.5t52 38t52 51.5t-118 213 q-143 205 -182.5 266t-53.5 61q-4 0 -46 -67.5t-127 -181t-128 -183t-43 -110.5q0 -55 111 -56q25 0 24 -34q0 -23 -63 -23l-181 6l-163 -8q-39 0 -49.5 10t-10.5 26.5t12.5 21.5t30.5 5q51 4 87 32t59.5 50.5t49 54t46 56.5t51.5 66.5t46.5 63.5t49 70t55 77.5t64.5 86 t60.5 81t17.5 30.5t-8 19.5t-31 45t-51 70.5q-113 156 -189 264q-164 242 -278 267q-45 0 -63.5 14t-18.5 28.5z" />
<glyph unicode="Y" horiz-adv-x="1458" d="M41 1407q0 25 23.5 31t103.5 6l119 -4l174 2q102 0 102 -23.5t-43 -39t-43 -35t13.5 -52t26.5 -53t40 -59.5t63.5 -98.5t111.5 -160t86 -100.5t29.5 23.5t51.5 79t47.5 77t38 56.5t32.5 49t27.5 44t26.5 45t19 38q20 37 20 61q0 74 -94 86q-45 6 -51.5 17.5t-6.5 21.5 q0 25 58 25l84 -2l217 -2q100 0 100 -31q0 -8 -12 -14t-34.5 -16.5t-41.5 -24.5q-84 -66 -246.5 -311.5t-190.5 -280.5t-36 -84t-8 -168l2 -238v-49q0 -68 23.5 -106.5t44 -46t40.5 -7.5l41 -2q14 0 22.5 -9t8.5 -24.5t-10 -21.5t-39 -6l-205 2l-225 -8q-57 0 -57 20.5 t11 27.5t37.5 9t39.5 6q86 27 86 125l4 416q0 86 -54 168q-49 78 -128.5 194.5t-141 210t-113 143.5t-79 59t-71.5 9t-44 25z" />
<glyph unicode="Z" horiz-adv-x="1153" d="M41 29q0 12 58.5 99t106.5 173t208.5 349t275.5 456.5t115 216.5t-80 23t-383 -9q-66 -2 -114 -32.5t-67.5 -66.5t-35.5 -65.5t-27 -29.5q-27 0 -26.5 37t8.5 77.5t8 52t6 68t18.5 64.5t34 8t78.5 -2q113 -4 373 -4l369 2q88 0 88 -28.5t-376 -647t-376 -636t16.5 -27 t57.5 -13.5q66 -4 218.5 -4t244.5 11.5t141 39t66.5 46t27.5 28.5t21 10q16 0 16 -29.5t-63 -132.5q-4 -6 -10.5 -17t-10.5 -15q-14 -20 -20 -23q-18 -8 -45 -8l-375 -2l-506 -2q-41 0 -41 33z" />
<glyph unicode="[" horiz-adv-x="587" d="M160 -168l12 1335v168l-2 176q0 33 20.5 42.5t79.5 9.5h88l121 2h15q14 0 23 -13.5t9 -29.5q0 -41 -24 -41l-189 -2h-32q-16 0 -17 -17l4 -317l-10 -1114q0 -199 1 -278t26 -79l184 2q29 0 39 -9t10 -38.5t-21.5 -38t-84.5 -8.5h-185q-45 0 -56 20.5t-11 104.5v125z" />
<glyph unicode="\" horiz-adv-x="851" d="M41 1481q0 25 36 24.5t47 -7.5t19 -30l629 -1699q6 -16 16 -43q23 -59 23 -68q0 -33 -68 -33q-16 0 -25 11.5t-26 52.5l-622 1702q-29 74 -29 90z" />
<glyph unicode="]" horiz-adv-x="587" d="M59 -377q0 43 27 43h221q14 0 15 19l-3 161v156l9 1114q0 197 -1 275.5t-26 78.5h-184q-29 0 -39 8.5t-10 34.5q0 47 34 48q205 4 253 4t59.5 -20.5t11.5 -104.5v-125l-10 -1335l2 -291v-54q0 -33 -20.5 -43t-80.5 -10h-223q-14 0 -24.5 12.5t-10.5 28.5z" />
<glyph unicode="^" horiz-adv-x="681" d="M59 678q0 10 28 55t93.5 155.5t92 144.5t60.5 34t59.5 -34t90 -143.5t91 -152.5t26.5 -63q0 -16 -37 -17h-31q-23 0 -30 13l-13 18q-12 18 -18 37q-23 37 -42 77t-30.5 59.5t-17.5 31.5t-13.5 24.5t-12.5 18.5t-9 12t-7 8t-7 2t-9.5 -4t-11.5 -13t-13 -20.5t-18.5 -33 t-22.5 -42t-30 -54.5l-27 -53q-9 -17 -15.5 -28.5t-8.5 -15.5t-8 -13t-12 -13q-14 -8 -27 -9h-29q-41 1 -41 19z" />
<glyph unicode="_" horiz-adv-x="436" d="M0 -83.5q0 22.5 2 30.5q6 18 37 18h364q29 0 31 -18q2 -6 2 -29.5t-6 -34t-37 -10.5h-356q-25 0 -31 10.5t-6 33z" />
<glyph unicode="`" horiz-adv-x="899" d="M223 1303q0 27 43 40t66.5 13t46 -54.5t50.5 -111.5t45 -86t30 -49l18 -31q6 -10 6 -18q0 -23 -22.5 -23t-81.5 64q-201 211 -201 256z" />
<glyph unicode="a" horiz-adv-x="944" d="M98 174q0 147 123 203q102 43 314 78q6 2 16 3t21.5 3t17.5 4q14 6 14 29l4 106q0 117 -67.5 169t-130.5 52q-147 0 -148 -123l8 -73q0 -41 -37 -41q-29 0 -63 10q-63 20 -64 70q0 80 108 152.5t216.5 72.5t170 -20.5t91 -46t45.5 -68.5q20 -51 20.5 -161t-4.5 -195 t-5 -154.5t16 -113.5t38.5 -56.5t45.5 -14.5q55 -4 55 -32q0 -43 -129 -43q-53 0 -91 28.5t-54.5 56t-18.5 27.5t-16 -13t-40 -31.5t-58 -37.5q-76 -45 -156 -45q-242 0 -242 205zM258 198.5q0 -63.5 41 -105.5t105.5 -42t102.5 16.5t56.5 37t28.5 55.5q12 39 12 100v148 q0 18 -14 18l-21 -4q-47 -8 -59 -10t-57 -12.5t-62.5 -18.5t-49.5 -25.5t-46 -36.5q-37 -57 -37 -120.5z" />
<glyph unicode="b" horiz-adv-x="1120" d="M25 1413.5q0 20.5 20.5 34.5t65.5 29.5t53 18.5t41 20q70 33 82 32.5t22 -10.5t10 -27v-41l-2 -249v-379q0 -74 15 -74q8 0 24.5 21.5t40 47t91 47t167.5 21.5q182 0 283.5 -127t101.5 -297q0 -96 -50 -222t-136 -191q-119 -90 -285 -91q-84 0 -155.5 30t-107.5 59.5 t-38 29.5q-8 0 -39.5 -65.5t-60.5 -65.5q-25 0 -25 27l9 168q0 68 9 241.5t9 298.5v506q0 186 -92 187h-21q-32 0 -32 20.5zM317 270q0 -55 81 -137t220.5 -82t214 95.5t74.5 245t-97 276.5t-263 127q-96 0 -163 -55.5t-67 -98.5v-371z" />
<glyph unicode="c" horiz-adv-x="925" d="M80 390q0 200 132 344.5t343 144.5q72 0 155 -20.5t85 -47.5q4 -49 4 -117.5t-23 -68.5q-20 0 -37 26q-35 59 -132 103.5t-171 44.5q-41 0 -80 -31t-63 -68q-59 -86 -59.5 -243.5t101 -275.5t249.5 -118q72 0 133 27t95 53.5t42 26.5q23 0 23 -20t-43 -62.5t-84 -67.5 q-100 -63 -246 -63q-193 0 -308.5 116.5t-115.5 316.5z" />
<glyph unicode="d" horiz-adv-x="1157" d="M80 410.5q0 187.5 132 337t366 149.5q53 0 140 -29.5t95 -29.5t8 73l4 265q0 111 -11 155.5t-34.5 59t-62.5 14.5h-23q-31 0 -37 2t-6 14v2q0 14 20.5 21.5t83 27t98.5 36t54 24.5q39 20 56 20q25 0 24 -41q0 -6 -13 -174t-13 -270l-5 -748q0 -139 13.5 -186t58.5 -61 q6 -2 35 -7.5t41 -12.5t12 -23q0 -25 -158 -37q-33 -2 -75.5 -11.5t-53.5 -9.5q-23 0 -22 23l-6 76q0 35 -19 34q-6 0 -29.5 -20.5t-54 -46t-89 -46t-126.5 -20.5q-190 0 -296.5 126t-106.5 313.5zM227 491.5q0 -151.5 95.5 -282.5t244.5 -131q92 0 168 47t76 115l2 350 q0 125 -57 158q-152 90 -244 90q-133 0 -209 -97.5t-76 -249z" />
<glyph unicode="e" horiz-adv-x="954" d="M80 392q0 210 115.5 351.5t300.5 141.5q86 0 156.5 -31t109.5 -75t65 -93q45 -84 45 -127q0 -37 -84 -37h-526q-16 0 -19 -3t-3 -19q0 -193 103 -303.5t243 -110.5q86 0 175 46t93 46q20 0 20 -18q0 -25 -45 -67t-86 -68q-98 -63 -231 -64q-180 0 -306 110.5t-126 320.5z M252 600q0 -29 27 -29l360 13q29 0 36 5t7 19q0 61 -57.5 143.5t-160 82.5t-157.5 -81t-55 -153z" />
<glyph unicode="f" horiz-adv-x="706" d="M59 788q0 37 17.5 49.5t68.5 12.5h43q25 0 31 11t6 36q0 150 49.5 275.5t122.5 199.5q152 158 279 158q47 0 76.5 -15.5t29.5 -41.5q0 -8 -7 -36l-9 -36t-4 -13.5t-4 -11.5t-4 -9t-5.5 -7t-7.5 -6q-6 -4 -16 -4t-20 14q-31 39 -110 39t-123 -43t-66 -115 q-43 -139 -44 -307v-51q0 -39 25 -39q180 0 219 29q14 8 22.5 8t8.5 -21.5t-29 -72.5q-12 -18 -51 -19l-160 -2q-33 0 -32 -20v-119l10 -406q0 -109 28 -143q33 -43 101 -43q35 0 35 -31q0 -20 -23 -20l-205 10l-151 -10q-31 0 -31 28q0 10 25.5 20.5t50 38t24.5 62.5 t-2 101q-6 201 -6 497q0 23 -7 28t-28 5l-82 -6q-45 -1 -45 26z" />
<glyph unicode="g" horiz-adv-x="999" d="M80 -213q0 70 37 107.5t73.5 56t36.5 24t-10 13.5t-24 18q-33 27 -33 89.5t26.5 107.5t53 67.5t26.5 29.5t-21.5 25.5t-48 42t-48 78t-21.5 115t15.5 108.5t51 100t110.5 85t166 33t148.5 -20.5t85 -41t40 -20.5t100.5 37q29 12 43 55t31 43q27 0 26 -16 q0 -49 -14.5 -105.5t-35 -88.5t-79.5 -56q23 -61 23 -103q0 -131 -98.5 -221t-239.5 -90q-53 0 -101.5 9.5t-57.5 9.5t-25.5 -4.5t-41 -29t-24.5 -67.5q0 -70 63.5 -88t210.5 -18h94q297 0 297 -181q0 -63 -14 -96q-39 -100 -159.5 -159.5t-280.5 -59.5q-92 0 -172 17.5 t-144.5 70.5t-64.5 123zM199 -186q0 -90 75.5 -136.5t194.5 -46.5t220.5 52.5t101.5 134.5q0 74 -72 92q-55 12 -156 12h-18q-66 0 -160 15l-92 14q-20 0 -57 -41t-37 -96zM283 592q0 -121 58 -203t148.5 -82t139.5 71t49 179.5t-57.5 196.5t-144.5 88t-140 -64.5 t-53 -185.5z" />
<glyph unicode="h" horiz-adv-x="1202" d="M41 1425.5q0 18.5 21.5 29.5t61.5 21.5t113.5 43t92.5 32.5q27 0 26 -47q0 -10 -7 -49t-8 -150.5t-4 -239.5t-5 -173q-4 -86 -4 -121t16 -35q4 0 42 38t104.5 76t142.5 38q166 0 258 -98.5t92 -305.5v-297q0 -55 20.5 -85.5t47.5 -32.5q111 -10 110.5 -43t-63.5 -33 l-172 10l-158 -6q-47 0 -47 20q0 37 55 37q20 0 37.5 22.5t17.5 69.5l3 54l2 286q0 125 -76 216.5t-175.5 91.5t-201.5 -80q-37 -29 -47 -93.5t-10 -285.5v-47q0 -92 14 -150q23 -80 113 -86q29 -2 44 -7t15 -21q0 -25 -23 -25l-53 2q-53 2 -107.5 5t-58.5 3l-145 -10 q-51 0 -53 6t-2 14q0 20 24 27q59 16 76.5 52t17.5 106l9 698v101q0 279 -12.5 340t-73.5 61h-27l-8 2q-35 0 -35 18.5z" />
<glyph unicode="i" horiz-adv-x="581" d="M74 779.5q0 11.5 5 17.5t20.5 13t31.5 13q57 16 94 32.5t56.5 25t25.5 12.5q14 6 35 6q31 0 31 -39l-13 -98v-561q0 -61 19.5 -96t41 -43.5t50.5 -10.5t37 -2q29 -4 29 -29q0 -35 -35 -34l-31 2l-145 4l-146 -4q-82 0 -82 27.5t31 37.5q2 0 8 2q47 16 61.5 49t14.5 318 v180q0 59 -14.5 94t-26.5 43.5t-42 13.5t-43 10t-13 16.5zM190 1205.5q0 27.5 36 71.5t68 44t62.5 -42t30.5 -75t-39 -72.5t-57 -39.5q-41 0 -71 43t-30 70.5z" />
<glyph unicode="j" horiz-adv-x="575" d="M238 1210.5q0 28.5 31.5 66.5t65.5 38t65.5 -36t31.5 -68.5t-36 -70.5t-54 -38q-41 0 -72.5 40t-31.5 68.5zM47 -281q0 59 45 60q23 0 64 -44t55 -44q27 0 37 68.5t10 260.5v623q0 88 -53 111q-27 10 -64 10t-37 20q0 12 19 19q111 33 181.5 65.5t76.5 32.5q25 0 25 -47 v-23l-5 -96v-663q0 -113 -20.5 -213.5t-85 -184.5t-154.5 -84t-90 56z" />
<glyph unicode="k" horiz-adv-x="1116" d="M0 1411.5q0 22.5 100 52.5q14 4 34 10.5t24 7.5t15 5t12 5t10.5 5t13.5 7t16.5 10.5t40 24.5t54 17t26.5 -38q0 -4 -2 -23.5t-5 -57.5t-5 -94q-6 -162 -6 -344l-6 -419v-43q0 -86 8 -86q18 0 37.5 20.5t27.5 26.5q287 229 287 257.5t-46 47t-46 35.5q0 20 24 20l37 -2 l301 10q53 0 53.5 -16t-12 -22.5t-32.5 -8.5q-68 -10 -152 -67q-6 -4 -13.5 -10.5t-26.5 -20.5t-46 -34.5t-98.5 -75t-88 -69t-16.5 -30.5t23 -47q186 -227 319 -344q55 -49 111.5 -63.5t81 -14.5t24.5 -18q0 -25 -17.5 -30t-66.5 -5l-213 2q-51 0 -321 334q-53 66 -58.5 74 t-23 8t-39 -29t-21.5 -66l3 -34q0 -147 16 -168q2 -2 19.5 -26t86 -36t68.5 -31q0 -33 -63 -32l-199 12l-150 -8q-49 0 -49 24q0 20 51 35q47 18 59.5 53t12.5 136l2 90l2 909q0 154 -96 154l-41 -2q-41 0 -41 22.5z" />
<glyph unicode="l" horiz-adv-x="571" d="M41 1417.5q0 14.5 3 20.5t13.5 11t24.5 9q59 12 123 43q100 47 131 47q25 0 24 -39q0 -8 -4 -47q-12 -121 -12 -264v-115l-4 -272v-610q0 -43 7 -71t47 -53.5t112 -25.5q10 0 18 -10t8 -21q0 -29 -63 -28l-207 14q-53 0 -101 -8t-63.5 -8t-25 7t-9.5 18.5t9.5 18.5 t29.5 11q61 16 73.5 50t12.5 93l-2 54v151l9 871q0 47 -15.5 84.5t-34 46t-82.5 8.5q-22 0 -22 14.5z" />
<glyph unicode="m" horiz-adv-x="1693" d="M63 795q0 18 25 27t74 19.5t71.5 19.5t37 17.5t20.5 10.5q18 8 42.5 8t24.5 -59l-10 -86q0 -25 12 -25q2 0 13.5 15.5t31 37t48.5 43.5q70 51 165 51t150 -25.5t76.5 -55t36 -55t17.5 -25.5t39 42t102.5 84t140.5 42q150 0 230.5 -88t94 -214t13.5 -266v-65 q0 -92 10 -133t47 -54q2 0 18.5 -3t28.5 -5q31 -6 31 -30q0 -31 -68 -31l-135 8l-147 -8q-49 0 -49.5 21.5t42.5 38t52 34.5q8 23 8 94v33l-2 217l-6 135q0 23 -6.5 42.5t-7.5 29.5t-11 24.5t-12 18.5q-8 16 -33 41q-53 63 -154 63q-47 0 -98 -24.5t-82 -50t-31 -33.5t5 -31 q8 -68 8 -231v-174q0 -94 26.5 -138.5t114.5 -56.5q20 -2 28.5 -13.5t8.5 -19.5q0 -23 -39 -22l-150 10l-186 -10q-45 0 -45 26q0 14 8 21.5t29.5 15.5t29 12.5t17.5 35t10 61.5v39l2 82v125l-2 108l-2 21q0 109 -55 174t-147.5 65t-160 -45t-67.5 -104v-414 q0 -74 26.5 -113t59.5 -44t59.5 -11t26.5 -20q0 -18 -6 -24.5t-37 -6.5l-172 6l-162 -6q-49 0 -49 31q0 23 37 28q14 2 30.5 17.5t30 58.5t13.5 297l-2 250q0 49 -21.5 69.5t-48.5 20.5q-8 0 -14 -1q-54 1 -54 30z" />
<glyph unicode="n" horiz-adv-x="1210" d="M63 799q0 20 44.5 26t70 13.5t67.5 25t67.5 29.5t33.5 12h4q18 0 19 -24l-4 -88q0 -53 8 -53.5t16 10.5q31 43 82 73q92 57 176 57.5t149.5 -25.5t102.5 -63.5t62 -86.5q41 -82 40 -168v-21l3 -108v-209q0 -78 21.5 -108t102.5 -42q41 -6 41 -31q0 -20 -41 -20l-167 10 l-158 -8q-41 0 -41 27q0 18 24 24l27 6q45 14 45 138v276q0 158 -78 239t-176 81t-163.5 -47.5t-80 -88.5t-14.5 -313v-78q0 -102 21.5 -151.5t95.5 -55.5q20 0 52 -7t32 -23q0 -27 -39 -27l-150 8q-53 0 -141 -4l-88 -4q-31 0 -31 18.5t10.5 22.5t26 6t29.5 12 q39 25 43 149t4 163v295q0 66 -23.5 88t-64.5 22h-21q-39 0 -39 23z" />
<glyph unicode="o" horiz-adv-x="1120" d="M80 417.5q0 186.5 128 326t338 139.5t352 -121t142 -336t-146 -339t-356 -124t-334 134t-124 320.5zM242 466.5q0 -192.5 112.5 -317t242.5 -124.5t210 89t80 261t-98.5 312t-274.5 140q-106 0 -189 -84t-83 -276.5z" />
<glyph unicode="p" horiz-adv-x="1136" d="M63 787.5q0 11.5 17.5 17.5t71 22.5t123 50t75.5 33.5q27 0 27 -26l-8 -121q0 -16 4 -16t19.5 14t40 35.5t59.5 42.5q80 49 190 49q182 0 278.5 -120t96.5 -301t-120 -333.5t-321 -152.5q-94 0 -152 19t-81 38.5t-30 19.5t-7 -16v-252q0 -39 35 -96q23 -37 69 -43 t77.5 -8t31.5 -28t-70 -26q-12 0 -65 4.5t-148 4.5l-129 -7q-45 0 -57 4.5t-12 19.5t19.5 23.5t44 14.5t44 50t19.5 128v41l6 565v45q0 170 -15.5 226.5t-80.5 56.5q-35 0 -43.5 5t-8.5 16.5zM346 393l2 -102q0 -72 31 -123t80 -78q90 -47 190 -47q133 0 204 97.5t71 249 t-87 274t-235 122.5q-104 0 -186 -65q-43 -33 -56.5 -89.5t-13.5 -238.5z" />
<glyph unicode="q" horiz-adv-x="1144" d="M80 360q0 133 47 237.5t123 164.5q154 123 338 123q111 0 219 -64q16 -10 29 -18l20 -17l6 -6q8 0 41 65.5t60 65.5q18 0 18 -25.5t-6 -62.5q-12 -100 -12 -348l6 -639q0 -129 53 -164q23 -16 44 -22t36.5 -12.5t15.5 -20.5q0 -25 -37 -25l-73 2h-70q-143 0 -169 -5 t-32 -5q-49 0 -49 31q0 23 46 30t59.5 16t18.5 40t5 133l4 189q0 94 -11 94t-35.5 -25.5t-56.5 -57.5t-96.5 -57.5t-144.5 -25.5q-150 0 -248 82q-149 124 -149 327zM223 433q0 -120 60 -212q106 -162 270 -162q178 0 229 84q35 61 35 142v333q0 82 -91 144.5t-185 62.5 t-195 -73q-53 -39 -88 -119t-35 -200z" />
<glyph unicode="r" horiz-adv-x="768" d="M45 778q0 23 27.5 34t102.5 34.5t118 43t51 19.5q27 0 27 -41l-2 -55q0 -74 5 -81t10 -7t31.5 41t76 83t97.5 42t99 -34t51 -67.5t-16 -62.5q-29 -49 -53 -49q-16 0 -58.5 24.5t-97.5 24.5t-103.5 -45t-48.5 -82v-213l3 -178l2 -37q0 -43 28.5 -73.5t54 -35t44 -6.5 t28.5 -3t23 -5q23 -4 22.5 -29.5t-24.5 -25.5l-174 10l-213 -10q-37 0 -41 8t-4 16q0 27 26 35q53 12 64.5 52t11.5 171l-2 330l-2 62q0 23 -6 37q-16 39 -97 38l-22 2q-39 0 -39 33z" />
<glyph unicode="s" horiz-adv-x="804" d="M113 88v178q0 23 9 38t25.5 15t23.5 -9t13 -37.5t13 -41.5q76 -188 213 -188q63 0 120.5 34t57.5 106.5t-47 117.5t-115 70.5t-135.5 53.5t-114.5 82t-47 136q0 115 92 184.5t203 69.5t168 -17.5t68.5 -31.5t11.5 -27l8 -123q0 -35 -8 -47t-23.5 -12t-33 29.5t-39 64.5 t-69.5 64.5t-109.5 29.5t-100.5 -29.5t-39 -64.5t6 -56.5t21.5 -37.5t27 -27.5t38 -24t39.5 -17.5t44 -17q186 -66 239.5 -128.5t53.5 -179t-109 -214.5q-74 -63 -202 -64q-88 0 -197 43q-31 12 -36 13.5t-16 5.5t-16.5 5t-13.5 5t-11 7t-7 9q-6 10 -6 33z" />
<glyph unicode="t" horiz-adv-x="700" d="M55 786q0 20 19 35q78 51 155 154q33 47 52.5 68.5t40 21.5t20.5 -47l-8 -117q0 -29 11 -35t73 -6h71q92 0 113 10q37 18 45 19q20 0 21 -23q0 -16 -27 -64t-39 -48q-92 0 -129 4t-49 5t-21.5 2t-13.5 1l-4 2q-39 0 -50 -12.5t-11 -55.5l-9 -381q0 -133 34 -185t143 -52 q43 0 95 19.5t56 19.5q20 0 20.5 -26.5t-70.5 -70.5t-153 -44q-276 0 -276 239v31l8 477q0 20 -8 26.5t-35 6.5l-39 -2q-35 -1 -35 28z" />
<glyph unicode="u" horiz-adv-x="1179" d="M59 807q0 29 40 37t98 8l116 10q35 0 41 -14t6 -71.5t-5 -157t-5 -220.5q0 -180 69.5 -254.5t158.5 -74.5q131 0 190 55t59 194l-4 283q0 102 -16 138t-69.5 41t-53.5 28q0 47 180 47l74 10q31 0 40 -10t9 -29.5t-1 -49t-2 -79t-3 -110.5q-4 -123 -4 -274.5t12 -196.5 t45 -45l53 2q49 0 49.5 -24.5t-14 -31t-55.5 -6.5t-124 -11t-89 -11q-14 0 -23.5 52t-12.5 52t-40 -32.5t-105.5 -65.5t-150.5 -33q-330 0 -329 356l2 369q0 41 -21.5 65.5t-40.5 24.5h-37q-37 0 -37 29z" />
<glyph unicode="v" horiz-adv-x="1071" d="M41 852q0 23 39 22l145 -8l119 -2l80 6q37 0 37 -22q0 -35 -49 -35q-86 0 -86 -57q0 -33 32.5 -103.5t59 -127t44 -94.5t46.5 -105q55 -131 70 -131q20 0 124.5 247.5t104.5 291.5t-19.5 61.5t-44.5 15.5q-11 -1 -19 -1q-44 0 -44 34q0 27 63 26l138 -2l94 2q35 0 46 -6 t11 -20.5t-10 -20.5q-49 -29 -70 -57q-51 -70 -147 -274.5t-176 -362.5t-111 -158q-20 0 -32.5 21.5t-81 181.5t-140 319.5t-115 228.5t-65 83t-32.5 23.5t-11 23.5z" />
<glyph unicode="w" horiz-adv-x="1531" d="M41 852q0 23 39 22l145 -8l101 2q61 0 78.5 -3t17.5 -19.5t-23 -22.5q-68 -14 -67.5 -80.5t114.5 -324.5q14 -29 39 -89.5t39.5 -88t22.5 -27.5t52 83t59.5 113.5t23.5 46t18.5 35t14.5 28.5t9 21.5l7 17.5t4 14.5t2 15.5v14q0 14 -19.5 61.5t-41 79t-46 52t-36.5 24.5 q-33 12 -33 30.5t31 18.5l248 -4l63 2q45 0 45 -28q0 -14 -6 -17q-12 -4 -24 -4q-61 -4 -62 -57q0 -76 121 -342q16 -33 39 -90q45 -117 57 -117q20 0 107.5 224t87.5 277.5t-17.5 73t-38.5 21.5q-57 8 -57 41q0 16 43 16h236q39 0 49 -4t10 -22.5t-34 -31.5t-54.5 -42 t-36.5 -62.5t-37 -83.5q-61 -154 -153.5 -348t-101.5 -212.5t-23 -43.5q-20 -41 -39 -41q-35 0 -131.5 265.5t-112.5 265.5q-6 0 -131 -262t-164 -262q-16 0 -30.5 28.5t-79 196.5t-105.5 269t-58.5 151.5t-25.5 70.5q-29 57 -96 115q-8 8 -19 13l-14 7q-6 7 -6 21z" />
<glyph unicode="x" horiz-adv-x="1122" d="M59 29q0 10 6.5 14t33 13.5t58 29.5t69.5 51t77 70t63.5 64.5t62.5 68.5t46 53t8 19.5t-23.5 39t-70.5 86t-87 108.5t-87 94t-74.5 47.5t-52.5 22.5t-25 36q0 25 29 24l160 -10l166 8q33 0 43 -6t10 -19.5t-34 -25.5t-34 -35q0 -18 40 -71.5t75 -104.5q61 -88 74 -88 q6 0 20 17q143 182 149.5 196t6.5 33q0 31 -47 49t-47 31q0 25 53 24l129 -2l141 4q14 0 26.5 -8t12.5 -19.5t-11 -18.5t-30 -13q-57 -14 -133 -90q-236 -236 -235 -258q0 -6 45 -56.5t94 -110.5t68.5 -84t27.5 -33t27.5 -30.5t34 -33t34.5 -25.5q35 -29 63 -37t32 -10 q10 -6 10 -20.5t-12.5 -19.5t-57.5 -5l-121 4l-120 -4h-23q-70 0 -70 20q0 10 36 22.5t36 38t-28.5 66.5t-78 100.5t-67.5 86t-22.5 26.5t-24.5 -20q-25 -31 -59 -72l-54 -61q-45 -53 -45 -89t15.5 -50.5t33.5 -16.5q47 -2 48 -33q0 -8 -3 -12q-8 -6 -81 -6l-107 6l-108 -8 q-91 0 -91 33z" />
<glyph unicode="y" horiz-adv-x="1019" d="M41 841.5q0 26.5 41 26.5l219 -4l117 4q14 0 25.5 -7t11.5 -15q0 -37 -49 -37h-31q-33 0 -33 -51q0 -61 109 -295q16 -35 49 -111q61 -139 73.5 -139t95.5 235.5t83 280.5t-19.5 63.5t-44.5 18.5h-11q-52 0 -52 35q0 25 39 24l147 -2l127 2q43 0 43 -26q0 -20 -36 -29.5 t-48 -26.5q-33 -47 -111 -258l-182 -485q-23 -59 -45 -121.5t-37 -101.5l-28 -78q-14 -39 -22.5 -60.5t-16.5 -39.5q-16 -33 -31 -33h-6l-88 -2q-39 0 -39 26q0 6 46 63.5t93 141.5t47 148.5t-116.5 318.5t-202.5 416q-23 41 -46.5 63.5t-37.5 24.5q-33 4 -33 30.5z" />
<glyph unicode="z" horiz-adv-x="774" d="M82 30.5q0 30.5 15.5 51t28.5 40t26 36.5q375 541 374 571q0 10 -47 10l-250 -14q-59 -4 -102 -88q-14 -29 -25 -29q-16 0 -16 30t5 68.5t13.5 80.5t8.5 49q4 37 41 36l219 -6l301 6q25 0 24 -20q0 -23 -27.5 -55.5t-72.5 -102t-152.5 -222.5t-155.5 -225.5t-48 -96.5 q0 -18 100 -19l100 2q109 0 148 31q31 23 42 54.5t15 39.5q14 29 35 29q33 0 33 -29q0 -12 -28 -75.5t-35 -90t-13 -43.5q-12 -45 -37 -45h-233l-150 -2h-35q-35 0 -49 -2h-14q-39 0 -39 30.5z" />
<glyph unicode="{" horiz-adv-x="559" d="M86 549q0 31 38 52.5t38 55.5l-8 846q0 37 36 37l127 -16q41 0 82 6t67 6t26 -20q0 -49 -75 -81t-130 -32q-14 0 -15 -19l-6 -862l6 -737q0 -10 62.5 -24.5t89.5 -28.5q70 -39 70 -84q0 -18 -17 -19q-2 0 -22 6q-53 12 -121 12.5t-107 -14t-51 -14.5q-25 0 -24 25l6 770 q0 45 -36 74.5t-36 60.5z" />
<glyph unicode="|" horiz-adv-x="428" d="M160 -178l12 1345v168l-2 176q0 27 11.5 38.5t39 11.5t36.5 -11.5t9 -40.5l-2 -47l4 -317l-10 -1125q0 -199 2 -301l2 -53v-16q0 -78 -35 -78q-45 0 -56 20.5t-11 104.5v125z" />
<glyph unicode="}" horiz-adv-x="559" d="M66 -352q0 45 69 84q27 14 66 22q86 20 86 31l6 737l-6 862q0 18 -15 19q-55 0 -129.5 31.5t-74.5 81.5q0 20 25.5 20t66.5 -6t82 -6l127 16q37 0 37 -37l-9 -846q0 -35 38 -56t38 -52t-36 -60.5t-36 -74.5l7 -770q0 -25 -25 -25q-14 0 -53 14.5t-88 14.5t-83 -4 t-54.5 -9.5t-22.5 -5.5q-16 1 -16 19z" />
<glyph unicode="~" horiz-adv-x="778" d="M59 352q0 8 29 52.5t82 91.5t102.5 47t122 -46t117.5 -46t81 24.5t56.5 50t28.5 25.5q41 0 41 -31q0 -10 -31 -52t-90 -87t-117.5 -45t-125 47t-107.5 47t-74 -27.5t-50.5 -55.5t-23.5 -28q-41 0 -41 33z" />
<glyph unicode="&#xa1;" horiz-adv-x="565" d="M121 1261.5q0 14.5 13 28t36 28.5t30 22.5t21.5 28t27.5 31.5t25.5 11t40 -22.5t39 -38t29.5 -31.5q43 -39 43 -64q0 -14 -15.5 -26t-25.5 -21.5t-18.5 -16.5t-24.5 -28q-37 -49 -66 -49q-12 0 -41.5 31t-52 49t-35 26.5t-19.5 17.5t-7 23.5zM170 41q0 10 4 35.5t9 69.5 t22.5 305.5t48.5 504.5q4 23 27.5 23t23.5 -21q31 -360 35 -440q4 -133 15.5 -295t11.5 -185.5t-28 -44t-75 -20.5q-94 0 -94 68z" />
<glyph unicode="&#xa2;" horiz-adv-x="925" d="M80 391.5q0 155.5 84 284.5q94 139 266 188q18 4 24.5 4t12.5 5.5t6 11.5v100q0 20 41 20.5t41 -18.5v-94q0 -12 5 -13l10 -2q5 -1 17 -1h23q166 -14 185 -70q4 -23 4 -102.5t-23 -79.5q-18 0 -35 26q-31 51 -137 105q-29 14 -40 14t-11 -41l-4 -637q0 -14 6 -21.5 t53 -7.5t108.5 27t95.5 53.5t42 26.5q23 0 23 -20q0 -14 -30 -51.5t-104.5 -81.5t-169.5 -56q-23 -4 -24.5 -9t-1.5 -20v-118q0 -23 -39 -23t-39 19v131q0 14 -5 17t-14.5 3t-21.5 2q-27 2 -82 19q-125 43 -195.5 148.5t-70.5 261zM233 464q0 -75 21.5 -138.5t51.5 -104.5 t63 -71q61 -57 90 -58q10 0 10 31q0 260 2 647q0 20 -5 24.5t-24.5 4.5t-42 -7.5t-52.5 -31t-54.5 -59t-42 -99t-17.5 -138.5z" />
<glyph unicode="&#xa3;" horiz-adv-x="1140" d="M41 88q0 45 34 81t87 36t91 -10.5t62.5 -21.5t28.5 -11q10 8 25.5 54t15.5 89q0 98 -98 332l-6.5 13t-6.5 12q-6 14 -8 15t-7 3t-9 2h-14l-164 -2q-29 0 -29 44t27 44h118q35 0 35 3t-14 48q-49 137 -49 250q0 201 123 302.5t274.5 101.5t254.5 -61.5t103 -151.5 q0 -33 -29.5 -68t-50 -35t-31.5 19.5t-25.5 59.5t-37 75t-81 61.5t-140.5 26.5t-150.5 -58.5t-68.5 -182.5t98 -347q10 -27 17.5 -34t21.5 -7h318q31 0 37 -7t6 -31.5t-2 -31.5q-4 -18 -45 -18h-250q-45 0 -45 -5t14 -46q41 -125 41 -185.5t-4 -92t-11.5 -57.5t-15.5 -49.5 t-17 -43t-15 -31.5l-13 -25l-6 -10q127 -35 254 -35t199.5 33t103.5 71t54.5 70.5t31.5 32.5q27 0 27 -27.5t-9.5 -62.5t-34 -80t-58 -84t-91 -64.5t-127.5 -25.5q-168 0 -407 90q-2 0 -65.5 -39t-132.5 -39t-101.5 33t-32.5 78zM119 90q0 -20 19.5 -37.5t47 -17.5t56.5 14 q41 20 57 47q-6 8 -47 20.5t-76 12.5q-57 0 -57 -39z" />
<glyph unicode="&#xa4;" d="M41 92.5q0 22.5 37 59.5l139 141q-80 104 -80 241.5t78 241.5l-137 142q-37 37 -37 61.5t16.5 39.5t40 15t60.5 -37l141 -141q106 80 239.5 80t241.5 -80l142 141q35 35 60.5 35t40.5 -16.5t15 -39t-37 -58.5l-141 -144q84 -115 84 -240.5t-84 -238.5l141 -143 q37 -37 37 -61.5t-17 -40t-40 -15.5t-59 37l-142 141q-106 -80 -241.5 -80t-239.5 78l-141 -139q-35 -35 -61.5 -35t-41 16.5t-14.5 39zM254 532.5q0 -120.5 84 -203.5t200.5 -83t201.5 85t85 203.5t-85 205.5t-202.5 87t-200.5 -87t-83 -207.5z" />
<glyph unicode="&#xa5;" horiz-adv-x="1458" d="M41 1407q0 25 23.5 31t103.5 6l119 -4l174 2q102 0 102 -23.5t-43 -39t-43 -35t13.5 -52t26.5 -53t40 -59.5t61.5 -94.5t107.5 -155t83 -99.5h16q14 0 28.5 21.5t26 40t32 52.5t35 55.5t38 56.5t32.5 49t27.5 44t26.5 45t19 38q20 37 20 69.5t-23.5 53t-52.5 20.5 q-76 4 -76 43q0 25 58 25l84 -2l217 -2q100 0 100 -31q0 -8 -12 -14t-34.5 -16.5t-41.5 -24.5q-94 -76 -276 -361l-64 -96q-10 -14 -22 -29q-18 -25 -18.5 -32t229.5 -7q29 0 28.5 -44t-28.5 -44l-281 -2q-16 0 -25 -10q-25 -31 -24 -209q0 -16 3 -21t15 -5l29 2h256 q33 0 40 -9.5t7 -32t-2 -30.5q-4 -20 -49 -21l-264 -2q-23 0 -29 -4t-6 -14v-23l2 -88v-49q0 -68 23.5 -107.5t44 -48t40.5 -8.5l41 -8q31 0 31 -22q0 -29 -37 -29l-198 2l-244 -10q-51 0 -51 24q0 18 9 24.5t36 8.5q123 10 123 133l2 76q2 74 2 105.5t-6.5 35.5t-28.5 4 h-129l-154 3q-29 0 -28.5 44t26.5 44h277q29 0 37 6t8 28l-2 70q0 53 -14.5 95t-41.5 44l-30 2h-205q-33 0 -41 10.5t-8 32t2 29.5q6 18 51 18q186 0 186 4.5t-28 49.5l-201 299q-61 90 -110.5 137t-76 55t-70.5 8t-44 25z" />
<glyph unicode="&#xa6;" horiz-adv-x="425" d="M160 -303l2 135l2 528q0 51 53 52q27 0 35 -11.5t8 -40.5v-376l2 -271v-63q0 -78 -35 -78q-45 0 -56 20.5t-11 104.5zM170 848v663q0 27 11.5 38.5t39 11.5t36.5 -11.5t9 -40.5v-708q0 -78 -33 -78q-45 0 -54 19.5t-9 105.5z" />
<glyph unicode="&#xa7;" horiz-adv-x="1110" d="M121 548q0 81 21.5 135t52 86t60.5 53.5t51.5 32.5t21.5 16.5t-29 23.5t-61.5 40.5t-61.5 75t-29 119.5q0 150 113 247.5t281 97.5q98 0 177 -28t89 -28l47 15q35 0 37 -21q41 -268 41 -276q0 -59 -24.5 -59.5t-39 30.5t-26 73t-51.5 93q-96 125 -281 125 q-117 0 -177.5 -65.5t-60.5 -142.5t97 -132q47 -27 138 -58.5t167 -61.5t151 -75q164 -94 164 -276q0 -119 -39 -182q-53 -90 -96 -119q-20 -12 -20 -18.5t19 -16.5t50 -40t54.5 -88t23.5 -106q0 -180 -127 -284.5t-322 -104.5q-92 0 -159.5 14.5t-159.5 63.5 q-31 16 -60.5 153.5t-29.5 179.5t28.5 42t38.5 -25q39 -106 62.5 -140t44 -61.5t47.5 -51t57 -42.5q63 -41 170 -41t201 60.5t94 171.5q0 57 -55 102t-138 74t-179.5 68t-179.5 80.5t-138 115.5t-55 155zM244 621.5q0 -91.5 118 -160.5q57 -37 217 -92.5t166 -55.5 q31 0 80 66.5t49 138.5q0 143 -229 234q-199 76 -228.5 75.5t-101 -57.5t-71.5 -148.5z" />
<glyph unicode="&#xa8;" horiz-adv-x="899" d="M211 1210.5q0 28.5 31.5 66.5t65.5 38t65.5 -36t31.5 -68.5t-35.5 -70.5t-52.5 -38q-41 0 -73.5 40t-32.5 68.5zM539 1210.5q0 28.5 31.5 66.5t65.5 38t65.5 -36t31.5 -68.5t-36 -70.5t-54 -38q-41 0 -72.5 40t-31.5 68.5z" />
<glyph unicode="&#xa9;" horiz-adv-x="1630" d="M90 683q0 302 212 518t516 216t517 -216t213 -514t-211 -514t-514 -216t-518 212t-215 514zM176 684q0 -266 190.5 -453.5t452.5 -187.5t452.5 186.5t190.5 452.5t-186 456.5t-456.5 190.5t-457 -189.5t-186.5 -455.5zM336 659q0 209 128 347.5t357 138.5q78 0 157 -22.5 t125 -45t49 -22.5t9 6t15.5 6t15.5 -4t9 -18.5t3 -28.5q6 -74 12.5 -111t6.5 -41q0 -31 -27 -30q-16 0 -29 22q-121 219 -346 219q-154 0 -252 -94t-98 -248q0 -143 82 -278q41 -70 127 -113t203 -43q164 0 278 162q12 18 21.5 40.5t15.5 30t25 7.5q14 0 14 -17 q0 -51 -25 -170q-4 -20 -26 -28q-168 -84 -254 -95q-39 -6 -82 -6q-129 0 -226.5 35t-150.5 83t-86 114q-51 100 -51 204z" />
<glyph unicode="&#xaa;" horiz-adv-x="618" d="M59 913q0 59 46.5 96.5t90.5 48.5t104 21.5t67 12.5q23 4 22 18l2 59q0 70 -40 102t-79 32q-88 0 -88 -72l6 -43q0 -25 -28 -25q-59 0 -76.5 17.5t-17.5 31.5q0 51 70.5 95.5t150.5 44.5t127 -16.5t63 -45.5q25 -45 25 -94l-8 -233q0 -72 12 -94.5t39 -22.5l26 2 q16 0 17 -21q0 -29 -35 -28h-49q-35 0 -60.5 20.5t-37.5 40.5l-13 21q-2 0 -10 -9.5t-23.5 -22.5t-35.5 -26q-49 -33 -107 -32q-160 -1 -160 122zM180 942q0 -88 94 -88q53 0 81 24.5t31 45t3 51.5v82q0 10 -8 10q-25 -4 -51.5 -8t-60 -14.5t-48.5 -20.5q-41 -29 -41 -82z " />
<glyph unicode="&#xab;" horiz-adv-x="737" d="M311 444.5q0 10.5 13 20.5q295 248 301 250q10 0 21 -13.5t11 -23.5t-97 -116.5t-97 -118t95 -119t95 -116.5t-10 -22.5t-19.5 -13.5t-105.5 85t-194 169q-13 8 -13 18.5zM41 442.5q0 10.5 12 22.5q84 72 187.5 161t112.5 89t20.5 -13.5t11.5 -24.5t-95 -116.5t-95 -117 t95 -117t95 -116.5t-12.5 -24.5t-21.5 -13.5t-112.5 91t-187.5 163q-10 6 -10 16.5z" />
<glyph unicode="&#xac;" d="M63 441.5q0 33.5 39 33.5h875q27 0 34 -6t7 -33v-323q0 -31 -33 -31h-35q-25 4 -24 41v227q0 35 -54 35h-770q-27 0 -33 11.5t-6 45z" />
<glyph unicode="&#xad;" horiz-adv-x="696" d="M90 297v22q0 59 19.5 76t112.5 44.5t177 57t114 41t48 11.5q45 0 45 -70v-12q0 -47 -20 -64q-18 -12 -47 -20q-121 -33 -211 -65.5t-115 -43.5q-61 -20 -92 -20t-31 43z" />
<glyph unicode="&#xae;" horiz-adv-x="978" d="M59 1120q0 178 125 304t303.5 126t305.5 -126t127 -304t-127 -304t-305.5 -126t-303.5 126t-125 304zM121 1120.5q0 -149.5 108.5 -257t258 -107.5t259 107.5t109.5 257t-109.5 258t-259 108.5t-258 -108.5t-108.5 -258zM252 1348q0 18 24 18h48l155 4q76 0 127 -31.5 t51 -99.5q0 -39 -23.5 -62.5t-46 -31.5t-22.5 -10t8 -11q31 -35 48.5 -67.5t64.5 -95.5q25 -31 43 -31h4q6 2 12.5 2t6.5 -9.5t-12.5 -21.5t-40 -12t-56.5 16.5t-86 113.5t-74 101h-51q-14 0 -17 -6t-3 -55t8 -87t45 -45t37 -18.5t-15 -11.5l-104 4q-23 0 -57 -2l-35 -2 q-14 0 -15 14q0 8 26 14.5t29 34t3 74.5v49l2 197q0 53 -62 53q-22 1 -22 15zM412 1221q0 -41 5 -55.5t23 -14.5l29 -2q61 0 85 18.5t24 59.5t-32 74.5t-100 33.5q-23 0 -28.5 -8t-5.5 -39v-67z" />
<glyph unicode="&#xaf;" horiz-adv-x="899" d="M231 1200q0 45 33 45l371 -4q18 0 24.5 -10t6.5 -39q0 -39 -29 -39l-385 2q-21 0 -21 45z" />
<glyph unicode="&#xb0;" horiz-adv-x="530" d="M61 1255.5q0 67.5 60.5 136t154 68.5t144.5 -72.5t51 -157.5t-77 -141.5t-133 -56.5t-101 24.5t-66 63.5q-33 68 -33 135.5zM147 1245q0 -53 34 -88t87 -35q49 0 83 38t34 85q0 125 -117 125q-43 0 -82 -36t-39 -89z" />
<glyph unicode="&#xb1;" d="M63 184.5q0 22.5 3 32.5q2 23 34 23h879q23 0 30 -8.5t7 -34t-7.5 -36.5t-35.5 -11h-875q-18 0 -26.5 6t-8.5 28.5zM63 664q0 45 37 45h371q23 0 23 20v285q0 31 34.5 30.5t45 -6.5t10.5 -28v-279q0 -23 24 -22h375q33 0 33 -31q0 -41 -11.5 -51.5t-31.5 -10.5h-365 q-25 0 -24 -34v-271q0 -29 -34 -28.5t-45 5.5t-11 23v271q0 20 -5.5 27t-27.5 7h-363q-25 0 -30 10.5t-5 37.5z" />
<glyph unicode="&#xb2;" horiz-adv-x="690" d="M86 827v4q0 12 36 52.5t104.5 139.5t128 224t59.5 234q0 51 -34 82.5t-90.5 31.5t-95 -18t-59 -36.5t-30 -18.5t-9.5 12t8.5 28.5t29 40t46.5 44.5q66 53 153 53t148.5 -44t61.5 -131t-78 -228.5t-156 -246t-78 -111.5t54 -7h125l82 4q4 0 15 5l22 10q11 5 40 33t37 28 q14 0 15 -13l-89 -161q-18 -27 -43 -27l-219 4l-143 -2q-41 0 -41 14z" />
<glyph unicode="&#xb3;" horiz-adv-x="690" d="M82 879q0 20 27 20q6 0 22 -14q47 -41 141.5 -41t150.5 80t56 157.5t-41 126.5t-137 49l-39 -4q-16 0 -16 19q0 8 18 18q20 10 87 61.5t67 131.5q0 47 -31 79.5t-77 32.5t-100 -34.5t-61.5 -34.5t-7.5 10q0 37 75 94.5t143.5 57.5t123 -37t54.5 -109q0 -41 -19.5 -76.5 t-38 -53t-51.5 -43.5t-33 -32q0 -2 15 -6q59 -10 102 -37q96 -61 96 -164q0 -147 -97 -246.5t-228 -99.5q-72 0 -136.5 31t-64.5 64z" />
<glyph unicode="&#xb4;" horiz-adv-x="899" d="M371 1006q0 10 14 30q66 98 139 281q16 39 41 39t67 -13.5t42 -39.5q0 -47 -199 -256q-59 -63 -81.5 -63.5t-22.5 22.5z" />
<glyph unicode="&#xb5;" horiz-adv-x="1097" d="M20 -307.5q0 100.5 19.5 197t58.5 233.5q68 227 114 458.5t54 256t25.5 24.5t55.5 -12t38 -35.5t-51 -316.5t-51 -334q0 -74 41 -74q70 0 168 115q158 186 301 520q29 68 35 91.5t8 28.5t4 9t5 6t7 2h10q27 0 57.5 -13t30.5 -30q0 -6 -63.5 -307t-63.5 -340q0 -70 51 -70 q45 0 84 74t56 74q23 0 22 -35q0 -74 -86 -166t-194 -92q-82 0 -82 147q0 53 19.5 176t19.5 130.5t-5.5 7.5t-23.5 -37q-74 -133 -162 -229q-172 -188 -293 -189q-31 0 -50 21.5t-26.5 44t-10.5 22.5t-13 -39q-27 -104 -27 -164.5t27 -123t27 -73.5t-17.5 -35t-56.5 -24 q-62 0 -62 100.5z" />
<glyph unicode="&#xb6;" horiz-adv-x="1034" d="M90 1034q0 188 129 309t279 121l274 2l123 4h25q6 0 12 -8t6 -17t-15.5 -16.5t-40 -17.5t-46 -33.5t-21.5 -126.5l-6 -1058q0 -244 -107.5 -408t-283.5 -164q-82 0 -137 31q-16 8 -16.5 47t21 90t40.5 51q18 0 43 -78q8 -31 37.5 -55t78.5 -24q135 0 136 430l2 63l-7 453 q0 29 -61 28.5t-116.5 6t-125 29t-114.5 60.5t-77 110.5t-32 170.5zM465 1030q0 -313 98 -313q18 0 36.5 11t18.5 28v71l-4 232q0 209 3.5 239.5t3.5 36.5q0 84 -58 84q-61 0 -76 -43q-16 -53 -19 -101t-3 -245zM668 1036l2 -307q0 -203 2 -438l4 -238q0 -82 -3 -115.5 t-3 -35.5q0 -23 14 -23q8 0 25.5 43t34 133t16.5 191l-4 1143q0 16 -14.5 26t-42 10t-27.5 -26q-4 -263 -4 -363z" />
<glyph unicode="&#xb7;" horiz-adv-x="516" d="M158 679q0 28 34.5 71t66.5 43t63.5 -42t31.5 -75t-39 -73t-57 -40q-41 0 -70.5 44t-29.5 72z" />
<glyph unicode="&#xb8;" horiz-adv-x="899" d="M348 -162q0 6 22.5 22.5t34.5 26.5q23 23 39.5 23t39 -11.5t48 -42t25.5 -71.5q0 -88 -65.5 -142.5t-94 -54.5t-28.5 14q0 6 22 19q63 33 64 94q0 57 -80 94q-27 13 -27 29z" />
<glyph unicode="&#xb9;" horiz-adv-x="690" d="M168 1563.5q0 17.5 15.5 26.5t62.5 24.5t74.5 29t48.5 27.5q41 31 51 31q20 0 20 -29l-12 -61q-8 -205 -8 -410l-4 -244q0 -70 35 -81q39 -12 88 -13q25 -4 24.5 -27.5t-71.5 -23.5l-127 2l-152 -4q-39 0 -39 25q0 29 41 28.5t56.5 8t23.5 70t8 220.5v215l2 92v17 q0 74 -43 74q-16 0 -38.5 -12.5t-32 -12.5t-11.5 2q-12 8 -12 25.5z" />
<glyph unicode="&#xba;" horiz-adv-x="743" d="M59 1064q0 114 84 199t220.5 85t228.5 -75t92 -206t-95 -206t-231.5 -75t-217.5 82t-81 196zM180 1094.5q0 -113.5 67.5 -187t145.5 -73.5t126 51t48 153.5t-58 185.5t-165 83q-63 0 -113.5 -49.5t-50.5 -163z" />
<glyph unicode="&#xbb;" horiz-adv-x="737" d="M80 210q0 11 97 118.5t97 116t-95 117t-95 117.5t10 22.5t19.5 13.5t105.5 -85t195 -169q12 -8 12 -18.5t-14 -20.5q-98 -84 -194.5 -167t-106 -83t-20.5 13.5t-11 24.5zM350 210q0 11 96.5 115.5t96.5 117t-95.5 122t-95.5 116.5t11.5 20.5t20.5 13.5t76.5 -59.5 t88.5 -77.5q57 -51 102 -88t45 -45.5t-14 -22.5q-111 -94 -201 -172t-98 -78t-20.5 13.5t-12.5 24.5z" />
<glyph unicode="&#xbc;" horiz-adv-x="1869" d="M1219 295.5q0 21.5 50 88t189.5 239.5t158 197.5t30.5 39.5q29 37 49.5 37t20.5 -25l-15 -457q0 -18 2 -23t34 -5t56.5 17t30.5 17q14 0 14 -18q0 -6 -14 -64q-10 -63 -31 -63l-71 2q-25 0 -25 -22l4 -164v-109q0 -45 -6 -50t-45 -13.5t-55.5 -8.5t-24.5 10.5t-8 16.5 t3 15.5t7 31t8 53.5q8 98 9 232q0 8 -11 8h-16l-64 -2h-96l-147 -2q-37 0 -37 21.5zM1352 393q0 -12 37 -13h166q35 0 35 15v12l2 53q4 106 4 178t-7.5 72t-122 -149.5t-114.5 -167.5zM401 -147q0 20 212 338.5t333 498.5t245 365.5t135 203t19 31.5q31 41 43.5 41t25.5 -9 t13 -21.5t-16 -38.5q-594 -887 -891 -1358q-53 -82 -64.5 -86t-19.5 -4q-35 0 -35 39zM168 1201.5q0 17.5 15.5 26.5t62.5 24.5t74.5 29t48.5 27.5q41 31 51 31q20 0 20 -29l-12 -61q-8 -205 -8 -410l-4 -244q0 -70 35 -81q39 -12 88 -13q25 -4 24.5 -27.5t-71.5 -23.5 l-127 2l-152 -4q-39 0 -39 25q0 29 41 28.5t56.5 8t23.5 70t8 220.5v215l2 92v17q0 74 -43 74q-16 0 -38.5 -12.5t-32 -12.5t-11.5 2q-12 8 -12 25.5z" />
<glyph unicode="&#xbd;" horiz-adv-x="1869" d="M1266 36v4q0 12 36 52.5t104.5 139.5t128 224t59.5 234q0 51 -34 82.5t-90.5 31.5t-95 -18t-59 -36.5t-30 -18.5t-9.5 12t8.5 28.5t29 40t46.5 44.5q66 53 153 53t148.5 -44t61.5 -131t-78 -228.5t-156 -246t-78 -111.5t54 -7h125l82 4q4 0 15 5l22 10q11 5 40 33t37 28 q14 0 15 -13l-89 -161q-18 -27 -43 -27l-219 4l-143 -2q-41 0 -41 14zM401 -147q0 20 212 338.5t333 498.5t245 365.5t135 203t19 31.5q31 41 43.5 41t25.5 -9t13 -21.5t-16 -38.5q-594 -887 -891 -1358q-53 -82 -64.5 -86t-19.5 -4q-35 0 -35 39zM168 1201.5 q0 17.5 15.5 26.5t62.5 24.5t74.5 29t48.5 27.5q41 31 51 31q20 0 20 -29l-12 -61q-8 -205 -8 -410l-4 -244q0 -70 35 -81q39 -12 88 -13q25 -4 24.5 -27.5t-71.5 -23.5l-127 2l-152 -4q-39 0 -39 25q0 29 41 28.5t56.5 8t23.5 70t8 220.5v215l2 92v17q0 74 -43 74 q-16 0 -38.5 -12.5t-32 -12.5t-11.5 2q-12 8 -12 25.5z" />
<glyph unicode="&#xbe;" horiz-adv-x="1869" d="M1219 295.5q0 21.5 50 88t189.5 239.5t158 197.5t30.5 39.5q29 37 49.5 37t20.5 -25l-15 -457q0 -18 2 -23t34 -5t56.5 17t30.5 17q14 0 14 -18q0 -6 -14 -64q-10 -63 -31 -63l-71 2q-25 0 -25 -22l4 -164v-109q0 -45 -6 -50t-45 -13.5t-55.5 -8.5t-24.5 10.5t-8 16.5 t3 15.5t7 31t8 53.5q8 98 9 232q0 8 -11 8h-16l-64 -2h-96l-147 -2q-37 0 -37 21.5zM1352 393q0 -12 37 -13h166q35 0 35 15v12l2 53q4 106 4 178t-7.5 72t-122 -149.5t-114.5 -167.5zM401 -147q0 20 212 338.5t333 498.5t245 365.5t135 203t19 31.5q31 41 43.5 41t25.5 -9 t13 -21.5t-16 -38.5q-594 -887 -891 -1358q-53 -82 -64.5 -86t-19.5 -4q-35 0 -35 39zM82 517q0 20 27 20q6 0 22 -14q47 -41 141.5 -41t150.5 80t56 157.5t-41 126.5t-137 49l-39 -4q-16 0 -16 19q0 8 18 18q20 10 87 61.5t67 131.5q0 47 -31 79.5t-77 32.5t-100 -34.5 t-61.5 -34.5t-7.5 10q0 37 75 94.5t143.5 57.5t123 -37t54.5 -109q0 -41 -19.5 -76.5t-38 -53t-51.5 -43.5t-33 -32q0 -2 15 -6q59 -10 102 -37q96 -61 96 -164q0 -147 -97 -246.5t-228 -99.5q-72 0 -136.5 31t-64.5 64z" />
<glyph unicode="&#xbf;" horiz-adv-x="716" d="M74 215q0 68 45 154t99 155.5t99 159.5t45 162l-12 94q0 20 17 21q31 0 48 -57.5t17 -118t-93 -273.5t-93 -283.5t65.5 -112.5t111.5 -42t83 26.5t39 26.5q16 0 16 -27.5t-64.5 -72.5t-160.5 -45t-179 61t-83 172zM221 1235q0 16 12.5 28.5t32 23.5t27.5 19.5t22.5 29 t26.5 31.5t24.5 11t40 -22.5t38 -36.5t41 -39t30.5 -44t-72 -81q-6 -6 -24 -27q-35 -39 -50.5 -38.5t-30.5 15.5t-29.5 34.5t-16.5 21.5l-21 17q-51 41 -51 57z" />
<glyph unicode="&#xc0;" horiz-adv-x="1662" d="M604 1844q0 27 43 40t66.5 13t46 -54.5t50.5 -111.5t45 -86t30 -49l18 -31q6 -10 6 -18q0 -23 -22.5 -23t-81.5 64q-201 211 -201 256zM41 16q0 29 31 39q66 25 115 110t246.5 514t350.5 757q14 31 25.5 39t33 8t28 -8.5t22.5 -55.5t25.5 -71.5t30 -80t65.5 -166 t205.5 -484t185.5 -424t68 -86t74.5 -38.5t53 -10.5t21.5 -31.5q0 -31 -55 -31l-185 12l-190 -8q-63 0 -80.5 5t-17.5 21.5t16 25.5t34.5 12.5t35 18.5t16.5 51t-51 175.5t-86 204.5q-18 35 -84 35l-248 -4h-109q-92 0 -115.5 -10.5t-38.5 -43t-44 -91t-39 -81t-25 -57.5 q-27 -61 -26.5 -102t24 -65.5t52.5 -28.5q76 -6 75 -39q0 -14 -6 -21.5t-29 -7.5l-170 2l-176 -8q-59 -1 -59 24zM555 690.5q0 -24.5 18.5 -31t85.5 -6.5h64l195 2q80 0 79.5 30t-100.5 256t-127 226q-18 0 -116.5 -226t-98.5 -250.5z" />
<glyph unicode="&#xc1;" horiz-adv-x="1662" d="M752 1547q0 10 14 30q66 98 139 281q16 39 41 39t67 -13.5t42 -39.5q0 -47 -199 -256q-59 -63 -81.5 -63.5t-22.5 22.5zM41 16q0 29 31 39q66 25 115 110t246.5 514t350.5 757q14 31 25.5 39t33 8t28 -8.5t22.5 -55.5t25.5 -71.5t30 -80t65.5 -166t205.5 -484t185.5 -424 t68 -86t74.5 -38.5t53 -10.5t21.5 -31.5q0 -31 -55 -31l-185 12l-190 -8q-63 0 -80.5 5t-17.5 21.5t16 25.5t34.5 12.5t35 18.5t16.5 51t-51 175.5t-86 204.5q-18 35 -84 35l-248 -4h-109q-92 0 -115.5 -10.5t-38.5 -43t-44 -91t-39 -81t-25 -57.5q-27 -61 -26.5 -102 t24 -65.5t52.5 -28.5q76 -6 75 -39q0 -14 -6 -21.5t-29 -7.5l-170 2l-176 -8q-59 -1 -59 24zM555 690.5q0 -24.5 18.5 -31t85.5 -6.5h64l195 2q80 0 79.5 30t-100.5 256t-127 226q-18 0 -116.5 -226t-98.5 -250.5z" />
<glyph unicode="&#xc2;" horiz-adv-x="1662" d="M600 1563q0 2 8 18q127 186 145.5 227.5t24.5 47.5q10 12 23 12h51q23 0 35 -22q51 -90 113.5 -181.5t62.5 -99.5q0 -16 -18.5 -16t-113.5 87t-104.5 87t-100.5 -86t-108.5 -86t-17.5 12zM41 16q0 29 31 39q66 25 115 110t246.5 514t350.5 757q14 31 25.5 39t33 8 t28 -8.5t22.5 -55.5t25.5 -71.5t30 -80t65.5 -166t205.5 -484t185.5 -424t68 -86t74.5 -38.5t53 -10.5t21.5 -31.5q0 -31 -55 -31l-185 12l-190 -8q-63 0 -80.5 5t-17.5 21.5t16 25.5t34.5 12.5t35 18.5t16.5 51t-51 175.5t-86 204.5q-18 35 -84 35l-248 -4h-109 q-92 0 -115.5 -10.5t-38.5 -43t-44 -91t-39 -81t-25 -57.5q-27 -61 -26.5 -102t24 -65.5t52.5 -28.5q76 -6 75 -39q0 -14 -6 -21.5t-29 -7.5l-170 2l-176 -8q-59 -1 -59 24zM555 690.5q0 -24.5 18.5 -31t85.5 -6.5h64l195 2q80 0 79.5 30t-100.5 256t-127 226 q-18 0 -116.5 -226t-98.5 -250.5z" />
<glyph unicode="&#xc3;" horiz-adv-x="1662" d="M528 1626q0 35 69 126.5t124 91.5t133 -49.5t123 -49.5t87 57.5t46 57.5q20 0 20 -31t-67.5 -117t-124.5 -86t-138 49.5t-118 49.5t-64.5 -29t-45 -57.5t-23.5 -28.5q-21 0 -21 16zM41 16q0 29 31 39q66 25 115 110t246.5 514t350.5 757q14 31 25.5 39t33 8t28 -8.5 t22.5 -55.5t25.5 -71.5t30 -80t65.5 -166t205.5 -484t185.5 -424t68 -86t74.5 -38.5t53 -10.5t21.5 -31.5q0 -31 -55 -31l-185 12l-190 -8q-63 0 -80.5 5t-17.5 21.5t16 25.5t34.5 12.5t35 18.5t16.5 51t-51 175.5t-86 204.5q-18 35 -84 35l-248 -4h-109q-92 0 -115.5 -10.5 t-38.5 -43t-44 -91t-39 -81t-25 -57.5q-27 -61 -26.5 -102t24 -65.5t52.5 -28.5q76 -6 75 -39q0 -14 -6 -21.5t-29 -7.5l-170 2l-176 -8q-59 -1 -59 24zM555 690.5q0 -24.5 18.5 -31t85.5 -6.5h64l195 2q80 0 79.5 30t-100.5 256t-127 226q-18 0 -116.5 -226t-98.5 -250.5z " />
<glyph unicode="&#xc4;" horiz-adv-x="1662" d="M592 1751.5q0 28.5 31.5 66.5t65.5 38t65.5 -36t31.5 -68.5t-35.5 -70.5t-52.5 -38q-41 0 -73.5 40t-32.5 68.5zM920 1751.5q0 28.5 31.5 66.5t65.5 38t65.5 -36t31.5 -68.5t-36 -70.5t-54 -38q-41 0 -72.5 40t-31.5 68.5zM41 16q0 29 31 39q66 25 115 110t246.5 514 t350.5 757q14 31 25.5 39t33 8t28 -8.5t22.5 -55.5t25.5 -71.5t30 -80t65.5 -166t205.5 -484t185.5 -424t68 -86t74.5 -38.5t53 -10.5t21.5 -31.5q0 -31 -55 -31l-185 12l-190 -8q-63 0 -80.5 5t-17.5 21.5t16 25.5t34.5 12.5t35 18.5t16.5 51t-51 175.5t-86 204.5 q-18 35 -84 35l-248 -4h-109q-92 0 -115.5 -10.5t-38.5 -43t-44 -91t-39 -81t-25 -57.5q-27 -61 -26.5 -102t24 -65.5t52.5 -28.5q76 -6 75 -39q0 -14 -6 -21.5t-29 -7.5l-170 2l-176 -8q-59 -1 -59 24zM555 690.5q0 -24.5 18.5 -31t85.5 -6.5h64l195 2q80 0 79.5 30 t-100.5 256t-127 226q-18 0 -116.5 -226t-98.5 -250.5z" />
<glyph unicode="&#xc5;" horiz-adv-x="1662" d="M674 1762q0 43 47 95t117.5 52t108.5 -55.5t38 -120t-58.5 -106.5t-108.5 -42t-88 34t-47 67t-9 76zM752 1747q0 -35 22.5 -58.5t45 -23.5t37.5 5.5t32.5 25t17.5 49.5q0 84 -76 84q-29 0 -54 -23.5t-25 -58.5zM41 16q0 29 31 39q66 25 115 110t246.5 514t350.5 757 q14 31 25.5 39t33 8t28 -8.5t22.5 -55.5t25.5 -71.5t30 -80t65.5 -166t205.5 -484t185.5 -424t68 -86t74.5 -38.5t53 -10.5t21.5 -31.5q0 -31 -55 -31l-185 12l-190 -8q-63 0 -80.5 5t-17.5 21.5t16 25.5t34.5 12.5t35 18.5t16.5 51t-51 175.5t-86 204.5q-18 35 -84 35 l-248 -4h-109q-92 0 -115.5 -10.5t-38.5 -43t-44 -91t-39 -81t-25 -57.5q-27 -61 -26.5 -102t24 -65.5t52.5 -28.5q76 -6 75 -39q0 -14 -6 -21.5t-29 -7.5l-170 2l-176 -8q-59 -1 -59 24zM555 690.5q0 -24.5 18.5 -31t85.5 -6.5h64l195 2q80 0 79.5 30t-100.5 256t-127 226 q-18 0 -116.5 -226t-98.5 -250.5z" />
<glyph unicode="&#xc6;" horiz-adv-x="2033" d="M41 16q0 29 33 39q63 25 112.5 100.5t251 468t359.5 691.5q10 20 10 39q0 29 -107 39q-47 2 -47 39q0 31 62 30q14 0 274 -7t461 -7l410 6q37 0 36 -47q0 -12 -11 -81t-11 -107q0 -66 -32 -66t-32 49t-35.5 94t-86.5 47q-184 14 -281 15h-53q-106 0 -125 -16.5t-24 -118 t-5 -332.5q0 -102 37 -105h203q121 0 161.5 8.5t68.5 27t39 40t13 35.5q4 39 31 39q18 0 22.5 -6t4.5 -23.5t-9.5 -97.5t-9.5 -121l8 -125q0 -51 -14 -51q-29 0 -49 66.5t-47 83.5q-43 29 -152 28h-147l-66 2h-12q-84 0 -84 -39l-4 -295v-82q0 -147 49 -162.5t86 -15.5 q182 0 309 20.5t182.5 49.5t83 56.5t39 48t25.5 20.5q25 0 25 -35q0 -88 -89 -178t-155 -90q-147 0 -331.5 10t-229.5 10l-281 -18q-41 0 -41 20v25q0 12 19 16q25 2 72 24.5t62 93.5t15 300v57q0 10 -12 11l-172 4h-64l-155 2q-80 0 -103.5 -11.5t-38 -40t-38 -72.5 t-33.5 -63l-25 -51q-53 -106 -53 -156.5t36 -70t71.5 -24.5t35.5 -27q0 -31 -34 -31l-173 2l-176 -8q-59 -1 -59 24zM594 686q0 -33 102 -33h187q106 0 127.5 8.5t21.5 51.5v520q0 102 -28 127q-14 10 -40 10t-53 -43q-66 -113 -191.5 -367t-125.5 -274z" />
<glyph unicode="&#xc7;" horiz-adv-x="1652" d="M815 -162q0 6 22.5 22.5t34.5 26.5q23 23 39.5 23t39 -11.5t48 -42t25.5 -71.5q0 -88 -65.5 -142.5t-94 -54.5t-28.5 14q0 6 22 19q63 33 64 94q0 57 -80 94q-27 13 -27 29zM90 665.5q0 221.5 86 399.5t265.5 287.5t424.5 109.5q125 0 252 -36.5t203 -73.5l76 -39 q6 0 20.5 10t23.5 10t19 -8t11.5 -46t8.5 -104.5t13 -109.5t6 -51q0 -37 -24 -37q-18 0 -35 29q-199 373 -574 372q-256 0 -419.5 -163.5t-163.5 -428.5q0 -295 151 -503q78 -106 213 -168t316 -62q295 0 495 307q8 14 31 15q18 0 18 -25.5t-7 -63.5t-17 -84t-13 -57 q-4 -23 -32 -36q-111 -53 -172 -80q-164 -70 -349.5 -70t-329 43t-234.5 112.5t-152 164.5q-111 165 -111 386.5z" />
<glyph unicode="&#xc8;" horiz-adv-x="1236" d="M405 1844q0 27 43 40t66.5 13t46 -54.5t50.5 -111.5t45 -86t30 -49l18 -31q6 -10 6 -18q0 -23 -22.5 -23t-81.5 64q-201 211 -201 256zM41 1432q0 29 57 28l56 -4l499 -10l410 8q39 0 39 -47q0 -12 -12.5 -81t-12.5 -107q0 -66 -31.5 -66t-31.5 49t-35 94t-86 47 q-184 14 -283 15h-53q-106 0 -123 -15q-31 -27 -31 -452q0 -102 39 -105h201q123 0 164 9q106 20 121 106q6 35 26.5 35t24.5 -6t4 -27l-16 -215l6 -125q0 -51 -15 -51q-31 0 -45 49q-29 86 -51 101q-43 29 -149 28h-148l-65 2h-15q-84 0 -84 -39l-4 -295v-82 q0 -147 50.5 -162.5t87.5 -15.5q307 0 444 49q121 45 147 95q25 51 45 51q25 0 25 -35q0 -88 -88 -178t-154 -90q-147 0 -332.5 10t-230.5 10l-278 -18q-43 0 -43 20v25q0 12 20 16q23 2 70 24.5t62.5 94.5t15.5 301v254l6 354q0 55 -4 187q-2 59 -51.5 92t-114.5 35 q-33 0 -33 37z" />
<glyph unicode="&#xc9;" horiz-adv-x="1236" d="M553 1547q0 10 14 30q66 98 139 281q16 39 41 39t67 -13.5t42 -39.5q0 -47 -199 -256q-59 -63 -81.5 -63.5t-22.5 22.5zM41 1432q0 29 57 28l56 -4l499 -10l410 8q39 0 39 -47q0 -12 -12.5 -81t-12.5 -107q0 -66 -31.5 -66t-31.5 49t-35 94t-86 47q-184 14 -283 15h-53 q-106 0 -123 -15q-31 -27 -31 -452q0 -102 39 -105h201q123 0 164 9q106 20 121 106q6 35 26.5 35t24.5 -6t4 -27l-16 -215l6 -125q0 -51 -15 -51q-31 0 -45 49q-29 86 -51 101q-43 29 -149 28h-148l-65 2h-15q-84 0 -84 -39l-4 -295v-82q0 -147 50.5 -162.5t87.5 -15.5 q307 0 444 49q121 45 147 95q25 51 45 51q25 0 25 -35q0 -88 -88 -178t-154 -90q-147 0 -332.5 10t-230.5 10l-278 -18q-43 0 -43 20v25q0 12 20 16q23 2 70 24.5t62.5 94.5t15.5 301v254l6 354q0 55 -4 187q-2 59 -51.5 92t-114.5 35q-33 0 -33 37z" />
<glyph unicode="&#xca;" horiz-adv-x="1236" d="M401 1563q0 2 8 18q127 186 145.5 227.5t24.5 47.5q10 12 23 12h51q23 0 35 -22q51 -90 113.5 -181.5t62.5 -99.5q0 -16 -18.5 -16t-113.5 87t-104.5 87t-100.5 -86t-108.5 -86t-17.5 12zM41 1432q0 29 57 28l56 -4l499 -10l410 8q39 0 39 -47q0 -12 -12.5 -81 t-12.5 -107q0 -66 -31.5 -66t-31.5 49t-35 94t-86 47q-184 14 -283 15h-53q-106 0 -123 -15q-31 -27 -31 -452q0 -102 39 -105h201q123 0 164 9q106 20 121 106q6 35 26.5 35t24.5 -6t4 -27l-16 -215l6 -125q0 -51 -15 -51q-31 0 -45 49q-29 86 -51 101q-43 29 -149 28h-148 l-65 2h-15q-84 0 -84 -39l-4 -295v-82q0 -147 50.5 -162.5t87.5 -15.5q307 0 444 49q121 45 147 95q25 51 45 51q25 0 25 -35q0 -88 -88 -178t-154 -90q-147 0 -332.5 10t-230.5 10l-278 -18q-43 0 -43 20v25q0 12 20 16q23 2 70 24.5t62.5 94.5t15.5 301v254l6 354 q0 55 -4 187q-2 59 -51.5 92t-114.5 35q-33 0 -33 37z" />
<glyph unicode="&#xcb;" horiz-adv-x="1236" d="M393 1751.5q0 28.5 31.5 66.5t65.5 38t65.5 -36t31.5 -68.5t-35.5 -70.5t-52.5 -38q-41 0 -73.5 40t-32.5 68.5zM721 1751.5q0 28.5 31.5 66.5t65.5 38t65.5 -36t31.5 -68.5t-36 -70.5t-54 -38q-41 0 -72.5 40t-31.5 68.5zM41 1432q0 29 57 28l56 -4l499 -10l410 8 q39 0 39 -47q0 -12 -12.5 -81t-12.5 -107q0 -66 -31.5 -66t-31.5 49t-35 94t-86 47q-184 14 -283 15h-53q-106 0 -123 -15q-31 -27 -31 -452q0 -102 39 -105h201q123 0 164 9q106 20 121 106q6 35 26.5 35t24.5 -6t4 -27l-16 -215l6 -125q0 -51 -15 -51q-31 0 -45 49 q-29 86 -51 101q-43 29 -149 28h-148l-65 2h-15q-84 0 -84 -39l-4 -295v-82q0 -147 50.5 -162.5t87.5 -15.5q307 0 444 49q121 45 147 95q25 51 45 51q25 0 25 -35q0 -88 -88 -178t-154 -90q-147 0 -332.5 10t-230.5 10l-278 -18q-43 0 -43 20v25q0 12 20 16q23 2 70 24.5 t62.5 94.5t15.5 301v254l6 354q0 55 -4 187q-2 59 -51.5 92t-114.5 35q-33 0 -33 37z" />
<glyph unicode="&#xcc;" horiz-adv-x="671" d="M80 1844q0 27 43 40t66.5 13t46 -54.5t50.5 -111.5t45 -86t30 -49l18 -31q6 -10 6 -18q0 -23 -22.5 -23t-81.5 64q-201 211 -201 256zM41 1424.5q0 29.5 57 29.5l232 -8l180 4q55 0 55 -29q0 -16 -94 -55q-66 -27 -65 -236l-7 -757q0 -172 48.5 -242t101.5 -70l41 -2 q14 0 28.5 -7t14.5 -23q0 -29 -51 -29l-195 8l-225 -10q-92 0 -92 31q0 29 63 37q25 2 51.5 25.5t33.5 53t16.5 247.5t9.5 315v116l2 221v95q0 90 -7.5 144t-55.5 81t-95 29t-47 31.5z" />
<glyph unicode="&#xcd;" horiz-adv-x="671" d="M228 1547q0 10 14 30q66 98 139 281q16 39 41 39t67 -13.5t42 -39.5q0 -47 -199 -256q-59 -63 -81.5 -63.5t-22.5 22.5zM41 1424.5q0 29.5 57 29.5l232 -8l180 4q55 0 55 -29q0 -16 -94 -55q-66 -27 -65 -236l-7 -757q0 -172 48.5 -242t101.5 -70l41 -2q14 0 28.5 -7 t14.5 -23q0 -29 -51 -29l-195 8l-225 -10q-92 0 -92 31q0 29 63 37q25 2 51.5 25.5t33.5 53t16.5 247.5t9.5 315v116l2 221v95q0 90 -7.5 144t-55.5 81t-95 29t-47 31.5z" />
<glyph unicode="&#xce;" horiz-adv-x="671" d="M76 1563q0 2 8 18q127 186 145.5 227.5t24.5 47.5q10 12 23 12h51q23 0 35 -22q51 -90 113.5 -181.5t62.5 -99.5q0 -16 -18.5 -16t-113.5 87t-104.5 87t-100.5 -86t-108.5 -86t-17.5 12zM41 1424.5q0 29.5 57 29.5l232 -8l180 4q55 0 55 -29q0 -16 -94 -55 q-66 -27 -65 -236l-7 -757q0 -172 48.5 -242t101.5 -70l41 -2q14 0 28.5 -7t14.5 -23q0 -29 -51 -29l-195 8l-225 -10q-92 0 -92 31q0 29 63 37q25 2 51.5 25.5t33.5 53t16.5 247.5t9.5 315v116l2 221v95q0 90 -7.5 144t-55.5 81t-95 29t-47 31.5z" />
<glyph unicode="&#xcf;" horiz-adv-x="671" d="M68 1751.5q0 28.5 31.5 66.5t65.5 38t65.5 -36t31.5 -68.5t-35.5 -70.5t-52.5 -38q-41 0 -73.5 40t-32.5 68.5zM396 1751.5q0 28.5 31.5 66.5t65.5 38t65.5 -36t31.5 -68.5t-36 -70.5t-54 -38q-41 0 -72.5 40t-31.5 68.5zM41 1424.5q0 29.5 57 29.5l232 -8l180 4 q55 0 55 -29q0 -16 -94 -55q-66 -27 -65 -236l-7 -757q0 -172 48.5 -242t101.5 -70l41 -2q14 0 28.5 -7t14.5 -23q0 -29 -51 -29l-195 8l-225 -10q-92 0 -92 31q0 29 63 37q25 2 51.5 25.5t33.5 53t16.5 247.5t9.5 315v116l2 221v95q0 90 -7.5 144t-55.5 81t-95 29t-47 31.5 z" />
<glyph unicode="&#xd0;" horiz-adv-x="1622" d="M41 1432.5q0 19.5 17.5 22.5t86.5 3h179l399 8q297 0 543 -168q119 -80 192.5 -210t73.5 -281.5t-19.5 -257t-64.5 -182t-90 -124.5t-114.5 -105.5t-186.5 -100.5t-240 -43l-491 10q-72 0 -133.5 -5t-71.5 -5q-49 0 -49 26q0 16 7 23.5t30.5 13.5t33.5 11q33 14 60.5 54 t27.5 79l2 463q0 18 -5 25t-23 7h-133q-25 0 -25 44t25 44l133 2q20 0 24 6.5t4 28.5l-2 455q0 35 -33.5 70.5t-68.5 37.5t-48 4.5t-26.5 13.5t-13.5 30.5zM403 289q0 -82 8.5 -104.5t12.5 -32t24.5 -19.5t32.5 -14q78 -18 129.5 -33.5t128.5 -15.5h41q139 0 237.5 40 t188.5 126q152 145 152 471q0 164 -64.5 297t-169.5 213q-215 162 -469 161h-82q-98 0 -131 -35q-16 -16 -19 -28t-8 -48t-5 -63v-86l-2 -287q0 -29 6 -37t37 -8h309q29 0 36 -10t7 -31.5t-2 -27.5q-6 -20 -45 -21l-307 -2h-21q-16 0 -19 -4t-3 -20v-11z" />
<glyph unicode="&#xd1;" horiz-adv-x="1634" d="M512 1626q0 35 69 126.5t124 91.5t133 -49.5t123 -49.5t87 57.5t46 57.5q20 0 20 -31t-67.5 -117t-124.5 -86t-138 49.5t-118 49.5t-64.5 -29t-45 -57.5t-23.5 -28.5q-21 0 -21 16zM41 1415q0 12 14.5 23.5t36.5 11.5l78 -2l100 4q18 0 43 -11t29 -20.5t22.5 -31 t49 -56.5t55.5 -67q279 -362 745 -875q12 -14 30 -32.5t25 -27.5t15 -18q14 -14 23 -14q20 0 20 127v240l-4 419v15q0 188 -66 239q-25 18 -41 23.5t-47 11.5q-84 16 -84 46t39 30l195 -2l184 4q35 0 48.5 -7t13.5 -21.5t-13 -22.5q-16 -10 -59 -25q-68 -37 -68 -231v-78 l-22 -1014v-41q0 -47 -29 -47q-18 0 -33 15q-680 788 -812 936.5t-146 148.5q-20 0 -20.5 -167t-8.5 -391t-8 -245q0 -92 32 -140t68.5 -54.5t68.5 -13.5t32 -28.5t-7.5 -27.5t-25.5 -6l-219 4l-174 -4q-45 0 -45 33q0 18 26.5 23t65.5 31.5t55.5 87t34.5 394.5t18 485.5 t-49 238.5t-159 99q-27 2 -27 31z" />
<glyph unicode="&#xd2;" horiz-adv-x="1746" d="M631 1844q0 27 43 40t66.5 13t46 -54.5t50.5 -111.5t45 -86t30 -49l18 -31q6 -10 6 -18q0 -23 -22.5 -23t-81.5 64q-201 211 -201 256zM90 694q0 344 207 564.5t586 220.5q176 0 317 -51.5t223 -126t138 -171.5q96 -168 96 -327q0 -279 -109 -471q-207 -365 -694 -365 q-244 0 -421 106.5t-260 268.5t-83 352zM270 799q0 -182 97 -373q51 -102 123.5 -183t184 -133.5t245.5 -52.5q152 0 299 88q164 96 231 269q39 92 39 200q0 371 -194.5 577t-481.5 206q-225 0 -384 -151.5t-159 -446.5z" />
<glyph unicode="&#xd3;" horiz-adv-x="1746" d="M779 1547q0 10 14 30q66 98 139 281q16 39 41 39t67 -13.5t42 -39.5q0 -47 -199 -256q-59 -63 -81.5 -63.5t-22.5 22.5zM90 694q0 344 207 564.5t586 220.5q176 0 317 -51.5t223 -126t138 -171.5q96 -168 96 -327q0 -279 -109 -471q-207 -365 -694 -365 q-244 0 -421 106.5t-260 268.5t-83 352zM270 799q0 -182 97 -373q51 -102 123.5 -183t184 -133.5t245.5 -52.5q152 0 299 88q164 96 231 269q39 92 39 200q0 371 -194.5 577t-481.5 206q-225 0 -384 -151.5t-159 -446.5z" />
<glyph unicode="&#xd4;" horiz-adv-x="1746" d="M627 1563q0 2 8 18q127 186 145.5 227.5t24.5 47.5q10 12 23 12h51q23 0 35 -22q51 -90 113.5 -181.5t62.5 -99.5q0 -16 -18.5 -16t-113.5 87t-104.5 87t-100.5 -86t-108.5 -86t-17.5 12zM90 694q0 344 207 564.5t586 220.5q176 0 317 -51.5t223 -126t138 -171.5 q96 -168 96 -327q0 -279 -109 -471q-207 -365 -694 -365q-244 0 -421 106.5t-260 268.5t-83 352zM270 799q0 -182 97 -373q51 -102 123.5 -183t184 -133.5t245.5 -52.5q152 0 299 88q164 96 231 269q39 92 39 200q0 371 -194.5 577t-481.5 206q-225 0 -384 -151.5 t-159 -446.5z" />
<glyph unicode="&#xd5;" horiz-adv-x="1746" d="M555 1626q0 35 69 126.5t124 91.5t133 -49.5t123 -49.5t87 57.5t46 57.5q20 0 20 -31t-67.5 -117t-124.5 -86t-138 49.5t-118 49.5t-64.5 -29t-45 -57.5t-23.5 -28.5q-21 0 -21 16zM90 694q0 344 207 564.5t586 220.5q176 0 317 -51.5t223 -126t138 -171.5 q96 -168 96 -327q0 -279 -109 -471q-207 -365 -694 -365q-244 0 -421 106.5t-260 268.5t-83 352zM270 799q0 -182 97 -373q51 -102 123.5 -183t184 -133.5t245.5 -52.5q152 0 299 88q164 96 231 269q39 92 39 200q0 371 -194.5 577t-481.5 206q-225 0 -384 -151.5 t-159 -446.5z" />
<glyph unicode="&#xd6;" horiz-adv-x="1746" d="M619 1751.5q0 28.5 31.5 66.5t65.5 38t65.5 -36t31.5 -68.5t-35.5 -70.5t-52.5 -38q-41 0 -73.5 40t-32.5 68.5zM947 1751.5q0 28.5 31.5 66.5t65.5 38t65.5 -36t31.5 -68.5t-36 -70.5t-54 -38q-41 0 -72.5 40t-31.5 68.5zM90 694q0 344 207 564.5t586 220.5 q176 0 317 -51.5t223 -126t138 -171.5q96 -168 96 -327q0 -279 -109 -471q-207 -365 -694 -365q-244 0 -421 106.5t-260 268.5t-83 352zM270 799q0 -182 97 -373q51 -102 123.5 -183t184 -133.5t245.5 -52.5q152 0 299 88q164 96 231 269q39 92 39 200q0 371 -194.5 577 t-481.5 206q-225 0 -384 -151.5t-159 -446.5z" />
<glyph unicode="&#xd7;" d="M180 734q0 9 21.5 30.5t35 21.5t29.5 -16l238 -235q25 -25 38 -25t23 10l256 256q12 12 23.5 12t32 -20t20.5 -32.5t-18 -30.5l-248 -248q-16 -16 -16.5 -25.5t16.5 -25.5l254 -254q12 -12 12 -24.5t-21.5 -34t-33 -21.5t-25.5 14l-252 254q-14 14 -25.5 14t-33.5 -22 l-246 -246q-14 -14 -24.5 -14t-32 20.5t-21.5 31.5t17 28l245 247q18 18 18.5 30.5t-13.5 27.5l-254 254q-15 14 -15 23z" />
<glyph unicode="&#xd8;" horiz-adv-x="1746" d="M90 694q0 344 207 564.5t586 220.5q117 0 178 -14.5t69 -14.5q20 0 39 35l60 127q20 43 43 43l24 -8q27 -8 27 -29q0 -10 -2 -19l-64 -135q-14 -33 -14 -37q0 -14 23 -26q141 -66 233 -184q158 -197 158 -414q0 -279 -109 -471q-207 -365 -694 -365q-117 0 -182.5 16.5 t-73.5 16.5q-23 0 -37 -31l-90 -190q-14 -25 -31 -25q-57 0 -57 35q0 14 6 25l94 200q4 12 4 18.5t-7 12.5t-38 23q-186 102 -278 297q-74 155 -74 329zM270 799q0 -250 168 -488q41 -59 73 -88.5t44 -29.5t20 20l494 1055q20 41 21 51q0 31 -97.5 54.5t-179.5 23.5 q-225 0 -384 -151.5t-159 -446.5zM643 139q0 -25 92 -53.5t173 -28.5t158 21.5t152.5 66.5t135 109.5t97.5 158t38 216.5t-31 242.5t-74 191.5t-89 124t-75.5 73.5t-35.5 21.5t-27.5 -43t-170 -362.5t-246 -523.5t-97.5 -214z" />
<glyph unicode="&#xd9;" horiz-adv-x="1669" d="M667 1844q0 27 43 40t66.5 13t46 -54.5t50.5 -111.5t45 -86t30 -49l18 -31q6 -10 6 -18q0 -23 -22.5 -23t-81.5 64q-201 211 -201 256zM41 1427q0 16 12.5 21.5t34.5 5.5l231 -8l193 4q43 0 43 -29q0 -18 -14.5 -22t-36 -6t-41.5 -15q-51 -29 -51 -190v-58l-2 -442 q0 -203 12 -264.5t28.5 -113.5t40 -82.5t59.5 -67.5t83 -58q111 -45 252 -45q221 0 307 49q37 20 85 64.5t75 108.5q63 152 63 385l-2 434q0 72 -3 112.5t-20.5 90t-44 67.5t-59.5 23.5t-53.5 8.5t-20.5 17q0 33 41 33l158 -4l174 6q43 0 43 -27q0 -16 -44 -41.5t-54 -46.5 q-23 -43 -23 -135l2 -137q0 -393 -32.5 -602t-100.5 -303q-137 -199 -485 -199t-492 131q-113 104 -139.5 250.5t-26.5 505.5v35l5 295q0 113 -27 154.5t-125 56.5q-45 5 -45 38z" />
<glyph unicode="&#xda;" horiz-adv-x="1669" d="M815 1547q0 10 14 30q66 98 139 281q16 39 41 39t67 -13.5t42 -39.5q0 -47 -199 -256q-59 -63 -81.5 -63.5t-22.5 22.5zM41 1427q0 16 12.5 21.5t34.5 5.5l231 -8l193 4q43 0 43 -29q0 -18 -14.5 -22t-36 -6t-41.5 -15q-51 -29 -51 -190v-58l-2 -442q0 -203 12 -264.5 t28.5 -113.5t40 -82.5t59.5 -67.5t83 -58q111 -45 252 -45q221 0 307 49q37 20 85 64.5t75 108.5q63 152 63 385l-2 434q0 72 -3 112.5t-20.5 90t-44 67.5t-59.5 23.5t-53.5 8.5t-20.5 17q0 33 41 33l158 -4l174 6q43 0 43 -27q0 -16 -44 -41.5t-54 -46.5q-23 -43 -23 -135 l2 -137q0 -393 -32.5 -602t-100.5 -303q-137 -199 -485 -199t-492 131q-113 104 -139.5 250.5t-26.5 505.5v35l5 295q0 113 -27 154.5t-125 56.5q-45 5 -45 38z" />
<glyph unicode="&#xdb;" horiz-adv-x="1669" d="M663 1563q0 2 8 18q127 186 145.5 227.5t24.5 47.5q10 12 23 12h51q23 0 35 -22q51 -90 113.5 -181.5t62.5 -99.5q0 -16 -18.5 -16t-113.5 87t-104.5 87t-100.5 -86t-108.5 -86t-17.5 12zM41 1427q0 16 12.5 21.5t34.5 5.5l231 -8l193 4q43 0 43 -29q0 -18 -14.5 -22 t-36 -6t-41.5 -15q-51 -29 -51 -190v-58l-2 -442q0 -203 12 -264.5t28.5 -113.5t40 -82.5t59.5 -67.5t83 -58q111 -45 252 -45q221 0 307 49q37 20 85 64.5t75 108.5q63 152 63 385l-2 434q0 72 -3 112.5t-20.5 90t-44 67.5t-59.5 23.5t-53.5 8.5t-20.5 17q0 33 41 33 l158 -4l174 6q43 0 43 -27q0 -16 -44 -41.5t-54 -46.5q-23 -43 -23 -135l2 -137q0 -393 -32.5 -602t-100.5 -303q-137 -199 -485 -199t-492 131q-113 104 -139.5 250.5t-26.5 505.5v35l5 295q0 113 -27 154.5t-125 56.5q-45 5 -45 38z" />
<glyph unicode="&#xdc;" horiz-adv-x="1669" d="M655 1751.5q0 28.5 31.5 66.5t65.5 38t65.5 -36t31.5 -68.5t-35.5 -70.5t-52.5 -38q-41 0 -73.5 40t-32.5 68.5zM983 1751.5q0 28.5 31.5 66.5t65.5 38t65.5 -36t31.5 -68.5t-36 -70.5t-54 -38q-41 0 -72.5 40t-31.5 68.5zM41 1427q0 16 12.5 21.5t34.5 5.5l231 -8l193 4 q43 0 43 -29q0 -18 -14.5 -22t-36 -6t-41.5 -15q-51 -29 -51 -190v-58l-2 -442q0 -203 12 -264.5t28.5 -113.5t40 -82.5t59.5 -67.5t83 -58q111 -45 252 -45q221 0 307 49q37 20 85 64.5t75 108.5q63 152 63 385l-2 434q0 72 -3 112.5t-20.5 90t-44 67.5t-59.5 23.5 t-53.5 8.5t-20.5 17q0 33 41 33l158 -4l174 6q43 0 43 -27q0 -16 -44 -41.5t-54 -46.5q-23 -43 -23 -135l2 -137q0 -393 -32.5 -602t-100.5 -303q-137 -199 -485 -199t-492 131q-113 104 -139.5 250.5t-26.5 505.5v35l5 295q0 113 -27 154.5t-125 56.5q-45 5 -45 38z" />
<glyph unicode="&#xdd;" horiz-adv-x="1458" d="M689 1547q0 10 14 30q66 98 139 281q16 39 41 39t67 -13.5t42 -39.5q0 -47 -199 -256q-59 -63 -81.5 -63.5t-22.5 22.5zM41 1407q0 25 23.5 31t103.5 6l119 -4l174 2q102 0 102 -23.5t-43 -39t-43 -35t13.5 -52t26.5 -53t40 -59.5t63.5 -98.5t111.5 -160t86 -100.5 t29.5 23.5t51.5 79t47.5 77t38 56.5t32.5 49t27.5 44t26.5 45t19 38q20 37 20 61q0 74 -94 86q-45 6 -51.5 17.5t-6.5 21.5q0 25 58 25l84 -2l217 -2q100 0 100 -31q0 -8 -12 -14t-34.5 -16.5t-41.5 -24.5q-84 -66 -246.5 -311.5t-190.5 -280.5t-36 -84t-8 -168l2 -238v-49 q0 -68 23.5 -106.5t44 -46t40.5 -7.5l41 -2q14 0 22.5 -9t8.5 -24.5t-10 -21.5t-39 -6l-205 2l-225 -8q-57 0 -57 20.5t11 27.5t37.5 9t39.5 6q86 27 86 125l4 416q0 86 -54 168q-49 78 -128.5 194.5t-141 210t-113 143.5t-79 59t-71.5 9t-44 25z" />
<glyph unicode="&#xde;" horiz-adv-x="1163" d="M41 1424.5q0 29.5 57 29.5l232 -8l180 4q55 0 55 -29q0 -16 -94 -55q-33 -14 -49 -74.5t-16 -97.5t3 -41t19 -4l205 8q193 0 332 -98t139 -281q0 -100 -37 -179t-89 -124t-118 -74q-106 -49 -188 -49t-149.5 16.5t-67.5 32.5q0 31 26 31q10 0 43 -8t71 -8t92 13t111.5 43 t94.5 90.5t37 139.5q0 137 -111.5 255t-306.5 118q-66 0 -87.5 -41t-21.5 -178v-350q-4 0 -4 -144v-43q0 -180 66 -223q59 -39 106 -33q82 8 82 -38q0 -33 -45 -33l-293 8l-192 -8q-63 0 -64 24q0 27 12.5 34t19.5 9t24 7l24 4q31 6 41 20q59 78 60 492q0 313 3 374.5 t3 87.5v95q0 90 -7.5 144t-55.5 81t-95 29t-47 31.5z" />
<glyph unicode="&#xdf;" d="M41 16q0 23 57 33q20 4 38 29.5t18 75.5v598q0 2 -34 27.5t-34 37.5q0 23 34 29t34 20q0 260 113.5 436.5t295.5 176.5q92 0 174 -45q96 -55 97 -205q0 -84 -39 -160t-86 -121q-123 -121 -123 -189.5t65.5 -127t143 -102.5t143.5 -119.5t66 -165.5q0 -117 -72 -199 q-63 -74 -187 -74q-106 0 -208 52q-8 2 -19.5 6t-16.5 5t-13.5 5t-11.5 7t-7 9q-6 10 -6 33v178q0 23 9 38t25.5 15t23.5 -9t13.5 -37.5t9.5 -36t11 -28t14 -32.5l15 -33q12 -27 36.5 -56.5t38.5 -39.5q37 -25 88.5 -24.5t98.5 40t47 105t-43 114t-104.5 87.5t-123 81 t-104.5 102t-43 120.5t23.5 109.5t57.5 94.5t69 92.5q82 111 82 231.5t-46.5 175t-113.5 54.5q-72 0 -118 -46.5t-73 -103.5q-57 -131 -57 -393l4 -127l-4 -146q-6 -145 -6 -270v-143q0 -82 17.5 -115t61.5 -43t44 -35q0 -18 -39 -18l-131 8l-172 -6q-33 -1 -33 24z" />
<glyph unicode="&#xe0;" horiz-adv-x="944" d="M229 1303q0 27 43 40t66.5 13t46 -54.5t50.5 -111.5t45 -86t30 -49l18 -31q6 -10 6 -18q0 -23 -22.5 -23t-81.5 64q-201 211 -201 256zM98 174q0 147 123 203q102 43 314 78q6 2 16 3t21.5 3t17.5 4q14 6 14 29l4 106q0 117 -67.5 169t-130.5 52q-147 0 -148 -123l8 -73 q0 -41 -37 -41q-29 0 -63 10q-63 20 -64 70q0 80 108 152.5t216.5 72.5t170 -20.5t91 -46t45.5 -68.5q20 -51 20.5 -161t-4.5 -195t-5 -154.5t16 -113.5t38.5 -56.5t45.5 -14.5q55 -4 55 -32q0 -43 -129 -43q-53 0 -91 28.5t-54.5 56t-18.5 27.5t-16 -13t-40 -31.5 t-58 -37.5q-76 -45 -156 -45q-242 0 -242 205zM258 198.5q0 -63.5 41 -105.5t105.5 -42t102.5 16.5t56.5 37t28.5 55.5q12 39 12 100v148q0 18 -14 18l-21 -4q-47 -8 -59 -10t-57 -12.5t-62.5 -18.5t-49.5 -25.5t-46 -36.5q-37 -57 -37 -120.5z" />
<glyph unicode="&#xe1;" horiz-adv-x="944" d="M377 1006q0 10 14 30q66 98 139 281q16 39 41 39t67 -13.5t42 -39.5q0 -47 -199 -256q-59 -63 -81.5 -63.5t-22.5 22.5zM98 174q0 147 123 203q102 43 314 78q6 2 16 3t21.5 3t17.5 4q14 6 14 29l4 106q0 117 -67.5 169t-130.5 52q-147 0 -148 -123l8 -73q0 -41 -37 -41 q-29 0 -63 10q-63 20 -64 70q0 80 108 152.5t216.5 72.5t170 -20.5t91 -46t45.5 -68.5q20 -51 20.5 -161t-4.5 -195t-5 -154.5t16 -113.5t38.5 -56.5t45.5 -14.5q55 -4 55 -32q0 -43 -129 -43q-53 0 -91 28.5t-54.5 56t-18.5 27.5t-16 -13t-40 -31.5t-58 -37.5 q-76 -45 -156 -45q-242 0 -242 205zM258 198.5q0 -63.5 41 -105.5t105.5 -42t102.5 16.5t56.5 37t28.5 55.5q12 39 12 100v148q0 18 -14 18l-21 -4q-47 -8 -59 -10t-57 -12.5t-62.5 -18.5t-49.5 -25.5t-46 -36.5q-37 -57 -37 -120.5z" />
<glyph unicode="&#xe2;" horiz-adv-x="944" d="M225 1022q0 2 8 18q127 186 145.5 227.5t24.5 47.5q10 12 23 12h51q23 0 35 -22q51 -90 113.5 -181.5t62.5 -99.5q0 -16 -18.5 -16t-113.5 87t-104.5 87t-100.5 -86t-108.5 -86t-17.5 12zM98 174q0 147 123 203q102 43 314 78q6 2 16 3t21.5 3t17.5 4q14 6 14 29l4 106 q0 117 -67.5 169t-130.5 52q-147 0 -148 -123l8 -73q0 -41 -37 -41q-29 0 -63 10q-63 20 -64 70q0 80 108 152.5t216.5 72.5t170 -20.5t91 -46t45.5 -68.5q20 -51 20.5 -161t-4.5 -195t-5 -154.5t16 -113.5t38.5 -56.5t45.5 -14.5q55 -4 55 -32q0 -43 -129 -43 q-53 0 -91 28.5t-54.5 56t-18.5 27.5t-16 -13t-40 -31.5t-58 -37.5q-76 -45 -156 -45q-242 0 -242 205zM258 198.5q0 -63.5 41 -105.5t105.5 -42t102.5 16.5t56.5 37t28.5 55.5q12 39 12 100v148q0 18 -14 18l-21 -4q-47 -8 -59 -10t-57 -12.5t-62.5 -18.5t-49.5 -25.5 t-46 -36.5q-37 -57 -37 -120.5z" />
<glyph unicode="&#xe3;" horiz-adv-x="944" d="M153 1085q0 35 69 126.5t124 91.5t133 -49.5t123 -49.5t87 57.5t46 57.5q20 0 20 -31t-67.5 -117t-124.5 -86t-138 49.5t-118 49.5t-64.5 -29t-45 -57.5t-23.5 -28.5q-21 0 -21 16zM98 174q0 147 123 203q102 43 314 78q6 2 16 3t21.5 3t17.5 4q14 6 14 29l4 106 q0 117 -67.5 169t-130.5 52q-147 0 -148 -123l8 -73q0 -41 -37 -41q-29 0 -63 10q-63 20 -64 70q0 80 108 152.5t216.5 72.5t170 -20.5t91 -46t45.5 -68.5q20 -51 20.5 -161t-4.5 -195t-5 -154.5t16 -113.5t38.5 -56.5t45.5 -14.5q55 -4 55 -32q0 -43 -129 -43 q-53 0 -91 28.5t-54.5 56t-18.5 27.5t-16 -13t-40 -31.5t-58 -37.5q-76 -45 -156 -45q-242 0 -242 205zM258 198.5q0 -63.5 41 -105.5t105.5 -42t102.5 16.5t56.5 37t28.5 55.5q12 39 12 100v148q0 18 -14 18l-21 -4q-47 -8 -59 -10t-57 -12.5t-62.5 -18.5t-49.5 -25.5 t-46 -36.5q-37 -57 -37 -120.5z" />
<glyph unicode="&#xe4;" horiz-adv-x="944" d="M217 1210.5q0 28.5 31.5 66.5t65.5 38t65.5 -36t31.5 -68.5t-35.5 -70.5t-52.5 -38q-41 0 -73.5 40t-32.5 68.5zM545 1210.5q0 28.5 31.5 66.5t65.5 38t65.5 -36t31.5 -68.5t-36 -70.5t-54 -38q-41 0 -72.5 40t-31.5 68.5zM98 174q0 147 123 203q102 43 314 78q6 2 16 3 t21.5 3t17.5 4q14 6 14 29l4 106q0 117 -67.5 169t-130.5 52q-147 0 -148 -123l8 -73q0 -41 -37 -41q-29 0 -63 10q-63 20 -64 70q0 80 108 152.5t216.5 72.5t170 -20.5t91 -46t45.5 -68.5q20 -51 20.5 -161t-4.5 -195t-5 -154.5t16 -113.5t38.5 -56.5t45.5 -14.5 q55 -4 55 -32q0 -43 -129 -43q-53 0 -91 28.5t-54.5 56t-18.5 27.5t-16 -13t-40 -31.5t-58 -37.5q-76 -45 -156 -45q-242 0 -242 205zM258 198.5q0 -63.5 41 -105.5t105.5 -42t102.5 16.5t56.5 37t28.5 55.5q12 39 12 100v148q0 18 -14 18l-21 -4q-47 -8 -59 -10t-57 -12.5 t-62.5 -18.5t-49.5 -25.5t-46 -36.5q-37 -57 -37 -120.5z" />
<glyph unicode="&#xe5;" horiz-adv-x="944" d="M299 1221q0 43 47 95t117.5 52t108.5 -55.5t38 -120t-58.5 -106.5t-108.5 -42t-88 34t-47 67t-9 76zM377 1206q0 -35 22.5 -58.5t45 -23.5t37.5 5.5t32.5 25t17.5 49.5q0 84 -76 84q-29 0 -54 -23.5t-25 -58.5zM98 174q0 147 123 203q102 43 314 78q6 2 16 3t21.5 3 t17.5 4q14 6 14 29l4 106q0 117 -67.5 169t-130.5 52q-147 0 -148 -123l8 -73q0 -41 -37 -41q-29 0 -63 10q-63 20 -64 70q0 80 108 152.5t216.5 72.5t170 -20.5t91 -46t45.5 -68.5q20 -51 20.5 -161t-4.5 -195t-5 -154.5t16 -113.5t38.5 -56.5t45.5 -14.5q55 -4 55 -32 q0 -43 -129 -43q-53 0 -91 28.5t-54.5 56t-18.5 27.5t-16 -13t-40 -31.5t-58 -37.5q-76 -45 -156 -45q-242 0 -242 205zM258 198.5q0 -63.5 41 -105.5t105.5 -42t102.5 16.5t56.5 37t28.5 55.5q12 39 12 100v148q0 18 -14 18l-21 -4q-47 -8 -59 -10t-57 -12.5t-62.5 -18.5 t-49.5 -25.5t-46 -36.5q-37 -57 -37 -120.5z" />
<glyph unicode="&#xe6;" horiz-adv-x="1480" d="M98 174q0 145 123 203q94 41 214 61.5t141.5 24.5t26.5 21.5t5 106.5t-39 142q-61 88 -159 88q-147 0 -148 -123l8 -73q0 -41 -37 -41q-29 0 -63 10q-63 20 -64 70q0 80 108 152.5t237 72.5q180 0 249 -78q16 -18 24.5 -30.5t11.5 -12.5t16.5 12.5t37 29.5t54.5 34 q80 41 172 41t162.5 -31t109.5 -75t66 -93q45 -84 45 -127q0 -37 -84 -37h-527q-16 0 -19 -3t-3 -19q0 -193 103.5 -303.5t240.5 -110.5q86 0 176 46t94 46q20 0 21 -18q0 -25 -45 -67t-86 -68q-98 -63 -232 -64q-152 0 -243 64q-68 47 -95.5 81.5t-29.5 34.5t-15.5 -17.5 t-38 -43t-59.5 -51.5q-82 -59 -217 -60q-242 0 -242 205zM258 205q0 -70 41 -112t105.5 -42t102.5 16.5t56.5 37t28.5 55.5q12 39 12 100v148q0 18 -8 18q-131 -16 -207 -47q-131 -55 -131 -174zM778 600q0 -29 27 -29l360 13q29 0 36 5t7 19q0 61 -57 143.5t-159.5 82.5 t-158 -81t-55.5 -153z" />
<glyph unicode="&#xe7;" horiz-adv-x="925" d="M416 -162q0 6 22.5 22.5t34.5 26.5q23 23 39.5 23t39 -11.5t48 -42t25.5 -71.5q0 -88 -65.5 -142.5t-94 -54.5t-28.5 14q0 6 22 19q63 33 64 94q0 57 -80 94q-27 13 -27 29zM80 390q0 200 132 344.5t343 144.5q72 0 155 -20.5t85 -47.5q4 -49 4 -117.5t-23 -68.5 q-20 0 -37 26q-35 59 -132 103.5t-171 44.5q-41 0 -80 -31t-63 -68q-59 -86 -59.5 -243.5t101 -275.5t249.5 -118q72 0 133 27t95 53.5t42 26.5q23 0 23 -20t-43 -62.5t-84 -67.5q-100 -63 -246 -63q-193 0 -308.5 116.5t-115.5 316.5z" />
<glyph unicode="&#xe8;" horiz-adv-x="954" d="M250 1303q0 27 43 40t66.5 13t46 -54.5t50.5 -111.5t45 -86t30 -49l18 -31q6 -10 6 -18q0 -23 -22.5 -23t-81.5 64q-201 211 -201 256zM80 392q0 210 115.5 351.5t300.5 141.5q86 0 156.5 -31t109.5 -75t65 -93q45 -84 45 -127q0 -37 -84 -37h-526q-16 0 -19 -3t-3 -19 q0 -193 103 -303.5t243 -110.5q86 0 175 46t93 46q20 0 20 -18q0 -25 -45 -67t-86 -68q-98 -63 -231 -64q-180 0 -306 110.5t-126 320.5zM252 600q0 -29 27 -29l360 13q29 0 36 5t7 19q0 61 -57.5 143.5t-160 82.5t-157.5 -81t-55 -153z" />
<glyph unicode="&#xe9;" horiz-adv-x="954" d="M398 1006q0 10 14 30q66 98 139 281q16 39 41 39t67 -13.5t42 -39.5q0 -47 -199 -256q-59 -63 -81.5 -63.5t-22.5 22.5zM80 392q0 210 115.5 351.5t300.5 141.5q86 0 156.5 -31t109.5 -75t65 -93q45 -84 45 -127q0 -37 -84 -37h-526q-16 0 -19 -3t-3 -19 q0 -193 103 -303.5t243 -110.5q86 0 175 46t93 46q20 0 20 -18q0 -25 -45 -67t-86 -68q-98 -63 -231 -64q-180 0 -306 110.5t-126 320.5zM252 600q0 -29 27 -29l360 13q29 0 36 5t7 19q0 61 -57.5 143.5t-160 82.5t-157.5 -81t-55 -153z" />
<glyph unicode="&#xea;" horiz-adv-x="954" d="M246 1022q0 2 8 18q127 186 145.5 227.5t24.5 47.5q10 12 23 12h51q23 0 35 -22q51 -90 113.5 -181.5t62.5 -99.5q0 -16 -18.5 -16t-113.5 87t-104.5 87t-100.5 -86t-108.5 -86t-17.5 12zM80 392q0 210 115.5 351.5t300.5 141.5q86 0 156.5 -31t109.5 -75t65 -93 q45 -84 45 -127q0 -37 -84 -37h-526q-16 0 -19 -3t-3 -19q0 -193 103 -303.5t243 -110.5q86 0 175 46t93 46q20 0 20 -18q0 -25 -45 -67t-86 -68q-98 -63 -231 -64q-180 0 -306 110.5t-126 320.5zM252 600q0 -29 27 -29l360 13q29 0 36 5t7 19q0 61 -57.5 143.5t-160 82.5 t-157.5 -81t-55 -153z" />
<glyph unicode="&#xeb;" horiz-adv-x="954" d="M238 1210.5q0 28.5 31.5 66.5t65.5 38t65.5 -36t31.5 -68.5t-35.5 -70.5t-52.5 -38q-41 0 -73.5 40t-32.5 68.5zM566 1210.5q0 28.5 31.5 66.5t65.5 38t65.5 -36t31.5 -68.5t-36 -70.5t-54 -38q-41 0 -72.5 40t-31.5 68.5zM80 392q0 210 115.5 351.5t300.5 141.5 q86 0 156.5 -31t109.5 -75t65 -93q45 -84 45 -127q0 -37 -84 -37h-526q-16 0 -19 -3t-3 -19q0 -193 103 -303.5t243 -110.5q86 0 175 46t93 46q20 0 20 -18q0 -25 -45 -67t-86 -68q-98 -63 -231 -64q-180 0 -306 110.5t-126 320.5zM252 600q0 -29 27 -29l360 13q29 0 36 5 t7 19q0 61 -57.5 143.5t-160 82.5t-157.5 -81t-55 -153z" />
<glyph unicode="&#xec;" horiz-adv-x="581" d="M29 1303q0 27 43 40t66.5 13t46 -54.5t50.5 -111.5t45 -86t30 -49l18 -31q6 -10 6 -18q0 -23 -22.5 -23t-81.5 64q-201 211 -201 256zM74 779.5q0 11.5 5 17.5t20.5 13t31.5 13q57 16 94 32.5t56.5 25t25.5 12.5q14 6 35 6q31 0 31 -39l-13 -98v-561q0 -61 18.5 -96 t44.5 -43.5t52 -8.5q61 -4 62 -33q0 -35 -35 -34l-31 2l-145 4l-146 -4q-82 0 -82 27.5t31 37.5q2 0 8 2q47 16 61.5 49t14.5 318v180q0 59 -14.5 94t-26.5 43.5t-42 13.5t-43 10t-13 16.5z" />
<glyph unicode="&#xed;" horiz-adv-x="581" d="M177 1006q0 10 14 30q66 98 139 281q16 39 41 39t67 -13.5t42 -39.5q0 -47 -199 -256q-59 -63 -81.5 -63.5t-22.5 22.5zM74 779.5q0 11.5 5 17.5t20.5 13t31.5 13q57 16 94 32.5t56.5 25t25.5 12.5q14 6 35 6q31 0 31 -39l-13 -98v-561q0 -61 18.5 -96t44.5 -43.5 t52 -8.5q61 -4 62 -33q0 -35 -35 -34l-31 2l-145 4l-146 -4q-82 0 -82 27.5t31 37.5q2 0 8 2q47 16 61.5 49t14.5 318v180q0 59 -14.5 94t-26.5 43.5t-42 13.5t-43 10t-13 16.5z" />
<glyph unicode="&#xee;" horiz-adv-x="581" d="M25 1022q0 2 8 18q127 186 145.5 227.5t24.5 47.5q10 12 23 12h51q23 0 35 -22q51 -90 113.5 -181.5t62.5 -99.5q0 -16 -18.5 -16t-113.5 87t-104.5 87t-100.5 -86t-108.5 -86t-17.5 12zM74 779.5q0 11.5 5 17.5t20.5 13t31.5 13q57 16 94 32.5t56.5 25t25.5 12.5 q14 6 35 6q31 0 31 -39l-13 -98v-561q0 -61 18.5 -96t44.5 -43.5t52 -8.5q61 -4 62 -33q0 -35 -35 -34l-31 2l-145 4l-146 -4q-82 0 -82 27.5t31 37.5q2 0 8 2q47 16 61.5 49t14.5 318v180q0 59 -14.5 94t-26.5 43.5t-42 13.5t-43 10t-13 16.5z" />
<glyph unicode="&#xef;" horiz-adv-x="581" d="M17 1210.5q0 28.5 31.5 66.5t65.5 38t65.5 -36t31.5 -68.5t-35.5 -70.5t-52.5 -38q-41 0 -73.5 40t-32.5 68.5zM345 1210.5q0 28.5 31.5 66.5t65.5 38t65.5 -36t31.5 -68.5t-36 -70.5t-54 -38q-41 0 -72.5 40t-31.5 68.5zM74 779.5q0 11.5 5 17.5t20.5 13t31.5 13 q57 16 94 32.5t56.5 25t25.5 12.5q14 6 35 6q31 0 31 -39l-13 -98v-561q0 -61 18.5 -96t44.5 -43.5t52 -8.5q61 -4 62 -33q0 -35 -35 -34l-31 2l-145 4l-146 -4q-82 0 -82 27.5t31 37.5q2 0 8 2q47 16 61.5 49t14.5 318v180q0 59 -14.5 94t-26.5 43.5t-42 13.5t-43 10 t-13 16.5z" />
<glyph unicode="&#xf0;" horiz-adv-x="1120" d="M80 417.5q0 186.5 128 326t355 139.5q76 0 166 -49q27 -14 64.5 -49t45 -35t7.5 16t-31 86t-74 142.5t-86 131t-55 58.5q-2 0 -27 -8l-290 -117l-4 -2h-7q-18 0 -30.5 20.5t-12.5 36.5t19 25l272 110q18 6 18.5 12.5t-18.5 24.5q-82 92 -164 144.5t-118.5 66.5t-36.5 25 q0 25 49 24h49q59 0 152.5 -52t158 -114.5t71.5 -62.5t32 8l250 100q25 10 34 11q18 0 27.5 -23.5t9.5 -36.5q0 -20 -41 -37l-215 -86q-29 -10 -28.5 -14t30 -40t72.5 -102.5t86 -153.5t72.5 -214t29.5 -260q0 -227 -140 -366.5t-356 -139.5t-340 134t-124 320.5zM242 466.5 q0 -192.5 112.5 -317t242.5 -124.5t212 89t82 255t-47 262q-14 31 -61.5 75t-80.5 64q-84 57 -189 57t-188 -84t-83 -276.5z" />
<glyph unicode="&#xf1;" horiz-adv-x="1210" d="M319 1085q0 35 69 126.5t124 91.5t133 -49.5t123 -49.5t87 57.5t46 57.5q20 0 20 -31t-67.5 -117t-124.5 -86t-138 49.5t-118 49.5t-64.5 -29t-45 -57.5t-23.5 -28.5q-21 0 -21 16zM63 799q0 20 44.5 26t70 13.5t67.5 25t67.5 29.5t33.5 12h4q18 0 19 -24l-4 -88 q0 -53 8 -53.5t16 10.5q31 43 82 73q92 57 176 57.5t149.5 -25.5t102.5 -63.5t62 -86.5q41 -82 40 -168v-21l3 -108v-209q0 -78 21.5 -108t102.5 -42q41 -6 41 -31q0 -20 -41 -20l-167 10l-158 -8q-41 0 -41 27q0 18 24 24l27 6q45 14 45 138v276q0 158 -78 239t-176 81 t-163.5 -47.5t-80 -88.5t-14.5 -313v-78q0 -102 21.5 -151.5t95.5 -55.5q20 0 52 -7t32 -23q0 -27 -39 -27l-150 8q-53 0 -141 -4l-88 -4q-31 0 -31 18.5t10.5 22.5t26 6t29.5 12q39 25 43 149t4 163v295q0 66 -23.5 88t-64.5 22h-21q-39 0 -39 23z" />
<glyph unicode="&#xf2;" horiz-adv-x="1120" d="M319 1303q0 27 43 40t66.5 13t46 -54.5t50.5 -111.5t45 -86t30 -49l18 -31q6 -10 6 -18q0 -23 -22.5 -23t-81.5 64q-201 211 -201 256zM80 417.5q0 186.5 128 326t338 139.5t352 -121t142 -336t-146 -339t-356 -124t-334 134t-124 320.5zM242 466.5q0 -192.5 112.5 -317 t242.5 -124.5t210 89t80 261t-98.5 312t-274.5 140q-106 0 -189 -84t-83 -276.5z" />
<glyph unicode="&#xf3;" horiz-adv-x="1120" d="M467 1006q0 10 14 30q66 98 139 281q16 39 41 39t67 -13.5t42 -39.5q0 -47 -199 -256q-59 -63 -81.5 -63.5t-22.5 22.5zM80 417.5q0 186.5 128 326t338 139.5t352 -121t142 -336t-146 -339t-356 -124t-334 134t-124 320.5zM242 466.5q0 -192.5 112.5 -317t242.5 -124.5 t210 89t80 261t-98.5 312t-274.5 140q-106 0 -189 -84t-83 -276.5z" />
<glyph unicode="&#xf4;" horiz-adv-x="1120" d="M315 1022q0 2 8 18q127 186 145.5 227.5t24.5 47.5q10 12 23 12h51q23 0 35 -22q51 -90 113.5 -181.5t62.5 -99.5q0 -16 -18.5 -16t-113.5 87t-104.5 87t-100.5 -86t-108.5 -86t-17.5 12zM80 417.5q0 186.5 128 326t338 139.5t352 -121t142 -336t-146 -339t-356 -124 t-334 134t-124 320.5zM242 466.5q0 -192.5 112.5 -317t242.5 -124.5t210 89t80 261t-98.5 312t-274.5 140q-106 0 -189 -84t-83 -276.5z" />
<glyph unicode="&#xf5;" horiz-adv-x="1120" d="M243 1085q0 35 69 126.5t124 91.5t133 -49.5t123 -49.5t87 57.5t46 57.5q20 0 20 -31t-67.5 -117t-124.5 -86t-138 49.5t-118 49.5t-64.5 -29t-45 -57.5t-23.5 -28.5q-21 0 -21 16zM80 417.5q0 186.5 128 326t338 139.5t352 -121t142 -336t-146 -339t-356 -124t-334 134 t-124 320.5zM242 466.5q0 -192.5 112.5 -317t242.5 -124.5t210 89t80 261t-98.5 312t-274.5 140q-106 0 -189 -84t-83 -276.5z" />
<glyph unicode="&#xf6;" horiz-adv-x="1120" d="M307 1210.5q0 28.5 31.5 66.5t65.5 38t65.5 -36t31.5 -68.5t-35.5 -70.5t-52.5 -38q-41 0 -73.5 40t-32.5 68.5zM635 1210.5q0 28.5 31.5 66.5t65.5 38t65.5 -36t31.5 -68.5t-36 -70.5t-54 -38q-41 0 -72.5 40t-31.5 68.5zM80 417.5q0 186.5 128 326t338 139.5t352 -121 t142 -336t-146 -339t-356 -124t-334 134t-124 320.5zM242 466.5q0 -192.5 112.5 -317t242.5 -124.5t210 89t80 261t-98.5 312t-274.5 140q-106 0 -189 -84t-83 -276.5z" />
<glyph unicode="&#xf7;" d="M434 655.5q0 32.5 25.5 58t59.5 25.5t58.5 -23.5t24.5 -58t-24.5 -59.5t-59.5 -25t-59.5 25t-24.5 57.5zM444 206q0 34 25 58.5t58.5 24.5t59 -25.5t25.5 -58.5t-23.5 -57.5t-58 -24.5t-60.5 24.5t-26 58.5zM63 431.5q0 19.5 3 27.5q2 16 34 16h883q29 0 33 -16v-32 q0 -24 -6 -33t-37 -9h-875q-31 0 -32 21q-3 6 -3 25.5z" />
<glyph unicode="&#xf8;" horiz-adv-x="1120" d="M80 416q0 188 128 327.5t355 139.5q51 0 96.5 -9.5t47.5 -9.5q12 0 24 27q47 100 56.5 116.5t22.5 16.5t36.5 -10t23.5 -27l-65 -149q0 -14 20 -25q215 -123 215 -385q0 -217 -146 -341t-345 -124q-55 0 -93 7t-45.5 7t-13.5 -14q-90 -176 -96 -178q-16 0 -40.5 11 t-24.5 28l79 180q0 12 -18 21q-106 59 -161.5 164.5t-55.5 226.5zM242 485q0 -106 33.5 -194t62.5 -123t35 -35t12 17l281 600q2 6 7 14t5 12q0 16 -53.5 33.5t-110.5 17.5q-106 0 -189 -84t-83 -258zM453 76q0 -14 53 -32.5t104 -18.5q117 0 197 89t80 253q0 100 -32 189 t-61.5 128t-34.5 39t-11 -12q-211 -465 -289 -621z" />
<glyph unicode="&#xf9;" horiz-adv-x="1179" d="M348 1303q0 27 43 40t66.5 13t46 -54.5t50.5 -111.5t45 -86t30 -49l18 -31q6 -10 6 -18q0 -23 -22.5 -23t-81.5 64q-201 211 -201 256zM59 807q0 29 40 37t98 8l116 10q35 0 41 -14t6 -71.5t-5 -157t-5 -220.5q0 -180 69.5 -254.5t158.5 -74.5q131 0 190 55t59 194 l-4 283q0 102 -16 138t-69.5 41t-53.5 28q0 47 180 47l74 10q31 0 40 -10t9 -29.5t-1 -49t-2 -79t-3 -110.5q-4 -123 -4 -274.5t12 -196.5t45 -45l53 2q49 0 49.5 -24.5t-14 -31t-55.5 -6.5t-124 -11t-89 -11q-14 0 -23.5 52t-12.5 52t-40 -32.5t-105.5 -65.5t-150.5 -33 q-330 0 -329 356l2 369q0 41 -21.5 65.5t-40.5 24.5h-37q-37 0 -37 29z" />
<glyph unicode="&#xfa;" horiz-adv-x="1179" d="M496 1006q0 10 14 30q66 98 139 281q16 39 41 39t67 -13.5t42 -39.5q0 -47 -199 -256q-59 -63 -81.5 -63.5t-22.5 22.5zM59 807q0 29 40 37t98 8l116 10q35 0 41 -14t6 -71.5t-5 -157t-5 -220.5q0 -180 69.5 -254.5t158.5 -74.5q131 0 190 55t59 194l-4 283 q0 102 -16 138t-69.5 41t-53.5 28q0 47 180 47l74 10q31 0 40 -10t9 -29.5t-1 -49t-2 -79t-3 -110.5q-4 -123 -4 -274.5t12 -196.5t45 -45l53 2q49 0 49.5 -24.5t-14 -31t-55.5 -6.5t-124 -11t-89 -11q-14 0 -23.5 52t-12.5 52t-40 -32.5t-105.5 -65.5t-150.5 -33 q-330 0 -329 356l2 369q0 41 -21.5 65.5t-40.5 24.5h-37q-37 0 -37 29z" />
<glyph unicode="&#xfb;" horiz-adv-x="1179" d="M344 1022q0 2 8 18q127 186 145.5 227.5t24.5 47.5q10 12 23 12h51q23 0 35 -22q51 -90 113.5 -181.5t62.5 -99.5q0 -16 -18.5 -16t-113.5 87t-104.5 87t-100.5 -86t-108.5 -86t-17.5 12zM59 807q0 29 40 37t98 8l116 10q35 0 41 -14t6 -71.5t-5 -157t-5 -220.5 q0 -180 69.5 -254.5t158.5 -74.5q131 0 190 55t59 194l-4 283q0 102 -16 138t-69.5 41t-53.5 28q0 47 180 47l74 10q31 0 40 -10t9 -29.5t-1 -49t-2 -79t-3 -110.5q-4 -123 -4 -274.5t12 -196.5t45 -45l53 2q49 0 49.5 -24.5t-14 -31t-55.5 -6.5t-124 -11t-89 -11 q-14 0 -23.5 52t-12.5 52t-40 -32.5t-105.5 -65.5t-150.5 -33q-330 0 -329 356l2 369q0 41 -21.5 65.5t-40.5 24.5h-37q-37 0 -37 29z" />
<glyph unicode="&#xfc;" horiz-adv-x="1179" d="M336 1210.5q0 28.5 31.5 66.5t65.5 38t65.5 -36t31.5 -68.5t-35.5 -70.5t-52.5 -38q-41 0 -73.5 40t-32.5 68.5zM664 1210.5q0 28.5 31.5 66.5t65.5 38t65.5 -36t31.5 -68.5t-36 -70.5t-54 -38q-41 0 -72.5 40t-31.5 68.5zM59 807q0 29 40 37t98 8l116 10q35 0 41 -14 t6 -71.5t-5 -157t-5 -220.5q0 -180 69.5 -254.5t158.5 -74.5q131 0 190 55t59 194l-4 283q0 102 -16 138t-69.5 41t-53.5 28q0 47 180 47l74 10q31 0 40 -10t9 -29.5t-1 -49t-2 -79t-3 -110.5q-4 -123 -4 -274.5t12 -196.5t45 -45l53 2q49 0 49.5 -24.5t-14 -31t-55.5 -6.5 t-124 -11t-89 -11q-14 0 -23.5 52t-12.5 52t-40 -32.5t-105.5 -65.5t-150.5 -33q-330 0 -329 356l2 369q0 41 -21.5 65.5t-40.5 24.5h-37q-37 0 -37 29z" />
<glyph unicode="&#xfd;" horiz-adv-x="1019" d="M453 1006q0 10 14 30q66 98 139 281q16 39 41 39t67 -13.5t42 -39.5q0 -47 -199 -256q-59 -63 -81.5 -63.5t-22.5 22.5zM41 841.5q0 26.5 41 26.5l219 -4l117 4q14 0 25.5 -7t11.5 -15q0 -37 -49 -37h-31q-33 0 -33 -51q0 -61 109 -295q16 -35 49 -111q61 -139 73.5 -139 t95.5 235.5t83 280.5t-19.5 63.5t-44.5 18.5h-11q-52 0 -52 35q0 25 39 24l147 -2l127 2q43 0 43 -26q0 -20 -36 -29.5t-48 -26.5q-33 -47 -111 -258l-182 -485q-23 -59 -45 -121.5t-37 -101.5l-28 -78q-14 -39 -22.5 -60.5t-16.5 -39.5q-16 -33 -31 -33h-6l-88 -2 q-39 0 -39 26q0 6 46 63.5t93 141.5t47 148.5t-116.5 318.5t-202.5 416q-23 41 -46.5 63.5t-37.5 24.5q-33 4 -33 30.5z" />
<glyph unicode="&#xfe;" horiz-adv-x="1114" d="M41 1417.5q0 14.5 3 20.5t13.5 11t24.5 9q59 12 123 43q100 47 131 47q25 0 24 -39q0 -8 -4 -47q-12 -121 -12 -264v-115l-2 -280q0 -57 3 -57.5t40 35.5t109.5 72t162.5 36q182 0 279.5 -120t97.5 -301t-119.5 -333.5t-320.5 -152.5q-94 0 -152.5 19t-81 38.5 t-29.5 19.5t-7 -16v-252q0 -41 32 -96q23 -37 69 -43t79 -8t33 -28t-70 -26q-12 0 -65.5 4.5t-147.5 4.5l-129 -7q-72 0 -72 19.5t20.5 28t44 14.5t44 50t20.5 128v41l6 565v45l7 781q0 47 -15.5 84.5t-34 46t-82.5 8.5q-22 0 -22 14.5zM324 393l2 -102q0 -72 30.5 -123 t77.5 -78q92 -47 193 -47q133 0 202.5 97.5t69.5 249t-86 274t-233 122.5q-106 0 -189 -65q-41 -33 -54 -88.5t-13 -239.5z" />
<glyph unicode="&#xff;" horiz-adv-x="1019" d="M293 1210.5q0 28.5 31.5 66.5t65.5 38t65.5 -36t31.5 -68.5t-35.5 -70.5t-52.5 -38q-41 0 -73.5 40t-32.5 68.5zM621 1210.5q0 28.5 31.5 66.5t65.5 38t65.5 -36t31.5 -68.5t-36 -70.5t-54 -38q-41 0 -72.5 40t-31.5 68.5zM41 841.5q0 26.5 41 26.5l219 -4l117 4 q14 0 25.5 -7t11.5 -15q0 -37 -49 -37h-31q-33 0 -33 -51q0 -61 109 -295q16 -35 49 -111q61 -139 73.5 -139t95.5 235.5t83 280.5t-19.5 63.5t-44.5 18.5h-11q-52 0 -52 35q0 25 39 24l147 -2l127 2q43 0 43 -26q0 -20 -36 -29.5t-48 -26.5q-33 -47 -111 -258l-182 -485 q-23 -59 -45 -121.5t-37 -101.5l-28 -78q-14 -39 -22.5 -60.5t-16.5 -39.5q-16 -33 -31 -33h-6l-88 -2q-39 0 -39 26q0 6 46 63.5t93 141.5t47 148.5t-116.5 318.5t-202.5 416q-23 41 -46.5 63.5t-37.5 24.5q-33 4 -33 30.5z" />
<glyph unicode="&#x131;" horiz-adv-x="581" d="M74 779.5q0 11.5 5 17.5t20.5 13t31.5 13q57 16 94 32.5t56.5 25t25.5 12.5q14 6 35 6q31 0 31 -39l-13 -98v-561q0 -61 18.5 -96t44.5 -43.5t52 -8.5q61 -4 62 -33q0 -35 -35 -34l-31 2l-145 4l-146 -4q-82 0 -82 27.5t31 37.5q2 0 8 2q47 16 61.5 49t14.5 318v180 q0 59 -14.5 94t-26.5 43.5t-42 13.5t-43 10t-13 16.5z" />
<glyph unicode="&#x152;" horiz-adv-x="2134" d="M90 694q0 344 207 564.5t586 220.5q47 0 203.5 -16.5t463.5 -16.5l412 8q37 0 37 -47q0 -12 -12.5 -81t-12.5 -107q0 -66 -30.5 -66t-30.5 49t-36 94t-87 47q-184 14 -283 15h-51q-106 0 -124.5 -16.5t-23.5 -118t-5 -332.5q0 -102 36 -105h201q123 0 164 8.5t68.5 27 t39 40t13.5 35.5q4 39 30 39q18 0 22.5 -6t4.5 -23.5t-9 -97.5t-9 -121l8 -125q0 -51 -14 -51q-29 0 -49.5 66.5t-47.5 83.5q-43 29 -151 28h-148l-65 2h-13q-84 0 -84 -39l-4 -295l-2 -82q0 -147 50.5 -162.5t87.5 -15.5q182 0 309 20.5t182 49.5t83 56.5t39 48t26 20.5 q25 0 24 -35q0 -88 -89 -178t-155 -90q-147 0 -331.5 10t-255 10t-194.5 -21.5t-216 -21.5q-244 0 -421 106.5t-260 268.5t-83 352zM270 799q0 -182 97 -373q51 -102 123.5 -183t184 -133.5t216 -52.5t149.5 16.5t54 28.5q43 57 43 371v254l6 354v146q0 43 -13.5 71.5 t-19.5 32.5q-133 66 -297 66q-225 0 -384 -151.5t-159 -446.5z" />
<glyph unicode="&#x153;" horiz-adv-x="1759" d="M80 417.5q0 186.5 128 326t358.5 139.5t367.5 -156q20 -25 23.5 -35t5.5 -10l10 18q33 66 120 125.5t190 59.5t174 -31t110 -75t65 -93q45 -84 45 -127q0 -37 -84 -37h-526q-16 0 -19.5 -3t-3.5 -19q0 -193 103.5 -303.5t243.5 -110.5q86 0 176 46t94 46q18 0 18 -18 q0 -25 -45 -67t-86 -68q-98 -63 -231 -64q-213 0 -336 143q-12 12 -21.5 31t-11.5 19l-18 -27q-37 -51 -138.5 -107.5t-242.5 -56.5q-221 0 -345 134t-124 320.5zM242 466.5q0 -192.5 112.5 -317t242.5 -124.5t210 89t80 264t-100.5 312t-272.5 137q-106 0 -189 -84 t-83 -276.5zM1057 600q0 -29 26 -29l361 13q29 0 36 5t7 19q0 61 -57.5 143.5t-160 82.5t-157.5 -81t-55 -153z" />
<glyph unicode="&#x178;" horiz-adv-x="1458" d="M529 1751.5q0 28.5 31.5 66.5t65.5 38t65.5 -36t31.5 -68.5t-35.5 -70.5t-52.5 -38q-41 0 -73.5 40t-32.5 68.5zM857 1751.5q0 28.5 31.5 66.5t65.5 38t65.5 -36t31.5 -68.5t-36 -70.5t-54 -38q-41 0 -72.5 40t-31.5 68.5zM41 1407q0 25 23.5 31t103.5 6l119 -4l174 2 q102 0 102 -23.5t-43 -39t-43 -35t13.5 -52t26.5 -53t40 -59.5t63.5 -98.5t111.5 -160t86 -100.5t29.5 23.5t51.5 79t47.5 77t38 56.5t32.5 49t27.5 44t26.5 45t19 38q20 37 20 61q0 74 -94 86q-45 6 -51.5 17.5t-6.5 21.5q0 25 58 25l84 -2l217 -2q100 0 100 -31 q0 -8 -12 -14t-34.5 -16.5t-41.5 -24.5q-84 -66 -246.5 -311.5t-190.5 -280.5t-36 -84t-8 -168l2 -238v-49q0 -68 23.5 -106.5t44 -46t40.5 -7.5l41 -2q14 0 22.5 -9t8.5 -24.5t-10 -21.5t-39 -6l-205 2l-225 -8q-57 0 -57 20.5t11 27.5t37.5 9t39.5 6q86 27 86 125l4 416 q0 86 -54 168q-49 78 -128.5 194.5t-141 210t-113 143.5t-79 59t-71.5 9t-44 25z" />
<glyph unicode="&#x237;" horiz-adv-x="575" d="M47 -281q0 59 45 60q23 0 64 -44t55 -44q27 0 37 68.5t10 260.5v623q0 88 -53 111q-27 10 -64 10t-37 20q0 12 19 19q111 33 181.5 65.5t76.5 32.5q25 0 25 -47v-23l-5 -96v-663q0 -113 -20.5 -213.5t-85 -184.5t-154.5 -84t-90 56z" />
<glyph unicode="&#x2c6;" horiz-adv-x="899" d="M219 1022q0 2 8 18q127 186 145.5 227.5t24.5 47.5q10 12 23 12h51q23 0 35 -22q51 -90 113.5 -181.5t62.5 -99.5q0 -16 -18.5 -16t-113.5 87t-104.5 87t-100.5 -86t-108.5 -86t-17.5 12z" />
<glyph unicode="&#x2dc;" horiz-adv-x="899" d="M147 1085q0 35 69 126.5t124 91.5t133 -49.5t123 -49.5t87 57.5t46 57.5q20 0 20 -31t-67.5 -117t-124.5 -86t-138 49.5t-118 49.5t-64.5 -29t-45 -57.5t-23.5 -28.5q-21 0 -21 16z" />
<glyph unicode="&#x300;" horiz-adv-x="0" d="M-676 1303q0 27 43 40t66.5 13t46 -54.5t50.5 -111.5t45 -86t30 -49l18 -31q6 -10 6 -18q0 -23 -22.5 -23t-81.5 64q-201 211 -201 256z" />
<glyph unicode="&#x301;" horiz-adv-x="0" d="M-528 1006q0 10 14 30q66 98 139 281q16 39 41 39t67 -13.5t42 -39.5q0 -47 -199 -256q-59 -63 -81.5 -63.5t-22.5 22.5z" />
<glyph unicode="&#x302;" horiz-adv-x="0" d="M-680 1022q0 2 8 18q127 186 145.5 227.5t24.5 47.5q10 12 23 12h51q23 0 35 -22q51 -90 113.5 -181.5t62.5 -99.5q0 -16 -18.5 -16t-113.5 87t-104.5 87t-100.5 -86t-108.5 -86t-17.5 12z" />
<glyph unicode="&#x303;" horiz-adv-x="0" d="M-752 1085q0 35 69 126.5t124 91.5t133 -49.5t123 -49.5t87 57.5t46 57.5q20 0 20 -31t-67.5 -117t-124.5 -86t-138 49.5t-118 49.5t-64.5 -29t-45 -57.5t-23.5 -28.5q-21 0 -21 16z" />
<glyph unicode="&#x304;" horiz-adv-x="0" d="M-668 1200q0 45 33 45l371 -4q18 0 24.5 -10t6.5 -39q0 -39 -29 -39l-385 2q-21 0 -21 45z" />
<glyph unicode="&#x308;" horiz-adv-x="0" d="M-688 1210.5q0 28.5 31.5 66.5t65.5 38t65.5 -36t31.5 -68.5t-35.5 -70.5t-52.5 -38q-41 0 -73.5 40t-32.5 68.5zM-360 1210.5q0 28.5 31.5 66.5t65.5 38t65.5 -36t31.5 -68.5t-36 -70.5t-54 -38q-41 0 -72.5 40t-31.5 68.5z" />
<glyph unicode="&#x30a;" horiz-adv-x="0" d="M-606 1221q0 43 47 95t117.5 52t108.5 -55.5t38 -120t-58.5 -106.5t-108.5 -42t-88 34t-47 67t-9 76zM-528 1206q0 -35 22.5 -58.5t45 -23.5t37.5 5.5t32.5 25t17.5 49.5q0 84 -76 84q-29 0 -54 -23.5t-25 -58.5z" />
<glyph unicode="&#x315;" horiz-adv-x="0" d="M-551 1450q0 6 22.5 22.5t34.5 26.5q23 23 39.5 23t39 -11.5t48 -42t25.5 -71.5q0 -88 -65.5 -142.5t-94 -54.5t-28.5 14q0 6 22 19q63 33 64 94q0 57 -80 94q-27 13 -27 29z" />
<glyph unicode="&#x327;" horiz-adv-x="0" d="M-551 -162q0 6 22.5 22.5t34.5 26.5q23 23 39.5 23t39 -11.5t48 -42t25.5 -71.5q0 -88 -65.5 -142.5t-94 -54.5t-28.5 14q0 6 22 19q63 33 64 94q0 57 -80 94q-27 13 -27 29z" />
<glyph unicode="&#x2000;" horiz-adv-x="954" />
<glyph unicode="&#x2001;" horiz-adv-x="1908" />
<glyph unicode="&#x2002;" horiz-adv-x="954" />
<glyph unicode="&#x2003;" horiz-adv-x="1908" />
<glyph unicode="&#x2004;" horiz-adv-x="634" />
<glyph unicode="&#x2005;" horiz-adv-x="477" />
<glyph unicode="&#x2006;" horiz-adv-x="317" />
<glyph unicode="&#x2007;" horiz-adv-x="317" />
<glyph unicode="&#x2008;" horiz-adv-x="237" />
<glyph unicode="&#x2009;" horiz-adv-x="380" />
<glyph unicode="&#x200a;" horiz-adv-x="104" />
<glyph unicode="&#x2010;" horiz-adv-x="696" d="M90 297v22q0 59 19.5 76t112.5 44.5t177 57t114 41t48 11.5q45 0 45 -70v-12q0 -47 -20 -64q-18 -12 -47 -20q-121 -33 -211 -65.5t-115 -43.5q-61 -20 -92 -20t-31 43z" />
<glyph unicode="&#x2011;" horiz-adv-x="696" d="M90 297v22q0 59 19.5 76t112.5 44.5t177 57t114 41t48 11.5q45 0 45 -70v-12q0 -47 -20 -64q-18 -12 -47 -20q-121 -33 -211 -65.5t-115 -43.5q-61 -20 -92 -20t-31 43z" />
<glyph unicode="&#x2012;" horiz-adv-x="696" d="M90 297v22q0 59 19.5 76t112.5 44.5t177 57t114 41t48 11.5q45 0 45 -70v-12q0 -47 -20 -64q-18 -12 -47 -20q-121 -33 -211 -65.5t-115 -43.5q-61 -20 -92 -20t-31 43z" />
<glyph unicode="&#x2013;" horiz-adv-x="1024" d="M0 433q0 38 14.5 46t55.5 8h911q25 0 34 -10t9 -54t-43 -44h-903q-57 0 -67.5 8t-10.5 46z" />
<glyph unicode="&#x2014;" horiz-adv-x="2048" d="M0 433q0 38 14.5 46t55.5 8h1935q25 0 34 -10t9 -54t-43 -44h-1927q-57 0 -67.5 8t-10.5 46z" />
<glyph unicode="&#x2018;" horiz-adv-x="540" d="M150 1109q0 81 28.5 154.5t67.5 112.5q84 84 127 84q10 0 18 -9t8 -18.5t-17 -24.5t-40 -31.5t-40 -55.5t-17 -93t22.5 -92t48.5 -53q70 -39 70 -77q0 -12 -29.5 -42t-48.5 -51q-29 -39 -51.5 -39t-52 20.5t-62 77t-32.5 137.5z" />
<glyph unicode="&#x2019;" horiz-adv-x="540" d="M115 1323q0 18 55 74q4 4 23 24q29 39 59 39q18 0 47 -25.5t47 -50.5q43 -57 43 -148t-28.5 -165t-67.5 -113q-80 -84 -125 -84q-10 0 -18.5 9.5t-8.5 18.5t17.5 24.5t40 33t40 56.5t17.5 93t-22.5 92t-48 52.5t-48 33t-22.5 36.5z" />
<glyph unicode="&#x201a;" horiz-adv-x="540" d="M115 323.5q0 18.5 55 73.5q4 4 23 25q29 39 59 39q18 0 47 -25.5t47 -50.5q43 -57 43 -148.5t-28.5 -165t-67.5 -114.5q-80 -84 -125 -84q-10 0 -18.5 10.5t-8.5 19.5t17.5 24.5t40 31.5t40 55t17.5 93.5t-22.5 92.5t-48 52t-48 33.5t-22.5 38z" />
<glyph unicode="&#x201c;" horiz-adv-x="940" d="M551 1123.5q0 66.5 28.5 140t67.5 112.5q80 84 125 84q10 0 18.5 -9t8.5 -18.5t-18.5 -24.5t-39 -31.5t-39 -55.5t-18.5 -93t22.5 -92t47.5 -53q72 -39 71 -77q0 -12 -29.5 -42t-45.5 -51q-31 -39 -62 -39q-18 0 -47 26t-47.5 50.5t-30.5 65.5t-12 107.5zM150 1109 q0 81 28.5 154.5t67.5 112.5q84 84 127 84q10 0 18 -9t8 -18.5t-17 -24.5t-40 -31.5t-40 -55.5t-17 -93t22.5 -92t48.5 -53q70 -39 70 -77q0 -12 -29.5 -42t-48.5 -51q-29 -39 -51.5 -39t-52 20.5t-62 77t-32.5 137.5z" />
<glyph unicode="&#x201d;" horiz-adv-x="940" d="M514 1323q0 18 55 74q4 4 21 24q31 39 53.5 39t52 -20.5t62.5 -76.5t33 -137t-29 -155t-70 -113q-82 -84 -125 -84q-10 0 -18 9.5t-8 18.5t18.5 24.5t38.5 33t38.5 56.5t18.5 93t-22.5 92t-48 52.5t-48 33t-22.5 36.5zM115 1323q0 18 55 74q4 4 23 24q29 39 59 39 q18 0 47 -25.5t47 -50.5q43 -57 43 -148t-28.5 -165t-67.5 -113q-80 -84 -125 -84q-10 0 -18.5 9.5t-8.5 18.5t17.5 24.5t40 33t40 56.5t17.5 93t-22.5 92t-48 52.5t-48 33t-22.5 36.5z" />
<glyph unicode="&#x201e;" horiz-adv-x="940" d="M514 323.5q0 18.5 55 73.5q4 4 21 25q31 39 53.5 39t52 -20.5t62.5 -77t33 -137.5t-29 -154.5t-70 -114.5q-80 -84 -125 -84q-10 0 -18 10.5t-8 19.5t18.5 24.5t38.5 31.5t38.5 55t18.5 93.5t-22.5 92.5t-48 52t-48 33.5t-22.5 38zM115 323.5q0 18.5 55 73.5q4 4 23 25 q29 39 59 39q18 0 47 -25.5t47 -50.5q43 -57 43 -148.5t-28.5 -165t-67.5 -114.5q-80 -84 -125 -84q-10 0 -18.5 10.5t-8.5 19.5t17.5 24.5t40 31.5t40 55t17.5 93.5t-22.5 92.5t-48 52t-48 33.5t-22.5 38z" />
<glyph unicode="&#x2022;" horiz-adv-x="858" d="M121 678q0 127 90 217t217 90t218 -90t91 -217t-90 -218t-217 -91t-218 91t-91 218z" />
<glyph unicode="&#x2026;" horiz-adv-x="1548" d="M1143 112.5q0 24.5 63 80.5q8 8 23.5 28.5t31 31.5t31.5 11t84 -80q6 -6 25 -20q37 -35 37 -48.5t-10.5 -24.5t-30.5 -28l-31 -24q-8 -8 -23 -29q-33 -43 -53 -43t-49 36t-35 40q-63 45 -63 69.5zM627 112.5q0 24.5 63 80.5q8 8 23.5 28.5t31 31.5t31.5 11t84 -80 q6 -6 25 -20q37 -35 37 -48.5t-10.5 -24.5t-30.5 -28l-31 -24q-8 -8 -23 -29q-33 -43 -53 -43t-49 36t-35 40q-63 45 -63 69.5zM111 112.5q0 24.5 63 80.5q8 8 23.5 28.5t31 31.5t31.5 11t84 -80q6 -6 25 -20q37 -35 37 -48.5t-10.5 -24.5t-30.5 -28l-31 -24q-8 -8 -23 -29 q-33 -43 -53 -43t-49 36t-35 40q-63 45 -63 69.5z" />
<glyph unicode="&#x202f;" horiz-adv-x="380" />
<glyph unicode="&#x2039;" horiz-adv-x="466" d="M41 442.5q0 10.5 12 22.5q84 72 187.5 161t112.5 89t20.5 -13.5t11.5 -24.5t-95 -116.5t-95 -117t95 -117t95 -116.5t-12.5 -24.5t-21.5 -13.5t-112.5 91t-187.5 163q-10 6 -10 16.5z" />
<glyph unicode="&#x203a;" horiz-adv-x="466" d="M80 210q0 11 96 115.5t96 116t-95 118t-95 117.5t11 24.5t20.5 13.5t77 -59.5t88.5 -77.5q57 -51 102 -88t45 -45.5t-14 -22.5q-84 -72 -187.5 -161t-113 -89t-20.5 13.5t-11 24.5z" />
<glyph unicode="&#x2044;" horiz-adv-x="489" d="M-289 -147q0 20 212 338.5t333 498.5t245 365.5t135 203t19 31.5q31 41 43.5 41t25.5 -9t13 -21.5t-16 -38.5q-594 -887 -891 -1358q-53 -82 -64.5 -86t-19.5 -4q-35 0 -35 39z" />
<glyph unicode="&#x205f;" horiz-adv-x="477" />
<glyph unicode="&#x20ac;" horiz-adv-x="1257" d="M41 596l39 96h135q41 143 137 238q166 160 369 160q119 0 211 -37t184 -123l-45 -103q-45 74 -146.5 120t-209 46t-224 -71.5t-174.5 -229.5h699l-39 -96h-680l-2 -41l2 -39h645l-41 -98h-584q49 -147 170 -224t240 -77q150 0 248 71q53 39 96 82h6v-125 q-154 -125 -344 -125q-145 0 -289 84q-74 43 -135 124t-94 190h-168l39 98h113v80h-158z" />
<glyph unicode="&#x2122;" horiz-adv-x="3321" d="M1481 1423q0 31 37 31l108 -8l154 4q39 0 49 -29q25 -53 88.5 -191t101 -220t97 -209t96.5 -206t77 -159t61.5 -117.5t27.5 -37.5t13 7t14.5 19t12.5 24.5t14 32t14 29.5l264 545q109 221 145 309l47 103q6 16 9.5 25t5.5 14.5t4 9.5t7 18.5t11 20.5q16 16 60 16l176 -4 q35 0 34 -27q0 -20 -13 -29.5t-59 -15.5t-66.5 -51t-20.5 -246.5t12 -426t12 -281.5q0 -205 33 -261.5t137 -56.5q14 0 25.5 -10t11.5 -18q0 -33 -22 -33h-23l-209 8l-213 -10q-37 0 -37 28q0 31 56 37q20 2 43.5 25.5t33 68t9.5 122t-3 170t-7.5 179.5t-8.5 163.5t-6 125.5 l-4 50q0 88 -18 88q-6 0 -11.5 -6.5t-9.5 -10.5t-8 -13t-8 -15.5t-10.5 -17.5t-10.5 -19l-10 -23q-8 -14 -12 -24l-285 -576q-49 -100 -95 -196.5t-54.5 -109.5t-23.5 -13t-27.5 17t-37 76.5t-43.5 98.5q-375 762 -383 773t-14 11q-16 0 -16 -81l-19 -541v-92 q0 -168 68 -207q35 -20 67 -23q51 -6 51.5 -27.5t-6 -28.5t-24.5 -7l-213 8l-168 -6q-43 0 -43 33q0 27 61 28q23 2 51.5 34t41 85t27 364.5t14.5 488.5t-40 255t-173 109q-27 5 -27 30zM41 1188q0 82 10 148.5t11 76.5t2.5 13.5t2.5 10.5t3 10t5 8t7 7t10 4q12 4 39 4 t167 -8t552 -8t498 12q23 0 30.5 -12t7.5 -22l13 -166q0 -51 -6.5 -64.5t-26.5 -13.5q-16 0 -27.5 42t-23.5 64q-31 53 -178 54h-267q-49 0 -60 -19.5t-11 -111.5v-101l-6 -749l-2 -134q0 -88 27.5 -114.5t60 -39.5t55.5 -16q57 -4 57 -36q0 -23 -10 -29t-39 -6l-227 16 l-209 -14q-76 0 -76 33q0 20 12.5 27t48 12.5t46.5 7.5q70 16 77 82q20 180 21 774l-2 366q0 39 -22.5 48.5t-149.5 9.5t-200 -8.5t-85 -15.5t-29.5 -29.5t-29 -52t-15.5 -48.5q-6 -47 -39 -47q-22 0 -22 35z" />
<glyph unicode="&#x2212;" d="M63 431.5q0 19.5 3 27.5q2 16 34 16h883q29 0 33 -16v-32q0 -24 -6 -33t-37 -9h-875q-31 0 -32 21q-3 6 -3 25.5z" />
<glyph unicode="&#xe000;" horiz-adv-x="870" d="M0 870h870v-870h-870v870z" />
<glyph unicode="&#xfb01;" horiz-adv-x="1288" d="M781 779.5q0 11.5 5 17.5t20.5 13t31.5 13q57 16 94 32.5t56.5 25t25.5 12.5q14 6 35 6q31 0 31 -39l-13 -98v-561q0 -61 19.5 -96t41 -43.5t50.5 -10.5t37 -2q29 -4 29 -29q0 -35 -35 -34l-31 2l-145 4l-146 -4q-82 0 -82 27.5t31 37.5q2 0 8 2q47 16 61.5 49t14.5 318 v180q0 59 -14.5 94t-26.5 43.5t-42 13.5t-43 10t-13 16.5zM897 1205.5q0 27.5 36 71.5t68 44t62.5 -42t30.5 -75t-39 -72.5t-57 -39.5q-41 0 -71 43t-30 70.5zM59 788q0 37 17.5 49.5t68.5 12.5h43q25 0 31 11t6 36q0 150 49.5 275.5t122.5 199.5q152 158 279 158 q47 0 76.5 -15.5t29.5 -41.5q0 -8 -7 -36l-9 -36t-4 -13.5t-4 -11.5t-4 -9t-5.5 -7t-7.5 -6q-6 -4 -16 -4t-20 14q-31 39 -110 39t-123 -43t-66 -115q-43 -139 -44 -307v-51q0 -39 25 -39q180 0 219 29q14 8 22.5 8t8.5 -21.5t-29 -72.5q-12 -18 -51 -19l-160 -2 q-33 0 -32 -20v-119l10 -406q0 -109 28 -143q33 -43 101 -43q35 0 35 -31q0 -20 -23 -20l-205 10l-151 -10q-31 0 -31 28q0 10 25.5 20.5t50 38t24.5 62.5t-2 101q-6 201 -6 497q0 23 -7 28t-28 5l-82 -6q-45 -1 -45 26z" />
<glyph unicode="&#xfb02;" horiz-adv-x="1277" d="M748 1417.5q0 14.5 3 20.5t13.5 11t24.5 9q59 12 123 43q100 47 131 47q25 0 24 -39q0 -8 -4 -47q-12 -121 -12 -264v-115l-4 -272v-610q0 -43 7 -71t47 -53.5t112 -25.5q10 0 18 -10t8 -21q0 -29 -63 -28l-207 14q-53 0 -101 -8t-63.5 -8t-25 7t-9.5 18.5t9.5 18.5 t29.5 11q61 16 73.5 50t12.5 93l-2 54v151l9 871q0 47 -15.5 84.5t-34 46t-82.5 8.5q-22 0 -22 14.5zM59 788q0 37 17.5 49.5t68.5 12.5h43q25 0 31 11t6 36q0 150 49.5 275.5t122.5 199.5q152 158 279 158q47 0 76.5 -15.5t29.5 -41.5q0 -8 -7 -36l-9 -36t-4 -13.5 t-4 -11.5t-4 -9t-5.5 -7t-7.5 -6q-6 -4 -16 -4t-20 14q-31 39 -110 39t-123 -43t-66 -115q-43 -139 -44 -307v-51q0 -39 25 -39q180 0 219 29q14 8 22.5 8t8.5 -21.5t-29 -72.5q-12 -18 -51 -19l-160 -2q-33 0 -32 -20v-119l10 -406q0 -109 28 -143q33 -43 101 -43 q35 0 35 -31q0 -20 -23 -20l-205 10l-151 -10q-31 0 -31 28q0 10 25.5 20.5t50 38t24.5 62.5t-2 101q-6 201 -6 497q0 23 -7 28t-28 5l-82 -6q-45 -1 -45 26z" />
<glyph unicode="&#xfb03;" horiz-adv-x="1994" d="M1487 779.5q0 11.5 5 17.5t20.5 13t31.5 13q57 16 94 32.5t56.5 25t25.5 12.5q14 6 35 6q31 0 31 -39l-13 -98v-561q0 -61 19.5 -96t41 -43.5t50.5 -10.5t37 -2q29 -4 29 -29q0 -35 -35 -34l-31 2l-145 4l-146 -4q-82 0 -82 27.5t31 37.5q2 0 8 2q47 16 61.5 49t14.5 318 v180q0 59 -14.5 94t-26.5 43.5t-42 13.5t-43 10t-13 16.5zM1603 1205.5q0 27.5 36 71.5t68 44t62.5 -42t30.5 -75t-39 -72.5t-57 -39.5q-41 0 -71 43t-30 70.5zM766 788q0 37 17.5 49.5t68.5 12.5h43q25 0 31 11t6 36q0 150 49.5 275.5t122.5 199.5q152 158 279 158 q47 0 76.5 -15.5t29.5 -41.5q0 -8 -7 -36l-9 -36t-4 -13.5t-4 -11.5t-4 -9t-5.5 -7t-7.5 -6q-6 -4 -16 -4t-20 14q-31 39 -110 39t-123 -43t-66 -115q-43 -139 -44 -307v-51q0 -39 25 -39q180 0 219 29q14 8 22.5 8t8.5 -21.5t-29 -72.5q-12 -18 -51 -19l-160 -2 q-33 0 -32 -20v-119l10 -406q0 -109 28 -143q33 -43 101 -43q35 0 35 -31q0 -20 -23 -20l-205 10l-151 -10q-31 0 -31 28q0 10 25.5 20.5t50 38t24.5 62.5t-2 101q-6 201 -6 497q0 23 -7 28t-28 5l-82 -6q-45 -1 -45 26zM59 788q0 37 17.5 49.5t68.5 12.5h43q25 0 31 11 t6 36q0 150 49.5 275.5t122.5 199.5q152 158 279 158q47 0 76.5 -15.5t29.5 -41.5q0 -8 -7 -36l-9 -36t-4 -13.5t-4 -11.5t-4 -9t-5.5 -7t-7.5 -6q-6 -4 -16 -4t-20 14q-31 39 -110 39t-123 -43t-66 -115q-43 -139 -44 -307v-51q0 -39 25 -39q180 0 219 29q14 8 22.5 8 t8.5 -21.5t-29 -72.5q-12 -18 -51 -19l-160 -2q-33 0 -32 -20v-119l10 -406q0 -109 28 -143q33 -43 101 -43q35 0 35 -31q0 -20 -23 -20l-205 10l-151 -10q-31 0 -31 28q0 10 25.5 20.5t50 38t24.5 62.5t-2 101q-6 201 -6 497q0 23 -7 28t-28 5l-82 -6q-45 -1 -45 26z" />
<glyph unicode="&#xfb04;" horiz-adv-x="1984" d="M1454 1417.5q0 14.5 3 20.5t13.5 11t24.5 9q59 12 123 43q100 47 131 47q25 0 24 -39q0 -8 -4 -47q-12 -121 -12 -264v-115l-4 -272v-610q0 -43 7 -71t47 -53.5t112 -25.5q10 0 18 -10t8 -21q0 -29 -63 -28l-207 14q-53 0 -101 -8t-63.5 -8t-25 7t-9.5 18.5t9.5 18.5 t29.5 11q61 16 73.5 50t12.5 93l-2 54v151l9 871q0 47 -15.5 84.5t-34 46t-82.5 8.5q-22 0 -22 14.5zM766 788q0 37 17.5 49.5t68.5 12.5h43q25 0 31 11t6 36q0 150 49.5 275.5t122.5 199.5q152 158 279 158q47 0 76.5 -15.5t29.5 -41.5q0 -8 -7 -36l-9 -36t-4 -13.5 t-4 -11.5t-4 -9t-5.5 -7t-7.5 -6q-6 -4 -16 -4t-20 14q-31 39 -110 39t-123 -43t-66 -115q-43 -139 -44 -307v-51q0 -39 25 -39q180 0 219 29q14 8 22.5 8t8.5 -21.5t-29 -72.5q-12 -18 -51 -19l-160 -2q-33 0 -32 -20v-119l10 -406q0 -109 28 -143q33 -43 101 -43 q35 0 35 -31q0 -20 -23 -20l-205 10l-151 -10q-31 0 -31 28q0 10 25.5 20.5t50 38t24.5 62.5t-2 101q-6 201 -6 497q0 23 -7 28t-28 5l-82 -6q-45 -1 -45 26zM59 788q0 37 17.5 49.5t68.5 12.5h43q25 0 31 11t6 36q0 150 49.5 275.5t122.5 199.5q152 158 279 158 q47 0 76.5 -15.5t29.5 -41.5q0 -8 -7 -36l-9 -36t-4 -13.5t-4 -11.5t-4 -9t-5.5 -7t-7.5 -6q-6 -4 -16 -4t-20 14q-31 39 -110 39t-123 -43t-66 -115q-43 -139 -44 -307v-51q0 -39 25 -39q180 0 219 29q14 8 22.5 8t8.5 -21.5t-29 -72.5q-12 -18 -51 -19l-160 -2 q-33 0 -32 -20v-119l10 -406q0 -109 28 -143q33 -43 101 -43q35 0 35 -31q0 -20 -23 -20l-205 10l-151 -10q-31 0 -31 28q0 10 25.5 20.5t50 38t24.5 62.5t-2 101q-6 201 -6 497q0 23 -7 28t-28 5l-82 -6q-45 -1 -45 26z" />
<glyph horiz-adv-x="690" d="M168 1563.5q0 17.5 15.5 26.5t62.5 24.5t74.5 29t48.5 27.5q41 31 51 31q20 0 20 -29l-12 -61q-8 -205 -8 -410l-4 -244q0 -70 35 -81q39 -12 88 -13q25 -4 24.5 -27.5t-71.5 -23.5l-127 2l-152 -4q-39 0 -39 25q0 29 41 28.5t56.5 8t23.5 70t8 220.5v215l2 92v17 q0 74 -43 74q-16 0 -38.5 -12.5t-32 -12.5t-11.5 2q-12 8 -12 25.5z" />
<glyph horiz-adv-x="690" d="M86 827v4q0 12 36 52.5t104.5 139.5t128 224t59.5 234q0 51 -34 82.5t-90.5 31.5t-95 -18t-59 -36.5t-30 -18.5t-9.5 12t8.5 28.5t29 40t46.5 44.5q66 53 153 53t148.5 -44t61.5 -131t-78 -228.5t-156 -246t-78 -111.5t54 -7h125l82 4q4 0 15 5l22 10q11 5 40 33t37 28 q14 0 15 -13l-89 -161q-18 -27 -43 -27l-219 4l-143 -2q-41 0 -41 14z" />
<glyph horiz-adv-x="690" d="M82 879q0 20 27 20q6 0 22 -14q47 -41 141.5 -41t150.5 80t56 157.5t-41 126.5t-137 49l-39 -4q-16 0 -16 19q0 8 18 18q20 10 87 61.5t67 131.5q0 47 -31 79.5t-77 32.5t-100 -34.5t-61.5 -34.5t-7.5 10q0 37 75 94.5t143.5 57.5t123 -37t54.5 -109q0 -41 -19.5 -76.5 t-38 -53t-51.5 -43.5t-33 -32q0 -2 15 -6q59 -10 102 -37q96 -61 96 -164q0 -147 -97 -246.5t-228 -99.5q-72 0 -136.5 31t-64.5 64z" />
<glyph horiz-adv-x="690" d="M39 1086.5q0 21.5 50 88t189.5 239.5t158 197.5t30.5 39.5q29 37 49.5 37t20.5 -25l-15 -457q0 -18 2 -23t34 -5t56.5 17t30.5 17q14 0 14 -18q0 -6 -14 -64q-10 -63 -31 -63l-71 2q-25 0 -25 -22l4 -164v-109q0 -45 -6 -50t-45 -13.5t-55.5 -8.5t-24.5 10.5t-8 16.5 t3 15.5t7 31t8 53.5q8 98 9 232q0 8 -11 8h-16l-64 -2h-96l-147 -2q-37 0 -37 21.5zM172 1184q0 -12 37 -13h166q35 0 35 15v12l2 53q4 106 4 178t-7.5 72t-122 -149.5t-114.5 -167.5z" />
<glyph horiz-adv-x="690" d="M168 1201.5q0 17.5 15.5 26.5t62.5 24.5t74.5 29t48.5 27.5q41 31 51 31q20 0 20 -29l-12 -61q-8 -205 -8 -410l-4 -244q0 -70 35 -81q39 -12 88 -13q25 -4 24.5 -27.5t-71.5 -23.5l-127 2l-152 -4q-39 0 -39 25q0 29 41 28.5t56.5 8t23.5 70t8 220.5v215l2 92v17 q0 74 -43 74q-16 0 -38.5 -12.5t-32 -12.5t-11.5 2q-12 8 -12 25.5z" />
<glyph horiz-adv-x="690" d="M82 517q0 20 27 20q6 0 22 -14q47 -41 141.5 -41t150.5 80t56 157.5t-41 126.5t-137 49l-39 -4q-16 0 -16 19q0 8 18 18q20 10 87 61.5t67 131.5q0 47 -31 79.5t-77 32.5t-100 -34.5t-61.5 -34.5t-7.5 10q0 37 75 94.5t143.5 57.5t123 -37t54.5 -109q0 -41 -19.5 -76.5 t-38 -53t-51.5 -43.5t-33 -32q0 -2 15 -6q59 -10 102 -37q96 -61 96 -164q0 -147 -97 -246.5t-228 -99.5q-72 0 -136.5 31t-64.5 64z" />
<glyph horiz-adv-x="690" d="M86 36v4q0 12 36 52.5t104.5 139.5t128 224t59.5 234q0 51 -34 82.5t-90.5 31.5t-95 -18t-59 -36.5t-30 -18.5t-9.5 12t8.5 28.5t29 40t46.5 44.5q66 53 153 53t148.5 -44t61.5 -131t-78 -228.5t-156 -246t-78 -111.5t54 -7h125l82 4q4 0 15 5l22 10q11 5 40 33t37 28 q14 0 15 -13l-89 -161q-18 -27 -43 -27l-219 4l-143 -2q-41 0 -41 14z" />
<glyph horiz-adv-x="690" d="M39 295.5q0 21.5 50 88t189.5 239.5t158 197.5t30.5 39.5q29 37 49.5 37t20.5 -25l-15 -457q0 -18 2 -23t34 -5t56.5 17t30.5 17q14 0 14 -18q0 -6 -14 -64q-10 -63 -31 -63l-71 2q-25 0 -25 -22l4 -164v-109q0 -45 -6 -50t-45 -13.5t-55.5 -8.5t-24.5 10.5t-8 16.5 t3 15.5t7 31t8 53.5q8 98 9 232q0 8 -11 8h-16l-64 -2h-96l-147 -2q-37 0 -37 21.5zM172 393q0 -12 37 -13h166q35 0 35 15v12l2 53q4 106 4 178t-7.5 72t-122 -149.5t-114.5 -167.5z" />
<glyph horiz-adv-x="2048" d="M63 230.5q0 19.5 3 27.5q2 18 34 18h883q29 0 33 -18v-31q0 -25 -6 -34t-37 -9h-875q-31 0 -32 21q-3 6 -3 25.5z" />
<glyph horiz-adv-x="2048" d="M238 1210.5q0 28.5 31.5 66.5t65.5 38t65.5 -36t31.5 -68.5t-36 -70.5t-54 -38q-41 0 -72.5 40t-31.5 68.5z" />
<glyph horiz-adv-x="2048" d="M311 444.5q0 10.5 13 20.5q295 248 301 250q10 0 21 -13.5t11 -23.5t-97 -116.5t-97 -118t95 -119t95 -116.5t-10 -22.5t-19.5 -13.5t-105.5 85t-194 169q-13 8 -13 18.5z" />
<glyph horiz-adv-x="2048" d="M434 655.5q0 32.5 25.5 58t59.5 25.5t58.5 -23.5t24.5 -58t-24.5 -59.5t-59.5 -25t-59.5 25t-24.5 57.5zM444 206q0 34 25 58.5t58.5 24.5t59 -25.5t25.5 -58.5t-23.5 -57.5t-58 -24.5t-60.5 24.5t-26 58.5z" />
<glyph horiz-adv-x="2048" d="M551 1123.5q0 66.5 28.5 140t67.5 112.5q80 84 125 84q10 0 18.5 -9t8.5 -18.5t-18.5 -24.5t-39 -31.5t-39 -55.5t-18.5 -93t22.5 -92t47.5 -53q72 -39 71 -77q0 -12 -29.5 -42t-45.5 -51q-31 -39 -62 -39q-18 0 -47 26t-47.5 50.5t-30.5 65.5t-12 107.5z" />
<glyph horiz-adv-x="2048" d="M514 1323q0 18 55 74q4 4 21 24q31 39 53.5 39t52 -20.5t62.5 -76.5t33 -137t-29 -155t-70 -113q-82 -84 -125 -84q-10 0 -18 9.5t-8 18.5t18.5 24.5t38.5 33t38.5 56.5t18.5 93t-22.5 92t-48 52.5t-48 33t-22.5 36.5z" />
<glyph horiz-adv-x="2048" d="M514 323.5q0 18.5 55 73.5q4 4 21 25q31 39 53.5 39t52 -20.5t62.5 -77t33 -137.5t-29 -154.5t-70 -114.5q-80 -84 -125 -84q-10 0 -18 10.5t-8 19.5t18.5 24.5t38.5 31.5t38.5 55t18.5 93.5t-22.5 92.5t-48 52t-48 33.5t-22.5 38z" />
</font>
</defs>
</svg>
